%TF.GenerationSoftware,KiCad,Pcbnew,8.0.3*%
%TF.CreationDate,2024-07-14T00:03:07-05:00*%
%TF.ProjectId,Controller,436f6e74-726f-46c6-9c65-722e6b696361,rev?*%
%TF.SameCoordinates,Original*%
%TF.FileFunction,Copper,L1,Top*%
%TF.FilePolarity,Positive*%
%FSLAX46Y46*%
G04 Gerber Fmt 4.6, Leading zero omitted, Abs format (unit mm)*
G04 Created by KiCad (PCBNEW 8.0.3) date 2024-07-14 00:03:07*
%MOMM*%
%LPD*%
G01*
G04 APERTURE LIST*
G04 Aperture macros list*
%AMRoundRect*
0 Rectangle with rounded corners*
0 $1 Rounding radius*
0 $2 $3 $4 $5 $6 $7 $8 $9 X,Y pos of 4 corners*
0 Add a 4 corners polygon primitive as box body*
4,1,4,$2,$3,$4,$5,$6,$7,$8,$9,$2,$3,0*
0 Add four circle primitives for the rounded corners*
1,1,$1+$1,$2,$3*
1,1,$1+$1,$4,$5*
1,1,$1+$1,$6,$7*
1,1,$1+$1,$8,$9*
0 Add four rect primitives between the rounded corners*
20,1,$1+$1,$2,$3,$4,$5,0*
20,1,$1+$1,$4,$5,$6,$7,0*
20,1,$1+$1,$6,$7,$8,$9,0*
20,1,$1+$1,$8,$9,$2,$3,0*%
G04 Aperture macros list end*
%TA.AperFunction,ComponentPad*%
%ADD10C,2.000000*%
%TD*%
%TA.AperFunction,ComponentPad*%
%ADD11C,1.600000*%
%TD*%
%TA.AperFunction,ComponentPad*%
%ADD12O,1.600000X1.600000*%
%TD*%
%TA.AperFunction,ComponentPad*%
%ADD13RoundRect,0.250001X-0.799999X-0.799999X0.799999X-0.799999X0.799999X0.799999X-0.799999X0.799999X0*%
%TD*%
%TA.AperFunction,ComponentPad*%
%ADD14R,1.700000X1.700000*%
%TD*%
%TA.AperFunction,ComponentPad*%
%ADD15C,1.700000*%
%TD*%
%TA.AperFunction,ComponentPad*%
%ADD16R,1.600000X1.600000*%
%TD*%
%TA.AperFunction,ComponentPad*%
%ADD17R,1.800000X1.800000*%
%TD*%
%TA.AperFunction,ComponentPad*%
%ADD18O,1.800000X1.800000*%
%TD*%
%TA.AperFunction,ComponentPad*%
%ADD19RoundRect,0.250001X-0.799999X0.799999X-0.799999X-0.799999X0.799999X-0.799999X0.799999X0.799999X0*%
%TD*%
%TA.AperFunction,SMDPad,CuDef*%
%ADD20RoundRect,0.175000X-0.175000X-0.425000X0.175000X-0.425000X0.175000X0.425000X-0.175000X0.425000X0*%
%TD*%
%TA.AperFunction,SMDPad,CuDef*%
%ADD21RoundRect,0.190000X0.190000X0.410000X-0.190000X0.410000X-0.190000X-0.410000X0.190000X-0.410000X0*%
%TD*%
%TA.AperFunction,SMDPad,CuDef*%
%ADD22RoundRect,0.200000X0.200000X0.400000X-0.200000X0.400000X-0.200000X-0.400000X0.200000X-0.400000X0*%
%TD*%
%TA.AperFunction,SMDPad,CuDef*%
%ADD23RoundRect,0.175000X0.175000X0.425000X-0.175000X0.425000X-0.175000X-0.425000X0.175000X-0.425000X0*%
%TD*%
%TA.AperFunction,SMDPad,CuDef*%
%ADD24RoundRect,0.190000X-0.190000X-0.410000X0.190000X-0.410000X0.190000X0.410000X-0.190000X0.410000X0*%
%TD*%
%TA.AperFunction,SMDPad,CuDef*%
%ADD25RoundRect,0.200000X-0.200000X-0.400000X0.200000X-0.400000X0.200000X0.400000X-0.200000X0.400000X0*%
%TD*%
%TA.AperFunction,ComponentPad*%
%ADD26O,1.100000X1.700000*%
%TD*%
%TA.AperFunction,SMDPad,CuDef*%
%ADD27RoundRect,0.375000X-0.625000X-0.375000X0.625000X-0.375000X0.625000X0.375000X-0.625000X0.375000X0*%
%TD*%
%TA.AperFunction,SMDPad,CuDef*%
%ADD28RoundRect,0.500000X-0.500000X-1.400000X0.500000X-1.400000X0.500000X1.400000X-0.500000X1.400000X0*%
%TD*%
%TA.AperFunction,ViaPad*%
%ADD29C,0.600000*%
%TD*%
%TA.AperFunction,Conductor*%
%ADD30C,0.200000*%
%TD*%
G04 APERTURE END LIST*
D10*
%TO.P,SW7,1,1*%
%TO.N,GND*%
X152000000Y-70000000D03*
%TO.P,SW7,2,2*%
%TO.N,Net-(A1-D7)*%
X158000000Y-70000000D03*
%TD*%
D11*
%TO.P,R34,1*%
%TO.N,Net-(U10-A)*%
X130840000Y-75500000D03*
D12*
%TO.P,R34,2*%
%TO.N,Net-(U6-QA)*%
X141000000Y-75500000D03*
%TD*%
D11*
%TO.P,R6,1*%
%TO.N,Net-(D1-K)*%
X120500000Y-99500000D03*
D12*
%TO.P,R6,2*%
%TO.N,GND*%
X110340000Y-99500000D03*
%TD*%
D10*
%TO.P,SW3,1,1*%
%TO.N,GND*%
X52000000Y-80000000D03*
%TO.P,SW3,2,2*%
%TO.N,Net-(A1-D3)*%
X58000000Y-80000000D03*
%TD*%
D13*
%TO.P,J5,1,Pin_1*%
%TO.N,Net-(D3-K)*%
X63500000Y-53500000D03*
%TD*%
D11*
%TO.P,R24,1*%
%TO.N,Net-(U8-G)*%
X99000000Y-54500000D03*
D12*
%TO.P,R24,2*%
%TO.N,Net-(U4-QG)*%
X88840000Y-54500000D03*
%TD*%
D11*
%TO.P,FB1,1*%
%TO.N,GND*%
X100000000Y-104000000D03*
%TO.P,FB1,2*%
%TO.N,Net-(P1-SHIELD)*%
X105000000Y-104000000D03*
%TD*%
D10*
%TO.P,SW10,1,1*%
%TO.N,Net-(A1-~{RESET}-Pad3)*%
X177500000Y-106500000D03*
%TO.P,SW10,2,2*%
%TO.N,GND*%
X183500000Y-106500000D03*
%TD*%
D11*
%TO.P,R12,1*%
%TO.N,Net-(U7-C)*%
X130840000Y-57500000D03*
D12*
%TO.P,R12,2*%
%TO.N,Net-(U3-QC)*%
X141000000Y-57500000D03*
%TD*%
D11*
%TO.P,R27,1*%
%TO.N,Net-(U9-B)*%
X99000000Y-93500000D03*
D12*
%TO.P,R27,2*%
%TO.N,Net-(U5-QB)*%
X88840000Y-93500000D03*
%TD*%
D11*
%TO.P,R10,1*%
%TO.N,Net-(U7-A)*%
X130840000Y-51500000D03*
D12*
%TO.P,R10,2*%
%TO.N,Net-(U3-QA)*%
X141000000Y-51500000D03*
%TD*%
D14*
%TO.P,U7,1,E*%
%TO.N,Net-(U7-E)*%
X117669500Y-71719500D03*
D15*
%TO.P,U7,2,D*%
%TO.N,Net-(U7-D)*%
X120209500Y-71719500D03*
%TO.P,U7,3,CA*%
%TO.N,+4.8V*%
X122749500Y-71719500D03*
%TO.P,U7,4,C*%
%TO.N,Net-(U7-C)*%
X125289500Y-71719500D03*
%TO.P,U7,5,RDP*%
%TO.N,Net-(U7-RDP)*%
X127829500Y-71719500D03*
%TO.P,U7,6,B*%
%TO.N,Net-(U7-B)*%
X127829500Y-56479500D03*
%TO.P,U7,7,A*%
%TO.N,Net-(U7-A)*%
X125289500Y-56479500D03*
%TO.P,U7,8,CA*%
%TO.N,+4.8V*%
X122749500Y-56479500D03*
%TO.P,U7,9,F*%
%TO.N,Net-(U7-F)*%
X120209500Y-56479500D03*
%TO.P,U7,10,G*%
%TO.N,Net-(U7-G)*%
X117669500Y-56479500D03*
%TD*%
D11*
%TO.P,R7,1*%
%TO.N,+4.8V*%
X75500000Y-101000000D03*
D12*
%TO.P,R7,2*%
%TO.N,Net-(A1-A0)*%
X65340000Y-101000000D03*
%TD*%
D14*
%TO.P,U1,1,GND*%
%TO.N,GND*%
X71880000Y-43040000D03*
D15*
%TO.P,U1,2,VCC*%
%TO.N,+3.3V*%
X71880000Y-40500000D03*
%TO.P,U1,3,CE*%
%TO.N,Net-(A1-D10)*%
X74420000Y-43040000D03*
%TO.P,U1,4,~{CSN}*%
%TO.N,Net-(A1-A1)*%
X74420000Y-40500000D03*
%TO.P,U1,5,SCK*%
%TO.N,Net-(A1-SCK)*%
X76960000Y-43040000D03*
%TO.P,U1,6,MOSI*%
%TO.N,Net-(A1-MOSI)*%
X76960000Y-40500000D03*
%TO.P,U1,7,MISO*%
%TO.N,Net-(A1-MISO)*%
X79500000Y-43040000D03*
%TO.P,U1,8,IRQ*%
%TO.N,unconnected-(U1-IRQ-Pad8)*%
X79500000Y-40500000D03*
%TD*%
D11*
%TO.P,R33,1*%
%TO.N,Net-(U9-RDP)*%
X99000000Y-75500000D03*
D12*
%TO.P,R33,2*%
%TO.N,Net-(U5-QH)*%
X88840000Y-75500000D03*
%TD*%
D11*
%TO.P,R3,1*%
%TO.N,Net-(D3-A)*%
X46340000Y-72000000D03*
D12*
%TO.P,R3,2*%
%TO.N,GND*%
X56500000Y-72000000D03*
%TD*%
D14*
%TO.P,U10,1,E*%
%TO.N,Net-(U10-E)*%
X117669500Y-93519500D03*
D15*
%TO.P,U10,2,D*%
%TO.N,Net-(U10-D)*%
X120209500Y-93519500D03*
%TO.P,U10,3,CA*%
%TO.N,+4.8V*%
X122749500Y-93519500D03*
%TO.P,U10,4,C*%
%TO.N,Net-(U10-C)*%
X125289500Y-93519500D03*
%TO.P,U10,5,RDP*%
%TO.N,Net-(U10-RDP)*%
X127829500Y-93519500D03*
%TO.P,U10,6,B*%
%TO.N,Net-(U10-B)*%
X127829500Y-78279500D03*
%TO.P,U10,7,A*%
%TO.N,Net-(U10-A)*%
X125289500Y-78279500D03*
%TO.P,U10,8,CA*%
%TO.N,+4.8V*%
X122749500Y-78279500D03*
%TO.P,U10,9,F*%
%TO.N,Net-(U10-F)*%
X120209500Y-78279500D03*
%TO.P,U10,10,G*%
%TO.N,Net-(U10-G)*%
X117669500Y-78279500D03*
%TD*%
D13*
%TO.P,J1,1,Pin_1*%
%TO.N,Net-(D4-K)*%
X63500000Y-47500000D03*
%TD*%
D16*
%TO.P,U3,1,QB*%
%TO.N,Net-(U3-QB)*%
X145500000Y-46760000D03*
D12*
%TO.P,U3,2,QC*%
%TO.N,Net-(U3-QC)*%
X145500000Y-49300000D03*
%TO.P,U3,3,QD*%
%TO.N,Net-(U3-QD)*%
X145500000Y-51840000D03*
%TO.P,U3,4,QE*%
%TO.N,Net-(U3-QE)*%
X145500000Y-54380000D03*
%TO.P,U3,5,QF*%
%TO.N,Net-(U3-QF)*%
X145500000Y-56920000D03*
%TO.P,U3,6,QG*%
%TO.N,Net-(U3-QG)*%
X145500000Y-59460000D03*
%TO.P,U3,7,QH*%
%TO.N,Net-(U3-QH)*%
X145500000Y-62000000D03*
%TO.P,U3,8,GND*%
%TO.N,GND*%
X145500000Y-64540000D03*
%TO.P,U3,9,QH'*%
%TO.N,Net-(U3-QH')*%
X153120000Y-64540000D03*
%TO.P,U3,10,~{SRCLR}*%
%TO.N,+4.8V*%
X153120000Y-62000000D03*
%TO.P,U3,11,SRCLK*%
%TO.N,Net-(A1-A3)*%
X153120000Y-59460000D03*
%TO.P,U3,12,RCLK*%
%TO.N,Net-(A1-A2)*%
X153120000Y-56920000D03*
%TO.P,U3,13,~{OE}*%
%TO.N,GND*%
X153120000Y-54380000D03*
%TO.P,U3,14,SER*%
%TO.N,Net-(A1-A6)*%
X153120000Y-51840000D03*
%TO.P,U3,15,QA*%
%TO.N,Net-(U3-QA)*%
X153120000Y-49300000D03*
%TO.P,U3,16,VCC*%
%TO.N,+4.8V*%
X153120000Y-46760000D03*
%TD*%
D11*
%TO.P,R29,1*%
%TO.N,Net-(U9-D)*%
X99000000Y-87500000D03*
D12*
%TO.P,R29,2*%
%TO.N,Net-(U5-QD)*%
X88840000Y-87500000D03*
%TD*%
D16*
%TO.P,A1,1,TX1*%
%TO.N,unconnected-(A1-TX1-Pad1)*%
X170580000Y-95260000D03*
D12*
%TO.P,A1,2,RX1*%
%TO.N,unconnected-(A1-RX1-Pad2)*%
X168040000Y-95260000D03*
%TO.P,A1,3,~{RESET}*%
%TO.N,Net-(A1-~{RESET}-Pad3)*%
X165500000Y-95260000D03*
%TO.P,A1,4,GND*%
%TO.N,GND*%
X162960000Y-95260000D03*
%TO.P,A1,5,D2*%
%TO.N,Net-(A1-D2)*%
X160420000Y-95260000D03*
%TO.P,A1,6,D3*%
%TO.N,Net-(A1-D3)*%
X157880000Y-95260000D03*
%TO.P,A1,7,D4*%
%TO.N,Net-(A1-D4)*%
X155340000Y-95260000D03*
%TO.P,A1,8,D5*%
%TO.N,Net-(A1-D5)*%
X152800000Y-95260000D03*
%TO.P,A1,9,D6*%
%TO.N,Net-(A1-D6)*%
X150260000Y-95260000D03*
%TO.P,A1,10,D7*%
%TO.N,Net-(A1-D7)*%
X147720000Y-95260000D03*
%TO.P,A1,11,D8*%
%TO.N,Net-(A1-D8)*%
X145180000Y-95260000D03*
%TO.P,A1,12,D9*%
%TO.N,Net-(A1-D9)*%
X142640000Y-95260000D03*
%TO.P,A1,13,D10*%
%TO.N,Net-(A1-D10)*%
X140100000Y-95260000D03*
%TO.P,A1,14,MOSI*%
%TO.N,Net-(A1-MOSI)*%
X137560000Y-95260000D03*
%TO.P,A1,15,MISO*%
%TO.N,Net-(A1-MISO)*%
X135020000Y-95260000D03*
%TO.P,A1,16,SCK*%
%TO.N,Net-(A1-SCK)*%
X135020000Y-110500000D03*
%TO.P,A1,17,3V3*%
%TO.N,unconnected-(A1-3V3-Pad17)*%
X137560000Y-110500000D03*
%TO.P,A1,18,AREF*%
%TO.N,unconnected-(A1-AREF-Pad18)*%
X140100000Y-110500000D03*
%TO.P,A1,19,A0*%
%TO.N,Net-(A1-A0)*%
X142640000Y-110500000D03*
%TO.P,A1,20,A1*%
%TO.N,Net-(A1-A1)*%
X145180000Y-110500000D03*
%TO.P,A1,21,A2*%
%TO.N,Net-(A1-A2)*%
X147720000Y-110500000D03*
%TO.P,A1,22,A3*%
%TO.N,Net-(A1-A3)*%
X150260000Y-110500000D03*
%TO.P,A1,23,SDA/A4*%
%TO.N,unconnected-(A1-SDA{slash}A4-Pad23)*%
X152800000Y-110500000D03*
%TO.P,A1,24,SCL/A5*%
%TO.N,unconnected-(A1-SCL{slash}A5-Pad24)*%
X155340000Y-110500000D03*
%TO.P,A1,25,A6*%
%TO.N,Net-(A1-A6)*%
X157880000Y-110500000D03*
%TO.P,A1,26,A7*%
%TO.N,unconnected-(A1-A7-Pad26)*%
X160420000Y-110500000D03*
%TO.P,A1,27,+5V*%
%TO.N,+4.8V*%
X162960000Y-110500000D03*
%TO.P,A1,28,~{RESET}*%
%TO.N,unconnected-(A1-~{RESET}-Pad28)*%
X165500000Y-110500000D03*
%TO.P,A1,29,GND*%
%TO.N,GND*%
X168040000Y-110500000D03*
%TO.P,A1,30,VIN*%
%TO.N,unconnected-(A1-VIN-Pad30)*%
X170580000Y-110500000D03*
%TD*%
D11*
%TO.P,C2,1*%
%TO.N,+4.8V*%
X156000000Y-47500000D03*
%TO.P,C2,2*%
%TO.N,GND*%
X161000000Y-47500000D03*
%TD*%
%TO.P,R13,1*%
%TO.N,Net-(U7-D)*%
X130840000Y-60500000D03*
D12*
%TO.P,R13,2*%
%TO.N,Net-(U3-QD)*%
X141000000Y-60500000D03*
%TD*%
D16*
%TO.P,C1,1*%
%TO.N,+4.8V*%
X162500000Y-57500000D03*
D11*
%TO.P,C1,2*%
%TO.N,GND*%
X164500000Y-57500000D03*
%TD*%
D10*
%TO.P,SW9,1,1*%
%TO.N,GND*%
X172000000Y-85000000D03*
%TO.P,SW9,2,2*%
%TO.N,Net-(A1-D9)*%
X178000000Y-85000000D03*
%TD*%
D17*
%TO.P,D5,1,K*%
%TO.N,Net-(D5-K)*%
X68455000Y-48500000D03*
D18*
%TO.P,D5,2,A*%
%TO.N,+3.3V*%
X70995000Y-48500000D03*
%TD*%
D11*
%TO.P,R19,1*%
%TO.N,Net-(U8-B)*%
X99000000Y-69500000D03*
D12*
%TO.P,R19,2*%
%TO.N,Net-(U4-QB)*%
X88840000Y-69500000D03*
%TD*%
D10*
%TO.P,SW6,1,1*%
%TO.N,GND*%
X172000000Y-70000000D03*
%TO.P,SW6,2,2*%
%TO.N,Net-(A1-D6)*%
X178000000Y-70000000D03*
%TD*%
D11*
%TO.P,R1,1*%
%TO.N,+5V*%
X46340000Y-60400000D03*
D12*
%TO.P,R1,2*%
%TO.N,Net-(D3-A)*%
X56500000Y-60400000D03*
%TD*%
D11*
%TO.P,R28,1*%
%TO.N,Net-(U9-C)*%
X99000000Y-90500000D03*
D12*
%TO.P,R28,2*%
%TO.N,Net-(U5-QC)*%
X88840000Y-90500000D03*
%TD*%
D11*
%TO.P,R39,1*%
%TO.N,Net-(U10-F)*%
X130840000Y-90500000D03*
D12*
%TO.P,R39,2*%
%TO.N,Net-(U6-QF)*%
X141000000Y-90500000D03*
%TD*%
D11*
%TO.P,R9,1*%
%TO.N,Net-(D5-K)*%
X68000000Y-52420000D03*
D12*
%TO.P,R9,2*%
%TO.N,GND*%
X68000000Y-62580000D03*
%TD*%
D10*
%TO.P,SW2,1,1*%
%TO.N,GND*%
X62000000Y-70000000D03*
%TO.P,SW2,2,2*%
%TO.N,Net-(A1-D2)*%
X68000000Y-70000000D03*
%TD*%
D11*
%TO.P,R26,1*%
%TO.N,Net-(U9-A)*%
X99000000Y-96500000D03*
D12*
%TO.P,R26,2*%
%TO.N,Net-(U5-QA)*%
X88840000Y-96500000D03*
%TD*%
D11*
%TO.P,R15,1*%
%TO.N,Net-(U7-F)*%
X130840000Y-66500000D03*
D12*
%TO.P,R15,2*%
%TO.N,Net-(U3-QF)*%
X141000000Y-66500000D03*
%TD*%
D11*
%TO.P,R38,1*%
%TO.N,Net-(U10-E)*%
X130840000Y-87500000D03*
D12*
%TO.P,R38,2*%
%TO.N,Net-(U6-QE)*%
X141000000Y-87500000D03*
%TD*%
D11*
%TO.P,R16,1*%
%TO.N,Net-(U7-G)*%
X130840000Y-69500000D03*
D12*
%TO.P,R16,2*%
%TO.N,Net-(U3-QG)*%
X141000000Y-69500000D03*
%TD*%
D11*
%TO.P,R5,1*%
%TO.N,Net-(D2-A)*%
X74340000Y-52550000D03*
D12*
%TO.P,R5,2*%
%TO.N,GND*%
X84500000Y-52550000D03*
%TD*%
D11*
%TO.P,R36,1*%
%TO.N,Net-(U10-C)*%
X130840000Y-81500000D03*
D12*
%TO.P,R36,2*%
%TO.N,Net-(U6-QC)*%
X141000000Y-81500000D03*
%TD*%
D11*
%TO.P,R22,1*%
%TO.N,Net-(U8-E)*%
X99000000Y-60500000D03*
D12*
%TO.P,R22,2*%
%TO.N,Net-(U4-QE)*%
X88840000Y-60500000D03*
%TD*%
D16*
%TO.P,C3,1*%
%TO.N,+3.3V*%
X112000000Y-51000000D03*
D11*
%TO.P,C3,2*%
%TO.N,GND*%
X114000000Y-51000000D03*
%TD*%
D16*
%TO.P,U5,1,QB*%
%TO.N,Net-(U5-QB)*%
X86120000Y-103200000D03*
D12*
%TO.P,U5,2,QC*%
%TO.N,Net-(U5-QC)*%
X86120000Y-100660000D03*
%TO.P,U5,3,QD*%
%TO.N,Net-(U5-QD)*%
X86120000Y-98120000D03*
%TO.P,U5,4,QE*%
%TO.N,Net-(U5-QE)*%
X86120000Y-95580000D03*
%TO.P,U5,5,QF*%
%TO.N,Net-(U5-QF)*%
X86120000Y-93040000D03*
%TO.P,U5,6,QG*%
%TO.N,Net-(U5-QG)*%
X86120000Y-90500000D03*
%TO.P,U5,7,QH*%
%TO.N,Net-(U5-QH)*%
X86120000Y-87960000D03*
%TO.P,U5,8,GND*%
%TO.N,GND*%
X86120000Y-85420000D03*
%TO.P,U5,9,QH'*%
%TO.N,Net-(U5-QH')*%
X78500000Y-85420000D03*
%TO.P,U5,10,~{SRCLR}*%
%TO.N,+4.8V*%
X78500000Y-87960000D03*
%TO.P,U5,11,SRCLK*%
%TO.N,Net-(A1-A3)*%
X78500000Y-90500000D03*
%TO.P,U5,12,RCLK*%
%TO.N,Net-(A1-A2)*%
X78500000Y-93040000D03*
%TO.P,U5,13,~{OE}*%
%TO.N,GND*%
X78500000Y-95580000D03*
%TO.P,U5,14,SER*%
%TO.N,Net-(U4-QH')*%
X78500000Y-98120000D03*
%TO.P,U5,15,QA*%
%TO.N,Net-(U5-QA)*%
X78500000Y-100660000D03*
%TO.P,U5,16,VCC*%
%TO.N,+4.8V*%
X78500000Y-103200000D03*
%TD*%
D11*
%TO.P,R2,1*%
%TO.N,+5V*%
X46340000Y-66000000D03*
D12*
%TO.P,R2,2*%
%TO.N,Net-(D4-A)*%
X56500000Y-66000000D03*
%TD*%
D11*
%TO.P,R23,1*%
%TO.N,Net-(U8-F)*%
X99000000Y-57500000D03*
D12*
%TO.P,R23,2*%
%TO.N,Net-(U4-QF)*%
X88840000Y-57500000D03*
%TD*%
D19*
%TO.P,J3,1,Pin_1*%
%TO.N,GND*%
X117500000Y-50000000D03*
%TD*%
D11*
%TO.P,R37,1*%
%TO.N,Net-(U10-D)*%
X130840000Y-84500000D03*
D12*
%TO.P,R37,2*%
%TO.N,Net-(U6-QD)*%
X141000000Y-84500000D03*
%TD*%
D11*
%TO.P,R40,1*%
%TO.N,Net-(U10-G)*%
X148000000Y-90160000D03*
D12*
%TO.P,R40,2*%
%TO.N,Net-(U6-QG)*%
X148000000Y-80000000D03*
%TD*%
D16*
%TO.P,SW1,1,A*%
%TO.N,Net-(D2-K)*%
X121880000Y-42500000D03*
D12*
%TO.P,SW1,2,B*%
%TO.N,+4.8V*%
X129500000Y-42500000D03*
%TD*%
D16*
%TO.P,U4,1,QB*%
%TO.N,Net-(U4-QB)*%
X86000000Y-74540000D03*
D12*
%TO.P,U4,2,QC*%
%TO.N,Net-(U4-QC)*%
X86000000Y-72000000D03*
%TO.P,U4,3,QD*%
%TO.N,Net-(U4-QD)*%
X86000000Y-69460000D03*
%TO.P,U4,4,QE*%
%TO.N,Net-(U4-QE)*%
X86000000Y-66920000D03*
%TO.P,U4,5,QF*%
%TO.N,Net-(U4-QF)*%
X86000000Y-64380000D03*
%TO.P,U4,6,QG*%
%TO.N,Net-(U4-QG)*%
X86000000Y-61840000D03*
%TO.P,U4,7,QH*%
%TO.N,Net-(U4-QH)*%
X86000000Y-59300000D03*
%TO.P,U4,8,GND*%
%TO.N,GND*%
X86000000Y-56760000D03*
%TO.P,U4,9,QH'*%
%TO.N,Net-(U4-QH')*%
X78380000Y-56760000D03*
%TO.P,U4,10,~{SRCLR}*%
%TO.N,+4.8V*%
X78380000Y-59300000D03*
%TO.P,U4,11,SRCLK*%
%TO.N,Net-(A1-A3)*%
X78380000Y-61840000D03*
%TO.P,U4,12,RCLK*%
%TO.N,Net-(A1-A2)*%
X78380000Y-64380000D03*
%TO.P,U4,13,~{OE}*%
%TO.N,GND*%
X78380000Y-66920000D03*
%TO.P,U4,14,SER*%
%TO.N,Net-(U3-QH')*%
X78380000Y-69460000D03*
%TO.P,U4,15,QA*%
%TO.N,Net-(U4-QA)*%
X78380000Y-72000000D03*
%TO.P,U4,16,VCC*%
%TO.N,+4.8V*%
X78380000Y-74540000D03*
%TD*%
D14*
%TO.P,U8,1,E*%
%TO.N,Net-(U8-E)*%
X102169500Y-71719500D03*
D15*
%TO.P,U8,2,D*%
%TO.N,Net-(U8-D)*%
X104709500Y-71719500D03*
%TO.P,U8,3,CA*%
%TO.N,+4.8V*%
X107249500Y-71719500D03*
%TO.P,U8,4,C*%
%TO.N,Net-(U8-C)*%
X109789500Y-71719500D03*
%TO.P,U8,5,RDP*%
%TO.N,Net-(U8-RDP)*%
X112329500Y-71719500D03*
%TO.P,U8,6,B*%
%TO.N,Net-(U8-B)*%
X112329500Y-56479500D03*
%TO.P,U8,7,A*%
%TO.N,Net-(U8-A)*%
X109789500Y-56479500D03*
%TO.P,U8,8,CA*%
%TO.N,+4.8V*%
X107249500Y-56479500D03*
%TO.P,U8,9,F*%
%TO.N,Net-(U8-F)*%
X104709500Y-56479500D03*
%TO.P,U8,10,G*%
%TO.N,Net-(U8-G)*%
X102169500Y-56479500D03*
%TD*%
D20*
%TO.P,P1,A5,CC*%
%TO.N,unconnected-(P1-CC-PadA5)*%
X114500000Y-105620000D03*
D21*
%TO.P,P1,A9,VBUS*%
%TO.N,+5V*%
X116520000Y-105620000D03*
D22*
%TO.P,P1,A12,GND*%
%TO.N,GND*%
X117750000Y-105620000D03*
D23*
%TO.P,P1,B5,VCONN*%
%TO.N,unconnected-(P1-VCONN-PadB5)*%
X115500000Y-105620000D03*
D24*
%TO.P,P1,B9,VBUS*%
%TO.N,+5V*%
X113480000Y-105620000D03*
D25*
%TO.P,P1,B12,GND*%
%TO.N,GND*%
X112250000Y-105620000D03*
D26*
%TO.P,P1,S1,SHIELD*%
%TO.N,Net-(P1-SHIELD)*%
X110680000Y-105700000D03*
X110680000Y-109500000D03*
X119320000Y-105700000D03*
X119320000Y-109500000D03*
%TD*%
D16*
%TO.P,U6,1,QB*%
%TO.N,Net-(U6-QB)*%
X161166487Y-68307747D03*
D12*
%TO.P,U6,2,QC*%
%TO.N,Net-(U6-QC)*%
X161166487Y-70847747D03*
%TO.P,U6,3,QD*%
%TO.N,Net-(U6-QD)*%
X161166487Y-73387747D03*
%TO.P,U6,4,QE*%
%TO.N,Net-(U6-QE)*%
X161166487Y-75927747D03*
%TO.P,U6,5,QF*%
%TO.N,Net-(U6-QF)*%
X161166487Y-78467747D03*
%TO.P,U6,6,QG*%
%TO.N,Net-(U6-QG)*%
X161166487Y-81007747D03*
%TO.P,U6,7,QH*%
%TO.N,Net-(U6-QH)*%
X161166487Y-83547747D03*
%TO.P,U6,8,GND*%
%TO.N,GND*%
X161166487Y-86087747D03*
%TO.P,U6,9,QH'*%
%TO.N,unconnected-(U6-QH'-Pad9)*%
X168786487Y-86087747D03*
%TO.P,U6,10,~{SRCLR}*%
%TO.N,+4.8V*%
X168786487Y-83547747D03*
%TO.P,U6,11,SRCLK*%
%TO.N,Net-(A1-A3)*%
X168786487Y-81007747D03*
%TO.P,U6,12,RCLK*%
%TO.N,Net-(A1-A2)*%
X168786487Y-78467747D03*
%TO.P,U6,13,~{OE}*%
%TO.N,GND*%
X168786487Y-75927747D03*
%TO.P,U6,14,SER*%
%TO.N,Net-(U5-QH')*%
X168786487Y-73387747D03*
%TO.P,U6,15,QA*%
%TO.N,Net-(U6-QA)*%
X168786487Y-70847747D03*
%TO.P,U6,16,VCC*%
%TO.N,+4.8V*%
X168786487Y-68307747D03*
%TD*%
D17*
%TO.P,D1,1,K*%
%TO.N,Net-(D1-K)*%
X124500000Y-106000000D03*
D18*
%TO.P,D1,2,A*%
%TO.N,+5V*%
X124500000Y-108540000D03*
%TD*%
D10*
%TO.P,SW4,1,1*%
%TO.N,GND*%
X62000000Y-90000000D03*
%TO.P,SW4,2,2*%
%TO.N,Net-(A1-D4)*%
X68000000Y-90000000D03*
%TD*%
D13*
%TO.P,J2,1,Pin_1*%
%TO.N,GND*%
X63500000Y-59500000D03*
%TD*%
D11*
%TO.P,R20,1*%
%TO.N,Net-(U8-C)*%
X99000000Y-66500000D03*
D12*
%TO.P,R20,2*%
%TO.N,Net-(U4-QC)*%
X88840000Y-66500000D03*
%TD*%
D11*
%TO.P,R35,1*%
%TO.N,Net-(U10-B)*%
X130840000Y-78500000D03*
D12*
%TO.P,R35,2*%
%TO.N,Net-(U6-QB)*%
X141000000Y-78500000D03*
%TD*%
D17*
%TO.P,D4,1,K*%
%TO.N,Net-(D4-K)*%
X63350000Y-41000000D03*
D18*
%TO.P,D4,2,A*%
%TO.N,Net-(D4-A)*%
X50650000Y-41000000D03*
%TD*%
D11*
%TO.P,R21,1*%
%TO.N,Net-(U8-D)*%
X99000000Y-63500000D03*
D12*
%TO.P,R21,2*%
%TO.N,Net-(U4-QD)*%
X88840000Y-63500000D03*
%TD*%
D11*
%TO.P,R32,1*%
%TO.N,Net-(U9-G)*%
X99000000Y-78500000D03*
D12*
%TO.P,R32,2*%
%TO.N,Net-(U5-QG)*%
X88840000Y-78500000D03*
%TD*%
D11*
%TO.P,R31,1*%
%TO.N,Net-(U9-F)*%
X99000000Y-81500000D03*
D12*
%TO.P,R31,2*%
%TO.N,Net-(U5-QF)*%
X88840000Y-81500000D03*
%TD*%
D11*
%TO.P,R14,1*%
%TO.N,Net-(U7-E)*%
X130840000Y-63500000D03*
D12*
%TO.P,R14,2*%
%TO.N,Net-(U3-QE)*%
X141000000Y-63500000D03*
%TD*%
D17*
%TO.P,D2,1,K*%
%TO.N,Net-(D2-K)*%
X109850000Y-47500000D03*
D18*
%TO.P,D2,2,A*%
%TO.N,Net-(D2-A)*%
X97150000Y-47500000D03*
%TD*%
D11*
%TO.P,R11,1*%
%TO.N,Net-(U7-B)*%
X130840000Y-54500000D03*
D12*
%TO.P,R11,2*%
%TO.N,Net-(U3-QB)*%
X141000000Y-54500000D03*
%TD*%
D17*
%TO.P,D3,1,K*%
%TO.N,Net-(D3-K)*%
X59500000Y-52150000D03*
D18*
%TO.P,D3,2,A*%
%TO.N,Net-(D3-A)*%
X59500000Y-64850000D03*
%TD*%
D11*
%TO.P,R30,1*%
%TO.N,Net-(U9-E)*%
X99000000Y-84500000D03*
D12*
%TO.P,R30,2*%
%TO.N,Net-(U5-QE)*%
X88840000Y-84500000D03*
%TD*%
D11*
%TO.P,R18,1*%
%TO.N,Net-(U8-A)*%
X99000000Y-72500000D03*
D12*
%TO.P,R18,2*%
%TO.N,Net-(U4-QA)*%
X88840000Y-72500000D03*
%TD*%
D10*
%TO.P,SW8,1,1*%
%TO.N,GND*%
X152000000Y-85000000D03*
%TO.P,SW8,2,2*%
%TO.N,Net-(A1-D8)*%
X158000000Y-85000000D03*
%TD*%
%TO.P,SW5,1,1*%
%TO.N,GND*%
X72000000Y-80000000D03*
%TO.P,SW5,2,2*%
%TO.N,Net-(A1-D5)*%
X78000000Y-80000000D03*
%TD*%
D11*
%TO.P,R41,1*%
%TO.N,Net-(U10-RDP)*%
X144000000Y-90160000D03*
D12*
%TO.P,R41,2*%
%TO.N,Net-(U6-QH)*%
X144000000Y-80000000D03*
%TD*%
D11*
%TO.P,C4,1*%
%TO.N,+3.3V*%
X100000000Y-42500000D03*
%TO.P,C4,2*%
%TO.N,GND*%
X105000000Y-42500000D03*
%TD*%
D14*
%TO.P,U9,1,E*%
%TO.N,Net-(U9-E)*%
X102169500Y-93519500D03*
D15*
%TO.P,U9,2,D*%
%TO.N,Net-(U9-D)*%
X104709500Y-93519500D03*
%TO.P,U9,3,CA*%
%TO.N,+4.8V*%
X107249500Y-93519500D03*
%TO.P,U9,4,C*%
%TO.N,Net-(U9-C)*%
X109789500Y-93519500D03*
%TO.P,U9,5,RDP*%
%TO.N,Net-(U9-RDP)*%
X112329500Y-93519500D03*
%TO.P,U9,6,B*%
%TO.N,Net-(U9-B)*%
X112329500Y-78279500D03*
%TO.P,U9,7,A*%
%TO.N,Net-(U9-A)*%
X109789500Y-78279500D03*
%TO.P,U9,8,CA*%
%TO.N,+4.8V*%
X107249500Y-78279500D03*
%TO.P,U9,9,F*%
%TO.N,Net-(U9-F)*%
X104709500Y-78279500D03*
%TO.P,U9,10,G*%
%TO.N,Net-(U9-G)*%
X102169500Y-78279500D03*
%TD*%
D19*
%TO.P,J6,1,Pin_1*%
%TO.N,Net-(D2-K)*%
X127500000Y-50000000D03*
%TD*%
D11*
%TO.P,R17,1*%
%TO.N,Net-(U7-RDP)*%
X130840000Y-72500000D03*
D12*
%TO.P,R17,2*%
%TO.N,Net-(U3-QH)*%
X141000000Y-72500000D03*
%TD*%
D11*
%TO.P,R25,1*%
%TO.N,Net-(U8-RDP)*%
X99000000Y-51500000D03*
D12*
%TO.P,R25,2*%
%TO.N,Net-(U4-QH)*%
X88840000Y-51500000D03*
%TD*%
D11*
%TO.P,R8,1*%
%TO.N,Net-(A1-A0)*%
X60420000Y-107500000D03*
D12*
%TO.P,R8,2*%
%TO.N,GND*%
X70580000Y-107500000D03*
%TD*%
D11*
%TO.P,R4,1*%
%TO.N,+5V*%
X74340000Y-48500000D03*
D12*
%TO.P,R4,2*%
%TO.N,Net-(D2-A)*%
X84500000Y-48500000D03*
%TD*%
D27*
%TO.P,U2,1,GND*%
%TO.N,GND*%
X86850000Y-40700000D03*
%TO.P,U2,2,VO*%
%TO.N,+3.3V*%
X86850000Y-43000000D03*
D28*
X93150000Y-43000000D03*
D27*
%TO.P,U2,3,VI*%
%TO.N,+4.8V*%
X86850000Y-45300000D03*
%TD*%
D29*
%TO.N,Net-(A1-A6)*%
X155500000Y-85500000D03*
X155500000Y-73000000D03*
X156505026Y-70505026D03*
X158000000Y-79500000D03*
%TO.N,Net-(A1-D8)*%
X153004265Y-86995735D03*
X151000000Y-93000000D03*
%TO.N,Net-(A1-D6)*%
X161500000Y-89500000D03*
%TO.N,GND*%
X112250000Y-103500000D03*
X115500000Y-103500000D03*
X165000000Y-103500000D03*
%TO.N,Net-(A1-SCK)*%
X96500000Y-54500000D03*
%TO.N,Net-(A1-D9)*%
X168000000Y-99500000D03*
%TO.N,Net-(A1-A3)*%
X141000000Y-100500000D03*
X84000000Y-97500000D03*
X167000000Y-81000000D03*
X164000000Y-65500000D03*
X75000000Y-81000000D03*
X75000000Y-74000000D03*
X162320238Y-88090027D03*
X149000000Y-100500000D03*
X151000000Y-98500000D03*
X166500000Y-71500000D03*
%TO.N,Net-(A1-A1)*%
X136500000Y-92900000D03*
X136500000Y-79500000D03*
X115500000Y-71000000D03*
X115500000Y-58400000D03*
X136292091Y-95547074D03*
%TO.N,Net-(A1-D7)*%
X148500000Y-83600000D03*
X150000000Y-78500000D03*
X150505026Y-85505026D03*
%TO.N,Net-(A1-D10)*%
X124000000Y-74500000D03*
X131000000Y-89000000D03*
%TO.N,Net-(A1-A2)*%
X83500000Y-101400000D03*
X78500000Y-76000000D03*
X81000000Y-95500000D03*
X81000000Y-81500000D03*
X166500000Y-78500000D03*
X166000000Y-86500000D03*
X131500000Y-106000000D03*
X141500000Y-108500000D03*
X160500000Y-98000000D03*
X108000000Y-106500000D03*
X159500000Y-56900000D03*
X165000000Y-69500000D03*
X81000000Y-90500000D03*
X164000000Y-88500000D03*
%TO.N,Net-(A1-A0)*%
X134000000Y-107500000D03*
%TO.N,+4.8V*%
X166500000Y-91000000D03*
X123000000Y-81000000D03*
X166500000Y-88500000D03*
X112846124Y-55232261D03*
X129500000Y-46500000D03*
X102500000Y-49000000D03*
%TO.N,Net-(A1-MOSI)*%
X95700000Y-94851473D03*
X137500000Y-97500000D03*
X96317996Y-53469467D03*
%TO.N,Net-(A1-MISO)*%
X82500000Y-55500000D03*
X121500000Y-74500000D03*
X122500000Y-82000000D03*
X81000000Y-46000000D03*
%TO.N,Net-(D3-A)*%
X46500000Y-69500000D03*
%TO.N,Net-(P1-SHIELD)*%
X112500000Y-107500000D03*
%TO.N,Net-(U7-C)*%
X126068765Y-64168765D03*
%TO.N,Net-(U7-D)*%
X125500000Y-66500000D03*
%TO.N,Net-(U7-G)*%
X127500000Y-69500000D03*
%TO.N,Net-(U4-QA)*%
X80500000Y-71000000D03*
%TO.N,Net-(U5-QA)*%
X81600000Y-98500000D03*
%TO.N,Net-(U5-QE)*%
X91000000Y-84500000D03*
X93400000Y-92500000D03*
%TO.N,Net-(U5-QF)*%
X82000000Y-87500000D03*
%TO.N,Net-(U5-QH)*%
X82500000Y-83100000D03*
X85500000Y-80600000D03*
X91000000Y-77500000D03*
X84500000Y-86000000D03*
X93000000Y-77500000D03*
%TO.N,Net-(U9-RDP)*%
X106000000Y-92200000D03*
%TO.N,Net-(U10-D)*%
X124500000Y-92000000D03*
%TO.N,Net-(U10-E)*%
X128000000Y-90500000D03*
%TO.N,Net-(U10-RDP)*%
X130500000Y-93500000D03*
%TO.N,Net-(U6-QH)*%
X154000000Y-83000000D03*
%TO.N,Net-(U3-QH')*%
X117000000Y-62000000D03*
X130094265Y-62200000D03*
%TO.N,Net-(U5-QH')*%
X128500000Y-81000000D03*
X151000000Y-72500000D03*
X83000000Y-84000000D03*
%TD*%
D30*
%TO.N,Net-(A1-A6)*%
X153400000Y-83400000D02*
X155500000Y-85500000D01*
X156651471Y-79500000D02*
X153400000Y-82751471D01*
X156505026Y-71994974D02*
X155500000Y-73000000D01*
X158000000Y-79500000D02*
X156651471Y-79500000D01*
X153400000Y-82751471D02*
X153400000Y-83400000D01*
X156505026Y-70505026D02*
X156505026Y-71994974D01*
%TO.N,Net-(A1-D8)*%
X151000000Y-89000000D02*
X151000000Y-93000000D01*
X153004265Y-86995735D02*
X151000000Y-89000000D01*
%TO.N,Net-(A1-D6)*%
X156020000Y-89500000D02*
X150260000Y-95260000D01*
X161500000Y-89500000D02*
X156020000Y-89500000D01*
%TO.N,GND*%
X117750000Y-105620000D02*
X117750000Y-105020000D01*
X112250000Y-106220000D02*
X112250000Y-105620000D01*
X66580000Y-62580000D02*
X63500000Y-59500000D01*
X69795000Y-45125000D02*
X71880000Y-43040000D01*
X98944365Y-50000000D02*
X106934314Y-50000000D01*
X168786487Y-75927747D02*
X172000000Y-72714234D01*
X86850000Y-40700000D02*
X100179899Y-40700000D01*
X145500000Y-64540000D02*
X146600000Y-63440000D01*
X70730000Y-41890000D02*
X70730000Y-39770000D01*
X134384744Y-45500000D02*
X150000000Y-45500000D01*
X109379899Y-49900000D02*
X113100000Y-49900000D01*
X165000000Y-103500000D02*
X169300000Y-107800000D01*
X113100000Y-49900000D02*
X114000000Y-50800000D01*
X117500000Y-50000000D02*
X118850000Y-51350000D01*
X164500000Y-56368630D02*
X164500000Y-57500000D01*
X79580000Y-95580000D02*
X82500000Y-98500000D01*
X72000000Y-73300000D02*
X78380000Y-66920000D01*
X153575635Y-48200000D02*
X154220000Y-48844365D01*
X154220000Y-48844365D02*
X154220000Y-53280000D01*
X84950000Y-53000000D02*
X95944365Y-53000000D01*
X85500000Y-39350000D02*
X86850000Y-40700000D01*
X62000000Y-61000000D02*
X63500000Y-59500000D01*
X161411370Y-53280000D02*
X161000000Y-52868630D01*
X84500000Y-52550000D02*
X84500000Y-55260000D01*
X162960000Y-87881260D02*
X169118740Y-87881260D01*
X172000000Y-85000000D02*
X171500000Y-84500000D01*
X52000000Y-80000000D02*
X56500000Y-75500000D01*
X171500000Y-84500000D02*
X171500000Y-78641260D01*
X161411370Y-53280000D02*
X164500000Y-56368630D01*
X56500000Y-72000000D02*
X60000000Y-72000000D01*
X152700000Y-48200000D02*
X153575635Y-48200000D01*
X82500000Y-107500000D02*
X110970000Y-107500000D01*
X100000000Y-104000000D02*
X100500000Y-104000000D01*
X64549999Y-59500000D02*
X69795000Y-54254999D01*
X103489949Y-44010051D02*
X109379899Y-49900000D01*
X169118740Y-87881260D02*
X172000000Y-85000000D01*
X105000000Y-99500000D02*
X110340000Y-99500000D01*
X78500000Y-95580000D02*
X79580000Y-95580000D01*
X82500000Y-98500000D02*
X82500000Y-107500000D01*
X72000000Y-80000000D02*
X72000000Y-73300000D01*
X106934314Y-50000000D02*
X109034314Y-52100000D01*
X100179899Y-40700000D02*
X103489949Y-44010051D01*
X83200000Y-82500000D02*
X74500000Y-82500000D01*
X128534744Y-51350000D02*
X134384744Y-45500000D01*
X62000000Y-90000000D02*
X52000000Y-80000000D01*
X154220000Y-53280000D02*
X161411370Y-53280000D01*
X170740000Y-107800000D02*
X168040000Y-110500000D01*
X70730000Y-39770000D02*
X71150000Y-39350000D01*
X152000000Y-70000000D02*
X146540000Y-64540000D01*
X69795000Y-54254999D02*
X69795000Y-45125000D01*
X182200000Y-107800000D02*
X170740000Y-107800000D01*
X62000000Y-70000000D02*
X62000000Y-61000000D01*
X114000000Y-51000000D02*
X116500000Y-51000000D01*
X62000000Y-90000000D02*
X70580000Y-98580000D01*
X162960000Y-87881260D02*
X161166487Y-86087747D01*
X146600000Y-63440000D02*
X146600000Y-60900000D01*
X72000000Y-80000000D02*
X62000000Y-90000000D01*
X70580000Y-107500000D02*
X70580000Y-98580000D01*
X74500000Y-82500000D02*
X72000000Y-80000000D01*
X112250000Y-105620000D02*
X112250000Y-103500000D01*
X113000000Y-52100000D02*
X114000000Y-51100000D01*
X78500000Y-96000000D02*
X78500000Y-95580000D01*
X60000000Y-72000000D02*
X62000000Y-70000000D01*
X183500000Y-106500000D02*
X182200000Y-107800000D01*
X172000000Y-72714234D02*
X172000000Y-70000000D01*
X114000000Y-51100000D02*
X114000000Y-51000000D01*
X116500000Y-51000000D02*
X117500000Y-50000000D01*
X56500000Y-75500000D02*
X56500000Y-72000000D01*
X117750000Y-105020000D02*
X116230000Y-103500000D01*
X172000000Y-70000000D02*
X172000000Y-69500000D01*
X164500000Y-62000000D02*
X164500000Y-57500000D01*
X109034314Y-52100000D02*
X113000000Y-52100000D01*
X114000000Y-50800000D02*
X114000000Y-51000000D01*
X172000000Y-69500000D02*
X164500000Y-62000000D01*
X154220000Y-53280000D02*
X153120000Y-54380000D01*
X110970000Y-107500000D02*
X112250000Y-106220000D01*
X112250000Y-103500000D02*
X112250000Y-101410000D01*
X71880000Y-43040000D02*
X70730000Y-41890000D01*
X63500000Y-59500000D02*
X64549999Y-59500000D01*
X103489949Y-44010051D02*
X105000000Y-42500000D01*
X169300000Y-107800000D02*
X170740000Y-107800000D01*
X112250000Y-101410000D02*
X110340000Y-99500000D01*
X68000000Y-62580000D02*
X66580000Y-62580000D01*
X171500000Y-78641260D02*
X168786487Y-75927747D01*
X150000000Y-45500000D02*
X152700000Y-48200000D01*
X160366488Y-86887746D02*
X153887746Y-86887746D01*
X146600000Y-60900000D02*
X153120000Y-54380000D01*
X161000000Y-52868630D02*
X161000000Y-47500000D01*
X95944365Y-53000000D02*
X98944365Y-50000000D01*
X146540000Y-64540000D02*
X145500000Y-64540000D01*
X84500000Y-55260000D02*
X86000000Y-56760000D01*
X162960000Y-95260000D02*
X162960000Y-87881260D01*
X118850000Y-51350000D02*
X128534744Y-51350000D01*
X71150000Y-39350000D02*
X85500000Y-39350000D01*
X84500000Y-52550000D02*
X84950000Y-53000000D01*
X70580000Y-107500000D02*
X82500000Y-107500000D01*
X153887746Y-86887746D02*
X152000000Y-85000000D01*
X86120000Y-85420000D02*
X83200000Y-82500000D01*
X161166487Y-86087747D02*
X160366488Y-86887746D01*
X100500000Y-104000000D02*
X105000000Y-99500000D01*
X116230000Y-103500000D02*
X115500000Y-103500000D01*
%TO.N,Net-(A1-SCK)*%
X96500000Y-54500000D02*
X96300000Y-54700000D01*
X98944365Y-98000000D02*
X122520000Y-98000000D01*
X96300000Y-95355635D02*
X98944365Y-98000000D01*
X122520000Y-98000000D02*
X135020000Y-110500000D01*
X96300000Y-54700000D02*
X96300000Y-95355635D01*
%TO.N,Net-(A1-D9)*%
X146880000Y-99500000D02*
X168000000Y-99500000D01*
X142640000Y-95260000D02*
X146880000Y-99500000D01*
%TO.N,Net-(A1-A3)*%
X75000000Y-74000000D02*
X75000000Y-81000000D01*
X154000000Y-95044365D02*
X158944365Y-90100000D01*
X164000000Y-63500000D02*
X164000000Y-65500000D01*
X78500000Y-90500000D02*
X79299999Y-89700001D01*
X141000000Y-101240000D02*
X144630000Y-104870000D01*
X167100000Y-80900000D02*
X167000000Y-81000000D01*
X162320238Y-89739762D02*
X162320238Y-88090027D01*
X161960000Y-90100000D02*
X162320238Y-89739762D01*
X166500000Y-71500000D02*
X167100000Y-72100000D01*
X167100000Y-72100000D02*
X167100000Y-80900000D01*
X163940000Y-63440000D02*
X164000000Y-63500000D01*
X79299999Y-89700001D02*
X81200001Y-89700001D01*
X144630000Y-104870000D02*
X149000000Y-100500000D01*
X144630000Y-104870000D02*
X150260000Y-110500000D01*
X81200001Y-89700001D02*
X84000000Y-92500000D01*
X84000000Y-92500000D02*
X84000000Y-97500000D01*
X152020000Y-60560000D02*
X152020000Y-62520000D01*
X151000000Y-98500000D02*
X151115635Y-98500000D01*
X152020000Y-62520000D02*
X152940000Y-63440000D01*
X152940000Y-63440000D02*
X163940000Y-63440000D01*
X154000000Y-95615635D02*
X154000000Y-95044365D01*
X153120000Y-59460000D02*
X152020000Y-60560000D01*
X141000000Y-100500000D02*
X141000000Y-101240000D01*
X151115635Y-98500000D02*
X154000000Y-95615635D01*
X158944365Y-90100000D02*
X161960000Y-90100000D01*
%TO.N,Net-(A1-~{RESET}-Pad3)*%
X177500000Y-106500000D02*
X166260000Y-95260000D01*
X166260000Y-95260000D02*
X165500000Y-95260000D01*
%TO.N,Net-(A1-A1)*%
X115500000Y-58400000D02*
X115500000Y-71000000D01*
X136292091Y-101612091D02*
X145180000Y-110500000D01*
X136500000Y-79500000D02*
X136500000Y-92900000D01*
X136292091Y-95547074D02*
X136292091Y-101612091D01*
%TO.N,Net-(A1-D7)*%
X150505026Y-92474974D02*
X147720000Y-95260000D01*
X150000000Y-78500000D02*
X150000000Y-82100000D01*
X150505026Y-85505026D02*
X150505026Y-92474974D01*
X150000000Y-82100000D02*
X148500000Y-83600000D01*
%TO.N,Net-(A1-D10)*%
X130600000Y-89000000D02*
X131000000Y-89000000D01*
X124000000Y-74500000D02*
X124000000Y-82400000D01*
X124000000Y-82400000D02*
X130600000Y-89000000D01*
%TO.N,Net-(A1-A2)*%
X81000000Y-90500000D02*
X81000000Y-90540000D01*
X81000000Y-79500000D02*
X81000000Y-81500000D01*
X83500000Y-101400000D02*
X83500000Y-102780000D01*
X153120000Y-56920000D02*
X159480000Y-56920000D01*
X160500000Y-98000000D02*
X161775635Y-98000000D01*
X81000000Y-90500000D02*
X81000000Y-95500000D01*
X131500000Y-106000000D02*
X139000000Y-106000000D01*
X139000000Y-106000000D02*
X141500000Y-108500000D01*
X166000000Y-79000000D02*
X166500000Y-78500000D01*
X87220000Y-106500000D02*
X108000000Y-106500000D01*
X159480000Y-56920000D02*
X159500000Y-56900000D01*
X165000000Y-69500000D02*
X165000000Y-77000000D01*
X78500000Y-76000000D02*
X78500000Y-77000000D01*
X161775635Y-98000000D02*
X164060000Y-95715635D01*
X83500000Y-102780000D02*
X87220000Y-106500000D01*
X78500000Y-77000000D02*
X81000000Y-79500000D01*
X81000000Y-90540000D02*
X78500000Y-93040000D01*
X165000000Y-77000000D02*
X166500000Y-78500000D01*
X164060000Y-95715635D02*
X164060000Y-88560000D01*
X164060000Y-88560000D02*
X164000000Y-88500000D01*
X166000000Y-86500000D02*
X166000000Y-79000000D01*
%TO.N,Net-(A1-A0)*%
X134500000Y-108000000D02*
X140140000Y-108000000D01*
X65340000Y-101000000D02*
X65340000Y-102580000D01*
X140140000Y-108000000D02*
X142640000Y-110500000D01*
X65340000Y-102580000D02*
X60420000Y-107500000D01*
X134000000Y-107500000D02*
X134500000Y-108000000D01*
%TO.N,+4.8V*%
X73000000Y-48284365D02*
X73000000Y-53920000D01*
X78500000Y-87960000D02*
X75500000Y-90960000D01*
X129500000Y-42500000D02*
X129500000Y-46500000D01*
X107249500Y-93519500D02*
X107249500Y-78279500D01*
X107249500Y-78279500D02*
X107249500Y-71719500D01*
X86850000Y-45300000D02*
X98800000Y-45300000D01*
X81500000Y-71420000D02*
X78380000Y-74540000D01*
X75500000Y-101000000D02*
X77700000Y-103200000D01*
X153120000Y-46760000D02*
X148860000Y-42500000D01*
X153860000Y-47500000D02*
X153120000Y-46760000D01*
X157620000Y-57500000D02*
X153120000Y-62000000D01*
X122749500Y-73000000D02*
X122749500Y-78279500D01*
X122749500Y-80749500D02*
X122749500Y-78279500D01*
X167686487Y-82447747D02*
X168786487Y-83547747D01*
X113500000Y-68922654D02*
X111000000Y-71422654D01*
X87240000Y-86195635D02*
X86575635Y-86860000D01*
X87240000Y-83400000D02*
X87240000Y-86195635D01*
X75500000Y-90960000D02*
X75500000Y-101000000D01*
X166500000Y-91000000D02*
X166500000Y-88500000D01*
X123000000Y-81000000D02*
X122749500Y-80749500D01*
X113500000Y-56023654D02*
X113500000Y-68922654D01*
X111000000Y-71422654D02*
X111000000Y-73000000D01*
X78380000Y-74540000D02*
X87240000Y-83400000D01*
X168786487Y-68307747D02*
X169886487Y-69407747D01*
X86850000Y-45300000D02*
X75984365Y-45300000D01*
X110135346Y-73000000D02*
X108530000Y-73000000D01*
X77700000Y-103200000D02*
X78500000Y-103200000D01*
X78500000Y-87960000D02*
X78500000Y-88000000D01*
X79600000Y-86860000D02*
X78500000Y-87960000D01*
X107249500Y-56479500D02*
X108399500Y-55329500D01*
X75984365Y-45300000D02*
X73000000Y-48284365D01*
X167686487Y-75313513D02*
X167686487Y-82447747D01*
X122749500Y-71719500D02*
X122749500Y-73000000D01*
X156000000Y-47500000D02*
X153860000Y-47500000D01*
X86575635Y-86860000D02*
X79600000Y-86860000D01*
X169886487Y-69407747D02*
X169886487Y-73843382D01*
X168172253Y-74827747D02*
X167686487Y-75313513D01*
X111000000Y-73000000D02*
X122749500Y-73000000D01*
X148860000Y-42500000D02*
X129500000Y-42500000D01*
X81500000Y-62420000D02*
X81500000Y-71420000D01*
X162500000Y-57500000D02*
X157620000Y-57500000D01*
X108399500Y-55329500D02*
X112805846Y-55329500D01*
X73000000Y-53920000D02*
X78380000Y-59300000D01*
X108530000Y-73000000D02*
X107249500Y-71719500D01*
X169886487Y-73843382D02*
X168902122Y-74827747D01*
X98800000Y-45300000D02*
X102500000Y-49000000D01*
X168902122Y-74827747D02*
X168172253Y-74827747D01*
X112805846Y-55329500D02*
X113500000Y-56023654D01*
X110135346Y-73000000D02*
X111000000Y-73000000D01*
X78380000Y-59300000D02*
X81500000Y-62420000D01*
%TO.N,Net-(A1-MOSI)*%
X137560000Y-96440000D02*
X137560000Y-95260000D01*
X96317996Y-53469467D02*
X95700000Y-54087463D01*
X137500000Y-97500000D02*
X137500000Y-96500000D01*
X95700000Y-54087463D02*
X95700000Y-94851473D01*
X137500000Y-96500000D02*
X137560000Y-96440000D01*
%TO.N,Net-(A1-MISO)*%
X122500000Y-82000000D02*
X121500000Y-81000000D01*
X81000000Y-46000000D02*
X81000000Y-54000000D01*
X121500000Y-81000000D02*
X121500000Y-74500000D01*
X81000000Y-54000000D02*
X82500000Y-55500000D01*
%TO.N,+3.3V*%
X73270000Y-41890000D02*
X73270000Y-45770000D01*
X71880000Y-40500000D02*
X73270000Y-41890000D01*
X85660000Y-44190000D02*
X75305000Y-44190000D01*
X93150000Y-43000000D02*
X86850000Y-43000000D01*
X100000000Y-42500000D02*
X108500000Y-51000000D01*
X73270000Y-45770000D02*
X73497500Y-45997500D01*
X108500000Y-51000000D02*
X112000000Y-51000000D01*
X100000000Y-42500000D02*
X93650000Y-42500000D01*
X75305000Y-44190000D02*
X73497500Y-45997500D01*
X73497500Y-45997500D02*
X70995000Y-48500000D01*
X86850000Y-43000000D02*
X85660000Y-44190000D01*
X93650000Y-42500000D02*
X93150000Y-43000000D01*
%TO.N,+5V*%
X94000000Y-79500000D02*
X91100000Y-76600000D01*
X98500000Y-98500000D02*
X94000000Y-94000000D01*
X124500000Y-108540000D02*
X123600000Y-107640000D01*
X118140000Y-107640000D02*
X118000000Y-107500000D01*
X84600000Y-76600000D02*
X84500000Y-76500000D01*
X113480000Y-105620000D02*
X113480000Y-101084365D01*
X57900000Y-111400000D02*
X110847768Y-111400000D01*
X46340000Y-66000000D02*
X47440000Y-67100000D01*
X46340000Y-60400000D02*
X46340000Y-66000000D01*
X110847768Y-111400000D02*
X113480000Y-108767768D01*
X123600000Y-107640000D02*
X118140000Y-107640000D01*
X84500000Y-58660000D02*
X74340000Y-48500000D01*
X110795635Y-98400000D02*
X98600000Y-98400000D01*
X84500000Y-76500000D02*
X84500000Y-58660000D01*
X47440000Y-100940000D02*
X57900000Y-111400000D01*
X118140000Y-107640000D02*
X116520000Y-106020000D01*
X113480000Y-107500000D02*
X113480000Y-105620000D01*
X47440000Y-67100000D02*
X47440000Y-100940000D01*
X116520000Y-106020000D02*
X116520000Y-105620000D01*
X91100000Y-76600000D02*
X84600000Y-76600000D01*
X118000000Y-107500000D02*
X113480000Y-107500000D01*
X98600000Y-98400000D02*
X98500000Y-98500000D01*
X113480000Y-101084365D02*
X110795635Y-98400000D01*
X94000000Y-94000000D02*
X94000000Y-79500000D01*
X113480000Y-108767768D02*
X113480000Y-107500000D01*
%TO.N,Net-(D1-K)*%
X120500000Y-100000000D02*
X124500000Y-104000000D01*
X120500000Y-99500000D02*
X120500000Y-100000000D01*
X124500000Y-104000000D02*
X124500000Y-106000000D01*
%TO.N,Net-(D2-K)*%
X127500000Y-48120000D02*
X121880000Y-42500000D01*
X116880000Y-47500000D02*
X121880000Y-42500000D01*
X127500000Y-50000000D02*
X127500000Y-48120000D01*
X109850000Y-47500000D02*
X116880000Y-47500000D01*
%TO.N,Net-(D2-A)*%
X85500000Y-47500000D02*
X84500000Y-48500000D01*
X97150000Y-47500000D02*
X85500000Y-47500000D01*
%TO.N,Net-(D3-A)*%
X46340000Y-72000000D02*
X46340000Y-69660000D01*
X46340000Y-69660000D02*
X46500000Y-69500000D01*
%TO.N,Net-(D3-K)*%
X62150000Y-52150000D02*
X63500000Y-53500000D01*
X59500000Y-52150000D02*
X62150000Y-52150000D01*
%TO.N,Net-(D4-A)*%
X56500000Y-66000000D02*
X57600000Y-64900000D01*
X57600000Y-64900000D02*
X57600000Y-47950000D01*
X57600000Y-47950000D02*
X50650000Y-41000000D01*
%TO.N,Net-(D4-K)*%
X62850000Y-47500000D02*
X63500000Y-47500000D01*
X63350000Y-41000000D02*
X63350000Y-47350000D01*
X63350000Y-47350000D02*
X63500000Y-47500000D01*
%TO.N,Net-(D5-K)*%
X68000000Y-48955000D02*
X68455000Y-48500000D01*
X68000000Y-52420000D02*
X68000000Y-48955000D01*
%TO.N,Net-(P1-SHIELD)*%
X110680000Y-105700000D02*
X106700000Y-105700000D01*
X106700000Y-105700000D02*
X105000000Y-104000000D01*
X110680000Y-109500000D02*
X112500000Y-107680000D01*
X112500000Y-107680000D02*
X112500000Y-107500000D01*
%TO.N,Net-(U3-QA)*%
X141000000Y-51500000D02*
X144500000Y-48000000D01*
X151820000Y-48000000D02*
X153120000Y-49300000D01*
X144500000Y-48000000D02*
X151820000Y-48000000D01*
%TO.N,Net-(U7-A)*%
X130840000Y-51500000D02*
X125860500Y-56479500D01*
X125860500Y-56479500D02*
X125289500Y-56479500D01*
%TO.N,Net-(U7-B)*%
X128860500Y-56479500D02*
X127829500Y-56479500D01*
X130840000Y-54500000D02*
X128860500Y-56479500D01*
%TO.N,Net-(U3-QB)*%
X144184365Y-46760000D02*
X139900000Y-51044365D01*
X145500000Y-46760000D02*
X144184365Y-46760000D01*
X139900000Y-51044365D02*
X139900000Y-53400000D01*
X139900000Y-53400000D02*
X141000000Y-54500000D01*
%TO.N,Net-(U7-C)*%
X125289500Y-71719500D02*
X126139500Y-70869500D01*
X126139500Y-70869500D02*
X126139500Y-64239500D01*
X126139500Y-64239500D02*
X126068765Y-64168765D01*
%TO.N,Net-(U3-QC)*%
X142100000Y-52700000D02*
X142100000Y-56400000D01*
X142100000Y-56400000D02*
X141000000Y-57500000D01*
X145500000Y-49300000D02*
X142100000Y-52700000D01*
%TO.N,Net-(U3-QD)*%
X145500000Y-51840000D02*
X142500000Y-54840000D01*
X142500000Y-59000000D02*
X141000000Y-60500000D01*
X142500000Y-54840000D02*
X142500000Y-59000000D01*
%TO.N,Net-(U7-D)*%
X125429000Y-66500000D02*
X125500000Y-66500000D01*
X120209500Y-71719500D02*
X125429000Y-66500000D01*
%TO.N,Net-(U7-E)*%
X130840000Y-63500000D02*
X125889000Y-63500000D01*
X125889000Y-63500000D02*
X117669500Y-71719500D01*
%TO.N,Net-(U3-QE)*%
X142900000Y-56980000D02*
X142900000Y-61600000D01*
X142900000Y-61600000D02*
X141000000Y-63500000D01*
X145500000Y-54380000D02*
X142900000Y-56980000D01*
%TO.N,Net-(U7-F)*%
X130840000Y-66500000D02*
X131940000Y-65400000D01*
X130600000Y-61600000D02*
X125330000Y-61600000D01*
X131940000Y-62940000D02*
X130600000Y-61600000D01*
X131940000Y-65400000D02*
X131940000Y-62940000D01*
X125330000Y-61600000D02*
X120209500Y-56479500D01*
%TO.N,Net-(U3-QF)*%
X143300000Y-59120000D02*
X143300000Y-64200000D01*
X145500000Y-56920000D02*
X143300000Y-59120000D01*
X143300000Y-64200000D02*
X141000000Y-66500000D01*
%TO.N,Net-(U3-QG)*%
X143700000Y-61260000D02*
X143700000Y-66800000D01*
X145500000Y-59460000D02*
X143700000Y-61260000D01*
X143700000Y-66800000D02*
X141000000Y-69500000D01*
%TO.N,Net-(U7-G)*%
X130840000Y-69500000D02*
X127500000Y-69500000D01*
%TO.N,Net-(U7-RDP)*%
X130059500Y-71719500D02*
X130840000Y-72500000D01*
X127829500Y-71719500D02*
X130059500Y-71719500D01*
%TO.N,Net-(U3-QH)*%
X145500000Y-62000000D02*
X144100000Y-63400000D01*
X144100000Y-69400000D02*
X141000000Y-72500000D01*
X144100000Y-63400000D02*
X144100000Y-69400000D01*
%TO.N,Net-(U4-QA)*%
X78380000Y-72000000D02*
X79380000Y-71000000D01*
X79380000Y-71000000D02*
X80500000Y-71000000D01*
%TO.N,Net-(U8-A)*%
X96700000Y-60300000D02*
X98000000Y-59000000D01*
X99000000Y-72500000D02*
X96700000Y-70200000D01*
X96700000Y-70200000D02*
X96700000Y-60300000D01*
X107269000Y-59000000D02*
X109789500Y-56479500D01*
X98000000Y-59000000D02*
X107269000Y-59000000D01*
%TO.N,Net-(U4-QB)*%
X88840000Y-70944365D02*
X88840000Y-69500000D01*
X86000000Y-74540000D02*
X86000000Y-73784365D01*
X86000000Y-73784365D02*
X88840000Y-70944365D01*
%TO.N,Net-(U8-B)*%
X97100000Y-60844365D02*
X98544365Y-59400000D01*
X99455635Y-59400000D02*
X99555635Y-59500000D01*
X99000000Y-69500000D02*
X98500000Y-69500000D01*
X109309000Y-59500000D02*
X112329500Y-56479500D01*
X98544365Y-59400000D02*
X99455635Y-59400000D01*
X98500000Y-69500000D02*
X97100000Y-68100000D01*
X99555635Y-59500000D02*
X109309000Y-59500000D01*
X97100000Y-68100000D02*
X97100000Y-60844365D01*
%TO.N,Net-(U4-QC)*%
X88840000Y-67660000D02*
X88840000Y-66500000D01*
X87740000Y-70260000D02*
X87740000Y-68760000D01*
X87740000Y-68760000D02*
X88840000Y-67660000D01*
X86000000Y-72000000D02*
X87740000Y-70260000D01*
%TO.N,Net-(U8-C)*%
X104570000Y-66500000D02*
X109789500Y-71719500D01*
X99000000Y-66500000D02*
X104570000Y-66500000D01*
%TO.N,Net-(U8-D)*%
X97900000Y-67334314D02*
X98565686Y-68000000D01*
X99000000Y-63500000D02*
X97900000Y-64600000D01*
X97900000Y-64600000D02*
X97900000Y-67334314D01*
X100990000Y-68000000D02*
X104709500Y-71719500D01*
X98565686Y-68000000D02*
X100990000Y-68000000D01*
%TO.N,Net-(U4-QD)*%
X88840000Y-64660000D02*
X88840000Y-63500000D01*
X87460000Y-68000000D02*
X87500000Y-68000000D01*
X86000000Y-69460000D02*
X87460000Y-68000000D01*
X87500000Y-66000000D02*
X88840000Y-64660000D01*
X87500000Y-68000000D02*
X87500000Y-66000000D01*
%TO.N,Net-(U4-QE)*%
X87500000Y-65420000D02*
X87500000Y-61840000D01*
X87500000Y-61840000D02*
X88840000Y-60500000D01*
X86000000Y-66920000D02*
X87500000Y-65420000D01*
%TO.N,Net-(U8-E)*%
X99455635Y-68400000D02*
X98400000Y-68400000D01*
X97500000Y-62000000D02*
X99000000Y-60500000D01*
X97500000Y-67500000D02*
X97500000Y-62000000D01*
X102169500Y-71719500D02*
X102169500Y-71113865D01*
X98400000Y-68400000D02*
X97500000Y-67500000D01*
X102169500Y-71113865D02*
X99455635Y-68400000D01*
%TO.N,Net-(U4-QF)*%
X87100000Y-63280000D02*
X87100000Y-61400000D01*
X86000000Y-64380000D02*
X87100000Y-63280000D01*
X87100000Y-61400000D02*
X87740000Y-60760000D01*
X87740000Y-58600000D02*
X88840000Y-57500000D01*
X87740000Y-60760000D02*
X87740000Y-58600000D01*
%TO.N,Net-(U8-F)*%
X99799999Y-58299999D02*
X102889001Y-58299999D01*
X99000000Y-57500000D02*
X99799999Y-58299999D01*
X102889001Y-58299999D02*
X104709500Y-56479500D01*
%TO.N,Net-(U4-QG)*%
X86000000Y-61840000D02*
X87100000Y-60740000D01*
X87100000Y-60740000D02*
X87100000Y-56240000D01*
X87100000Y-56240000D02*
X88840000Y-54500000D01*
%TO.N,Net-(U8-G)*%
X100190000Y-54500000D02*
X102169500Y-56479500D01*
X99000000Y-54500000D02*
X100190000Y-54500000D01*
%TO.N,Net-(U8-RDP)*%
X114500000Y-69549000D02*
X112329500Y-71719500D01*
X108868628Y-52500000D02*
X111250000Y-52500000D01*
X107868628Y-51500000D02*
X108868628Y-52500000D01*
X99000000Y-51500000D02*
X107868628Y-51500000D01*
X111250000Y-52500000D02*
X114500000Y-55750000D01*
X114500000Y-55750000D02*
X114500000Y-69549000D01*
%TO.N,Net-(U4-QH)*%
X83400000Y-51600000D02*
X84500000Y-50500000D01*
X87840000Y-50500000D02*
X88840000Y-51500000D01*
X86000000Y-59300000D02*
X83400000Y-56700000D01*
X83400000Y-56700000D02*
X83400000Y-51600000D01*
X84500000Y-50500000D02*
X87840000Y-50500000D01*
%TO.N,Net-(U5-QA)*%
X80160000Y-99000000D02*
X78500000Y-100660000D01*
X81600000Y-98500000D02*
X81100000Y-99000000D01*
X81100000Y-99000000D02*
X80160000Y-99000000D01*
%TO.N,Net-(U9-A)*%
X114000000Y-78323654D02*
X112676346Y-77000000D01*
X110541032Y-97500000D02*
X114000000Y-94041032D01*
X114000000Y-94041032D02*
X114000000Y-78323654D01*
X112676346Y-77000000D02*
X111069000Y-77000000D01*
X100000000Y-97500000D02*
X110541032Y-97500000D01*
X111069000Y-77000000D02*
X109789500Y-78279500D01*
X99000000Y-96500000D02*
X100000000Y-97500000D01*
%TO.N,Net-(U9-B)*%
X99000000Y-94500000D02*
X101500000Y-97000000D01*
X99000000Y-93500000D02*
X99000000Y-94500000D01*
X110475346Y-97000000D02*
X113500000Y-93975346D01*
X113500000Y-93975346D02*
X113500000Y-79450000D01*
X101500000Y-97000000D02*
X110475346Y-97000000D01*
X113500000Y-79450000D02*
X112329500Y-78279500D01*
%TO.N,Net-(U5-QB)*%
X91000000Y-98320000D02*
X91000000Y-95660000D01*
X86120000Y-103200000D02*
X91000000Y-98320000D01*
X91000000Y-95660000D02*
X88840000Y-93500000D01*
%TO.N,Net-(U9-C)*%
X106809000Y-96500000D02*
X109789500Y-93519500D01*
X101565686Y-96500000D02*
X106809000Y-96500000D01*
X100100000Y-91600000D02*
X100100000Y-95034314D01*
X100100000Y-95034314D02*
X101565686Y-96500000D01*
X99000000Y-90500000D02*
X100100000Y-91600000D01*
%TO.N,Net-(U5-QC)*%
X90000000Y-95600000D02*
X89000000Y-94600000D01*
X86120000Y-100660000D02*
X87251370Y-100660000D01*
X87740000Y-91600000D02*
X88840000Y-90500000D01*
X87740000Y-93955635D02*
X87740000Y-91600000D01*
X90000000Y-97911370D02*
X90000000Y-95600000D01*
X87251370Y-100660000D02*
X90000000Y-97911370D01*
X89000000Y-94600000D02*
X88384365Y-94600000D01*
X88384365Y-94600000D02*
X87740000Y-93955635D01*
%TO.N,Net-(U5-QD)*%
X87220000Y-89120000D02*
X88840000Y-87500000D01*
X87220000Y-97020000D02*
X87220000Y-89120000D01*
X86120000Y-98120000D02*
X87220000Y-97020000D01*
%TO.N,Net-(U9-D)*%
X99000000Y-87500000D02*
X100500000Y-89000000D01*
X101500000Y-95000000D02*
X103229000Y-95000000D01*
X100500000Y-94000000D02*
X101500000Y-95000000D01*
X100500000Y-89000000D02*
X100500000Y-94000000D01*
X103229000Y-95000000D02*
X104709500Y-93519500D01*
%TO.N,Net-(U9-E)*%
X102169500Y-87669500D02*
X102169500Y-93519500D01*
X99000000Y-84500000D02*
X102169500Y-87669500D01*
%TO.N,Net-(U5-QE)*%
X93400000Y-86900000D02*
X91000000Y-84500000D01*
X93400000Y-92500000D02*
X93400000Y-86900000D01*
%TO.N,Net-(U5-QF)*%
X82000000Y-88920000D02*
X82000000Y-87500000D01*
X86120000Y-93040000D02*
X82000000Y-88920000D01*
%TO.N,Net-(U9-F)*%
X99000000Y-81500000D02*
X101489000Y-81500000D01*
X101489000Y-81500000D02*
X104709500Y-78279500D01*
%TO.N,Net-(U9-G)*%
X101949000Y-78500000D02*
X102169500Y-78279500D01*
X99000000Y-78500000D02*
X101949000Y-78500000D01*
%TO.N,Net-(U5-QG)*%
X89940000Y-79600000D02*
X88840000Y-78500000D01*
X89940000Y-84955635D02*
X89940000Y-79600000D01*
X86120000Y-89515635D02*
X87640000Y-87995635D01*
X89295635Y-85600000D02*
X89940000Y-84955635D01*
X87640000Y-86960000D02*
X89000000Y-85600000D01*
X87640000Y-87995635D02*
X87640000Y-86960000D01*
X86120000Y-90500000D02*
X86120000Y-89515635D01*
X89000000Y-85600000D02*
X89295635Y-85600000D01*
%TO.N,Net-(U5-QH)*%
X93000000Y-77500000D02*
X91000000Y-75500000D01*
X85500000Y-79500000D02*
X87600000Y-77400000D01*
X90900000Y-77400000D02*
X91000000Y-77500000D01*
X84500000Y-84651471D02*
X82948529Y-83100000D01*
X91000000Y-75500000D02*
X88840000Y-75500000D01*
X85500000Y-80600000D02*
X85500000Y-79500000D01*
X82948529Y-83100000D02*
X82500000Y-83100000D01*
X84500000Y-86000000D02*
X84500000Y-84651471D01*
X87600000Y-77400000D02*
X90900000Y-77400000D01*
%TO.N,Net-(U9-RDP)*%
X103556346Y-75500000D02*
X106000000Y-77943654D01*
X99000000Y-75500000D02*
X103556346Y-75500000D01*
X106000000Y-77943654D02*
X106000000Y-92200000D01*
%TO.N,Net-(U6-QA)*%
X165146487Y-67207747D02*
X168786487Y-70847747D01*
X141000000Y-75500000D02*
X150661522Y-75500000D01*
X150661522Y-75500000D02*
X158953775Y-67207747D01*
X158953775Y-67207747D02*
X165146487Y-67207747D01*
%TO.N,Net-(U10-A)*%
X128069000Y-75500000D02*
X125289500Y-78279500D01*
X130840000Y-75500000D02*
X128069000Y-75500000D01*
%TO.N,Net-(U6-QB)*%
X141000000Y-78500000D02*
X143600000Y-75900000D01*
X143600000Y-75900000D02*
X153938478Y-75900000D01*
X161166487Y-68671991D02*
X161166487Y-68307747D01*
X153938478Y-75900000D02*
X161166487Y-68671991D01*
%TO.N,Net-(U10-B)*%
X130840000Y-78500000D02*
X128050000Y-78500000D01*
X128050000Y-78500000D02*
X127829500Y-78279500D01*
%TO.N,Net-(U10-C)*%
X131940000Y-91060000D02*
X128330500Y-94669500D01*
X130840000Y-81500000D02*
X131940000Y-82600000D01*
X131940000Y-82600000D02*
X131940000Y-91060000D01*
X128330500Y-94669500D02*
X126439500Y-94669500D01*
X126439500Y-94669500D02*
X125289500Y-93519500D01*
%TO.N,Net-(U6-QC)*%
X145068630Y-76300000D02*
X154700000Y-76300000D01*
X154700000Y-76300000D02*
X160152253Y-70847747D01*
X160152253Y-70847747D02*
X161166487Y-70847747D01*
X141000000Y-81500000D02*
X141000000Y-80368630D01*
X141000000Y-80368630D02*
X145068630Y-76300000D01*
%TO.N,Net-(U10-D)*%
X121729000Y-92000000D02*
X124500000Y-92000000D01*
X120209500Y-93519500D02*
X121729000Y-92000000D01*
%TO.N,Net-(U6-QD)*%
X160112253Y-73387747D02*
X161166487Y-73387747D01*
X149000000Y-84500000D02*
X160112253Y-73387747D01*
X141000000Y-84500000D02*
X149000000Y-84500000D01*
%TO.N,Net-(U6-QE)*%
X141000000Y-87500000D02*
X146565686Y-87500000D01*
X158137939Y-75927747D02*
X161166487Y-75927747D01*
X146565686Y-87500000D02*
X158137939Y-75927747D01*
%TO.N,Net-(U10-E)*%
X117669500Y-93519500D02*
X120689000Y-90500000D01*
X120689000Y-90500000D02*
X128000000Y-90500000D01*
%TO.N,Net-(U10-F)*%
X130840000Y-90500000D02*
X129500000Y-90500000D01*
X120209500Y-81209500D02*
X120209500Y-78279500D01*
X129500000Y-90500000D02*
X120209500Y-81209500D01*
%TO.N,Net-(U6-QF)*%
X156693775Y-78467747D02*
X161166487Y-78467747D01*
X143600000Y-87900000D02*
X147261522Y-87900000D01*
X141000000Y-90500000D02*
X143600000Y-87900000D01*
X147261522Y-87900000D02*
X156693775Y-78467747D01*
%TO.N,Net-(U10-G)*%
X116500000Y-94650000D02*
X116500000Y-79449000D01*
X129565686Y-96000000D02*
X117850000Y-96000000D01*
X117850000Y-96000000D02*
X116500000Y-94650000D01*
X148000000Y-90160000D02*
X144000000Y-94160000D01*
X116500000Y-79449000D02*
X117669500Y-78279500D01*
X144000000Y-94160000D02*
X131405686Y-94160000D01*
X131405686Y-94160000D02*
X129565686Y-96000000D01*
%TO.N,Net-(U10-RDP)*%
X141000000Y-93500000D02*
X130500000Y-93500000D01*
X144000000Y-90160000D02*
X144000000Y-90500000D01*
X144000000Y-90500000D02*
X141000000Y-93500000D01*
%TO.N,Net-(U6-QH)*%
X154547747Y-83547747D02*
X154000000Y-83000000D01*
X161166487Y-83547747D02*
X154547747Y-83547747D01*
%TO.N,Net-(U3-QH')*%
X117000000Y-62000000D02*
X129894265Y-62000000D01*
X129894265Y-62000000D02*
X130094265Y-62200000D01*
%TO.N,Net-(U5-QH')*%
X149900000Y-73600000D02*
X151000000Y-72500000D01*
X78500000Y-85420000D02*
X81580000Y-85420000D01*
X81580000Y-85420000D02*
X83000000Y-84000000D01*
X128500000Y-81000000D02*
X129100000Y-80400000D01*
X134544365Y-80400000D02*
X141344365Y-73600000D01*
X141344365Y-73600000D02*
X149900000Y-73600000D01*
X129100000Y-80400000D02*
X134544365Y-80400000D01*
%TD*%
M02*
