M48
; DRILL file {KiCad 8.0.3} date 2024-07-14T00:03:33-0500
; FORMAT={-:-/ absolute / inch / decimal}
; #@! TF.CreationDate,2024-07-14T00:03:33-05:00
; #@! TF.GenerationSoftware,Kicad,Pcbnew,8.0.3
; #@! TF.FileFunction,Plated,1,2,PTH
FMAT,2
INCH
; #@! TA.AperFunction,Plated,PTH,ViaDrill
T1C0.0118
; #@! TA.AperFunction,Plated,PTH,ComponentDrill
T2C0.0236
; #@! TA.AperFunction,Plated,PTH,ComponentDrill
T3C0.0315
; #@! TA.AperFunction,Plated,PTH,ComponentDrill
T4C0.0354
; #@! TA.AperFunction,Plated,PTH,ComponentDrill
T5C0.0394
; #@! TA.AperFunction,Plated,PTH,ComponentDrill
T6C0.0433
%
G90
G05
T1
X1.8307Y-2.7362
X2.9528Y-2.9134
X2.9528Y-3.189
X3.0906Y-2.9921
X3.1693Y-2.7953
X3.189Y-1.811
X3.189Y-3.2087
X3.189Y-3.563
X3.189Y-3.7598
X3.2126Y-3.878
X3.2283Y-3.4449
X3.248Y-2.185
X3.248Y-3.2717
X3.2677Y-3.3071
X3.2874Y-3.9921
X3.3071Y-3.8386
X3.3268Y-3.3858
X3.3661Y-3.1732
X3.5827Y-3.0512
X3.5827Y-3.3268
X3.6614Y-3.0512
X3.6772Y-3.6417
X3.7677Y-3.7343
X3.792Y-2.1051
X3.7992Y-2.1457
X4.0354Y-1.9291
X4.1732Y-3.6299
X4.252Y-4.1929
X4.4193Y-4.0748
X4.4291Y-4.2323
X4.4428Y-2.1745
X4.5472Y-2.2992
X4.5472Y-2.7953
X4.5472Y-4.0748
X4.6063Y-2.4409
X4.7835Y-2.9331
X4.8228Y-3.2283
X4.8425Y-3.189
X4.8819Y-2.9331
X4.9016Y-3.622
X4.9409Y-2.6181
X4.9633Y-2.5263
X5.0197Y-2.7362
X5.0394Y-3.563
X5.0591Y-3.189
X5.0984Y-1.8307
X5.1218Y-2.4488
X5.1378Y-3.6811
X5.1575Y-3.5039
X5.1772Y-4.1732
X5.2756Y-4.2323
X5.3658Y-3.7617
X5.374Y-3.1299
X5.374Y-3.6575
X5.4134Y-3.8386
X5.5512Y-3.9567
X5.5709Y-4.2717
X5.8465Y-3.2913
X5.8661Y-3.9567
X5.9055Y-3.0906
X5.9254Y-3.3663
X5.9449Y-2.8543
X5.9449Y-3.6614
X5.9449Y-3.878
X6.0238Y-3.425
X6.063Y-3.2677
X6.122Y-2.874
X6.122Y-3.3661
X6.1616Y-2.7758
X6.2205Y-3.1299
X6.2795Y-2.2402
X6.3189Y-3.8583
X6.3583Y-3.5236
X6.3906Y-3.4681
X6.4567Y-2.5787
X6.4567Y-3.4843
X6.4961Y-2.7362
X6.4961Y-4.0748
X6.5354Y-3.4055
X6.5551Y-2.815
X6.5551Y-3.0906
X6.5551Y-3.4843
X6.5551Y-3.5827
X6.5748Y-3.189
X6.6142Y-3.9173
T3
X1.8244Y-2.378
X1.8244Y-2.5984
X1.8244Y-2.8346
X2.2244Y-2.378
X2.2244Y-2.5984
X2.2244Y-2.8346
X2.3787Y-4.2323
X2.5724Y-3.9764
X2.6772Y-2.0638
X2.6772Y-2.4638
X2.7787Y-4.2323
X2.9268Y-1.9094
X2.9268Y-2.0689
X2.9724Y-3.9764
X3.0858Y-2.2346
X3.0858Y-2.3346
X3.0858Y-2.4346
X3.0858Y-2.5346
X3.0858Y-2.6346
X3.0858Y-2.7346
X3.0858Y-2.8346
X3.0858Y-2.9346
X3.0906Y-3.363
X3.0906Y-3.463
X3.0906Y-3.563
X3.0906Y-3.663
X3.0906Y-3.763
X3.0906Y-3.863
X3.0906Y-3.963
X3.0906Y-4.063
X3.3268Y-1.9094
X3.3268Y-2.0689
X3.3858Y-2.2346
X3.3858Y-2.3346
X3.3858Y-2.4346
X3.3858Y-2.5346
X3.3858Y-2.6346
X3.3858Y-2.7346
X3.3858Y-2.8346
X3.3858Y-2.9346
X3.3906Y-3.363
X3.3906Y-3.463
X3.3906Y-3.563
X3.3906Y-3.663
X3.3906Y-3.763
X3.3906Y-3.863
X3.3906Y-3.963
X3.3906Y-4.063
X3.4976Y-2.0276
X3.4976Y-2.1457
X3.4976Y-2.2638
X3.4976Y-2.3819
X3.4976Y-2.5
X3.4976Y-2.6181
X3.4976Y-2.7362
X3.4976Y-2.8543
X3.4976Y-2.9724
X3.4976Y-3.0906
X3.4976Y-3.2087
X3.4976Y-3.3268
X3.4976Y-3.4449
X3.4976Y-3.563
X3.4976Y-3.6811
X3.4976Y-3.7992
X3.8976Y-2.0276
X3.8976Y-2.1457
X3.8976Y-2.2638
X3.8976Y-2.3819
X3.8976Y-2.5
X3.8976Y-2.6181
X3.8976Y-2.7362
X3.8976Y-2.8543
X3.8976Y-2.9724
X3.8976Y-3.0906
X3.8976Y-3.2087
X3.8976Y-3.3268
X3.8976Y-3.4449
X3.8976Y-3.563
X3.8976Y-3.6811
X3.8976Y-3.7992
X3.937Y-1.6732
X3.937Y-4.0945
X4.1339Y-1.6732
X4.1339Y-4.0945
X4.3441Y-3.9173
X4.4094Y-2.0079
X4.4882Y-2.0079
X4.7441Y-3.9173
X4.7984Y-1.6732
X5.0984Y-1.6732
X5.1512Y-2.0276
X5.1512Y-2.1457
X5.1512Y-2.2638
X5.1512Y-2.3819
X5.1512Y-2.5
X5.1512Y-2.6181
X5.1512Y-2.7362
X5.1512Y-2.8543
X5.1512Y-2.9724
X5.1512Y-3.0906
X5.1512Y-3.2087
X5.1512Y-3.3268
X5.1512Y-3.4449
X5.1512Y-3.563
X5.5512Y-2.0276
X5.5512Y-2.1457
X5.5512Y-2.2638
X5.5512Y-2.3819
X5.5512Y-2.5
X5.5512Y-2.6181
X5.5512Y-2.7362
X5.5512Y-2.8543
X5.5512Y-2.9724
X5.5512Y-3.0906
X5.5512Y-3.2087
X5.5512Y-3.3268
X5.5512Y-3.4449
X5.5512Y-3.563
X5.6693Y-3.1496
X5.6693Y-3.5496
X5.7283Y-1.8409
X5.7283Y-1.9409
X5.7283Y-2.0409
X5.7283Y-2.1409
X5.7283Y-2.2409
X5.7283Y-2.3409
X5.7283Y-2.4409
X5.7283Y-2.5409
X5.8268Y-3.1496
X5.8268Y-3.5496
X6.0283Y-1.8409
X6.0283Y-1.9409
X6.0283Y-2.0409
X6.0283Y-2.1409
X6.0283Y-2.2409
X6.0283Y-2.3409
X6.0283Y-2.4409
X6.0283Y-2.5409
X6.1417Y-1.8701
X6.3386Y-1.8701
X6.3451Y-2.6893
X6.3451Y-2.7893
X6.3451Y-2.8893
X6.3451Y-2.9893
X6.3451Y-3.0893
X6.3451Y-3.1893
X6.3451Y-3.2893
X6.3451Y-3.3893
X6.3976Y-2.2638
X6.4764Y-2.2638
X6.6451Y-2.6893
X6.6451Y-2.7893
X6.6451Y-2.8893
X6.6451Y-2.9893
X6.6451Y-3.0893
X6.6451Y-3.1893
X6.6451Y-3.2893
X6.6451Y-3.3893
T4
X1.9941Y-1.6142
X2.3425Y-2.0531
X2.3425Y-2.5531
X2.4941Y-1.6142
X2.6951Y-1.9094
X2.7951Y-1.9094
X3.8248Y-1.8701
X4.3248Y-1.8701
X4.9016Y-4.1732
X4.9016Y-4.2732
T5
X2.8299Y-1.5945
X2.8299Y-1.6945
X2.9299Y-1.5945
X2.9299Y-1.6945
X3.0299Y-1.5945
X3.0299Y-1.6945
X3.1299Y-1.5945
X3.1299Y-1.6945
X4.0224Y-2.2236
X4.0224Y-2.8236
X4.0224Y-3.0819
X4.0224Y-3.6819
X4.1224Y-2.2236
X4.1224Y-2.8236
X4.1224Y-3.0819
X4.1224Y-3.6819
X4.2224Y-2.2236
X4.2224Y-2.8236
X4.2224Y-3.0819
X4.2224Y-3.6819
X4.3224Y-2.2236
X4.3224Y-2.8236
X4.3224Y-3.0819
X4.3224Y-3.6819
X4.4224Y-2.2236
X4.4224Y-2.8236
X4.4224Y-3.0819
X4.4224Y-3.6819
X4.6327Y-2.2236
X4.6327Y-2.8236
X4.6327Y-3.0819
X4.6327Y-3.6819
X4.7327Y-2.2236
X4.7327Y-2.8236
X4.7327Y-3.0819
X4.7327Y-3.6819
X4.8327Y-2.2236
X4.8327Y-2.8236
X4.8327Y-3.0819
X4.8327Y-3.6819
X4.9327Y-2.2236
X4.9327Y-2.8236
X4.9327Y-3.0819
X4.9327Y-3.6819
X5.0327Y-2.2236
X5.0327Y-2.8236
X5.0327Y-3.0819
X5.0327Y-3.6819
X5.3157Y-3.7504
X5.3157Y-4.3504
X5.4157Y-3.7504
X5.4157Y-4.3504
X5.5157Y-3.7504
X5.5157Y-4.3504
X5.6157Y-3.7504
X5.6157Y-4.3504
X5.7157Y-3.7504
X5.7157Y-4.3504
X5.8157Y-3.7504
X5.8157Y-4.3504
X5.9157Y-3.7504
X5.9157Y-4.3504
X6.0157Y-3.7504
X6.0157Y-4.3504
X6.1157Y-3.7504
X6.1157Y-4.3504
X6.2157Y-3.7504
X6.2157Y-4.3504
X6.3157Y-3.7504
X6.3157Y-4.3504
X6.4157Y-3.7504
X6.4157Y-4.3504
X6.5157Y-3.7504
X6.5157Y-4.3504
X6.6157Y-3.7504
X6.6157Y-4.3504
X6.7157Y-3.7504
X6.7157Y-4.3504
T6
X2.0472Y-3.1496
X2.2835Y-3.1496
X2.4409Y-2.7559
X2.4409Y-3.5433
X2.5Y-1.8701
X2.5Y-2.1063
X2.5Y-2.3425
X2.6772Y-2.7559
X2.6772Y-3.5433
X2.8346Y-3.1496
X3.0709Y-3.1496
X4.626Y-1.9685
X5.0197Y-1.9685
X5.9843Y-2.7559
X5.9843Y-3.3465
X6.2205Y-2.7559
X6.2205Y-3.3465
X6.7717Y-2.7559
X6.7717Y-3.3465
X6.9882Y-4.1929
X7.0079Y-2.7559
X7.0079Y-3.3465
X7.2244Y-4.1929
T2
G00X4.3575Y-4.1496
M15
G01X4.3575Y-4.1732
M16
G05
G00X4.3575Y-4.2992
M15
G01X4.3575Y-4.3228
M16
G05
G00X4.6976Y-4.1496
M15
G01X4.6976Y-4.1732
M16
G05
G00X4.6976Y-4.2992
M15
G01X4.6976Y-4.3228
M16
G05
M30
