%TF.GenerationSoftware,KiCad,Pcbnew,8.0.3*%
%TF.CreationDate,2024-07-14T00:03:07-05:00*%
%TF.ProjectId,Controller,436f6e74-726f-46c6-9c65-722e6b696361,rev?*%
%TF.SameCoordinates,Original*%
%TF.FileFunction,Legend,Bot*%
%TF.FilePolarity,Positive*%
%FSLAX46Y46*%
G04 Gerber Fmt 4.6, Leading zero omitted, Abs format (unit mm)*
G04 Created by KiCad (PCBNEW 8.0.3) date 2024-07-14 00:03:07*
%MOMM*%
%LPD*%
G01*
G04 APERTURE LIST*
G04 Aperture macros list*
%AMRoundRect*
0 Rectangle with rounded corners*
0 $1 Rounding radius*
0 $2 $3 $4 $5 $6 $7 $8 $9 X,Y pos of 4 corners*
0 Add a 4 corners polygon primitive as box body*
4,1,4,$2,$3,$4,$5,$6,$7,$8,$9,$2,$3,0*
0 Add four circle primitives for the rounded corners*
1,1,$1+$1,$2,$3*
1,1,$1+$1,$4,$5*
1,1,$1+$1,$6,$7*
1,1,$1+$1,$8,$9*
0 Add four rect primitives between the rounded corners*
20,1,$1+$1,$2,$3,$4,$5,0*
20,1,$1+$1,$4,$5,$6,$7,0*
20,1,$1+$1,$6,$7,$8,$9,0*
20,1,$1+$1,$8,$9,$2,$3,0*%
G04 Aperture macros list end*
%ADD10C,0.300000*%
%ADD11C,2.000000*%
%ADD12C,1.600000*%
%ADD13O,1.600000X1.600000*%
%ADD14RoundRect,0.250001X-0.799999X-0.799999X0.799999X-0.799999X0.799999X0.799999X-0.799999X0.799999X0*%
%ADD15R,1.700000X1.700000*%
%ADD16C,1.700000*%
%ADD17R,1.600000X1.600000*%
%ADD18C,4.300000*%
%ADD19R,1.800000X1.800000*%
%ADD20O,1.800000X1.800000*%
%ADD21RoundRect,0.250001X-0.799999X0.799999X-0.799999X-0.799999X0.799999X-0.799999X0.799999X0.799999X0*%
%ADD22O,1.100000X1.700000*%
G04 APERTURE END LIST*
D10*
X56588346Y-104680828D02*
X55588346Y-104680828D01*
X55588346Y-104680828D02*
X56231203Y-106180828D01*
X53945489Y-104609400D02*
X55231203Y-106537971D01*
X52659774Y-106180828D02*
X53516917Y-106180828D01*
X53088346Y-106180828D02*
X53088346Y-104680828D01*
X53088346Y-104680828D02*
X53231203Y-104895114D01*
X53231203Y-104895114D02*
X53374060Y-105037971D01*
X53374060Y-105037971D02*
X53516917Y-105109400D01*
X52159775Y-104680828D02*
X51231203Y-104680828D01*
X51231203Y-104680828D02*
X51731203Y-105252257D01*
X51731203Y-105252257D02*
X51516918Y-105252257D01*
X51516918Y-105252257D02*
X51374061Y-105323685D01*
X51374061Y-105323685D02*
X51302632Y-105395114D01*
X51302632Y-105395114D02*
X51231203Y-105537971D01*
X51231203Y-105537971D02*
X51231203Y-105895114D01*
X51231203Y-105895114D02*
X51302632Y-106037971D01*
X51302632Y-106037971D02*
X51374061Y-106109400D01*
X51374061Y-106109400D02*
X51516918Y-106180828D01*
X51516918Y-106180828D02*
X51945489Y-106180828D01*
X51945489Y-106180828D02*
X52088346Y-106109400D01*
X52088346Y-106109400D02*
X52159775Y-106037971D01*
X49516918Y-104609400D02*
X50802632Y-106537971D01*
X49088346Y-104823685D02*
X49016918Y-104752257D01*
X49016918Y-104752257D02*
X48874061Y-104680828D01*
X48874061Y-104680828D02*
X48516918Y-104680828D01*
X48516918Y-104680828D02*
X48374061Y-104752257D01*
X48374061Y-104752257D02*
X48302632Y-104823685D01*
X48302632Y-104823685D02*
X48231203Y-104966542D01*
X48231203Y-104966542D02*
X48231203Y-105109400D01*
X48231203Y-105109400D02*
X48302632Y-105323685D01*
X48302632Y-105323685D02*
X49159775Y-106180828D01*
X49159775Y-106180828D02*
X48231203Y-106180828D01*
X46945490Y-105180828D02*
X46945490Y-106180828D01*
X47302632Y-104609400D02*
X47659775Y-105680828D01*
X47659775Y-105680828D02*
X46731204Y-105680828D01*
X55659774Y-108595744D02*
X56516917Y-108595744D01*
X56088346Y-108595744D02*
X56088346Y-107095744D01*
X56088346Y-107095744D02*
X56231203Y-107310030D01*
X56231203Y-107310030D02*
X56374060Y-107452887D01*
X56374060Y-107452887D02*
X56516917Y-107524316D01*
X54374061Y-107595744D02*
X54374061Y-108595744D01*
X54731203Y-107024316D02*
X55088346Y-108095744D01*
X55088346Y-108095744D02*
X54159775Y-108095744D01*
X52945490Y-107595744D02*
X52945490Y-108595744D01*
X53302632Y-107024316D02*
X53659775Y-108095744D01*
X53659775Y-108095744D02*
X52731204Y-108095744D01*
X52302633Y-108595744D02*
X51516919Y-107595744D01*
X52302633Y-107595744D02*
X51516919Y-108595744D01*
X51088347Y-107095744D02*
X50088347Y-107095744D01*
X50088347Y-107095744D02*
X50731204Y-108595744D01*
X48874062Y-107595744D02*
X48874062Y-108595744D01*
X49231204Y-107024316D02*
X49588347Y-108095744D01*
X49588347Y-108095744D02*
X48659776Y-108095744D01*
X46945491Y-108595744D02*
X46945491Y-107595744D01*
X46945491Y-107738601D02*
X46874062Y-107667173D01*
X46874062Y-107667173D02*
X46731205Y-107595744D01*
X46731205Y-107595744D02*
X46516919Y-107595744D01*
X46516919Y-107595744D02*
X46374062Y-107667173D01*
X46374062Y-107667173D02*
X46302634Y-107810030D01*
X46302634Y-107810030D02*
X46302634Y-108595744D01*
X46302634Y-107810030D02*
X46231205Y-107667173D01*
X46231205Y-107667173D02*
X46088348Y-107595744D01*
X46088348Y-107595744D02*
X45874062Y-107595744D01*
X45874062Y-107595744D02*
X45731205Y-107667173D01*
X45731205Y-107667173D02*
X45659776Y-107810030D01*
X45659776Y-107810030D02*
X45659776Y-108595744D01*
X44945491Y-108595744D02*
X44945491Y-107595744D01*
X44945491Y-107738601D02*
X44874062Y-107667173D01*
X44874062Y-107667173D02*
X44731205Y-107595744D01*
X44731205Y-107595744D02*
X44516919Y-107595744D01*
X44516919Y-107595744D02*
X44374062Y-107667173D01*
X44374062Y-107667173D02*
X44302634Y-107810030D01*
X44302634Y-107810030D02*
X44302634Y-108595744D01*
X44302634Y-107810030D02*
X44231205Y-107667173D01*
X44231205Y-107667173D02*
X44088348Y-107595744D01*
X44088348Y-107595744D02*
X43874062Y-107595744D01*
X43874062Y-107595744D02*
X43731205Y-107667173D01*
X43731205Y-107667173D02*
X43659776Y-107810030D01*
X43659776Y-107810030D02*
X43659776Y-108595744D01*
X56659774Y-109510660D02*
X56159774Y-111010660D01*
X56159774Y-111010660D02*
X55659774Y-109510660D01*
X54374060Y-111010660D02*
X55231203Y-111010660D01*
X54802632Y-111010660D02*
X54802632Y-109510660D01*
X54802632Y-109510660D02*
X54945489Y-109724946D01*
X54945489Y-109724946D02*
X55088346Y-109867803D01*
X55088346Y-109867803D02*
X55231203Y-109939232D01*
X184963346Y-40680828D02*
X185463346Y-39966542D01*
X185820489Y-40680828D02*
X185820489Y-39180828D01*
X185820489Y-39180828D02*
X185249060Y-39180828D01*
X185249060Y-39180828D02*
X185106203Y-39252257D01*
X185106203Y-39252257D02*
X185034774Y-39323685D01*
X185034774Y-39323685D02*
X184963346Y-39466542D01*
X184963346Y-39466542D02*
X184963346Y-39680828D01*
X184963346Y-39680828D02*
X185034774Y-39823685D01*
X185034774Y-39823685D02*
X185106203Y-39895114D01*
X185106203Y-39895114D02*
X185249060Y-39966542D01*
X185249060Y-39966542D02*
X185820489Y-39966542D01*
X183463346Y-40537971D02*
X183534774Y-40609400D01*
X183534774Y-40609400D02*
X183749060Y-40680828D01*
X183749060Y-40680828D02*
X183891917Y-40680828D01*
X183891917Y-40680828D02*
X184106203Y-40609400D01*
X184106203Y-40609400D02*
X184249060Y-40466542D01*
X184249060Y-40466542D02*
X184320489Y-40323685D01*
X184320489Y-40323685D02*
X184391917Y-40037971D01*
X184391917Y-40037971D02*
X184391917Y-39823685D01*
X184391917Y-39823685D02*
X184320489Y-39537971D01*
X184320489Y-39537971D02*
X184249060Y-39395114D01*
X184249060Y-39395114D02*
X184106203Y-39252257D01*
X184106203Y-39252257D02*
X183891917Y-39180828D01*
X183891917Y-39180828D02*
X183749060Y-39180828D01*
X183749060Y-39180828D02*
X183534774Y-39252257D01*
X183534774Y-39252257D02*
X183463346Y-39323685D01*
X180820489Y-40537971D02*
X180891917Y-40609400D01*
X180891917Y-40609400D02*
X181106203Y-40680828D01*
X181106203Y-40680828D02*
X181249060Y-40680828D01*
X181249060Y-40680828D02*
X181463346Y-40609400D01*
X181463346Y-40609400D02*
X181606203Y-40466542D01*
X181606203Y-40466542D02*
X181677632Y-40323685D01*
X181677632Y-40323685D02*
X181749060Y-40037971D01*
X181749060Y-40037971D02*
X181749060Y-39823685D01*
X181749060Y-39823685D02*
X181677632Y-39537971D01*
X181677632Y-39537971D02*
X181606203Y-39395114D01*
X181606203Y-39395114D02*
X181463346Y-39252257D01*
X181463346Y-39252257D02*
X181249060Y-39180828D01*
X181249060Y-39180828D02*
X181106203Y-39180828D01*
X181106203Y-39180828D02*
X180891917Y-39252257D01*
X180891917Y-39252257D02*
X180820489Y-39323685D01*
X179963346Y-40680828D02*
X180106203Y-40609400D01*
X180106203Y-40609400D02*
X180177632Y-40537971D01*
X180177632Y-40537971D02*
X180249060Y-40395114D01*
X180249060Y-40395114D02*
X180249060Y-39966542D01*
X180249060Y-39966542D02*
X180177632Y-39823685D01*
X180177632Y-39823685D02*
X180106203Y-39752257D01*
X180106203Y-39752257D02*
X179963346Y-39680828D01*
X179963346Y-39680828D02*
X179749060Y-39680828D01*
X179749060Y-39680828D02*
X179606203Y-39752257D01*
X179606203Y-39752257D02*
X179534775Y-39823685D01*
X179534775Y-39823685D02*
X179463346Y-39966542D01*
X179463346Y-39966542D02*
X179463346Y-40395114D01*
X179463346Y-40395114D02*
X179534775Y-40537971D01*
X179534775Y-40537971D02*
X179606203Y-40609400D01*
X179606203Y-40609400D02*
X179749060Y-40680828D01*
X179749060Y-40680828D02*
X179963346Y-40680828D01*
X178820489Y-39680828D02*
X178820489Y-40680828D01*
X178820489Y-39823685D02*
X178749060Y-39752257D01*
X178749060Y-39752257D02*
X178606203Y-39680828D01*
X178606203Y-39680828D02*
X178391917Y-39680828D01*
X178391917Y-39680828D02*
X178249060Y-39752257D01*
X178249060Y-39752257D02*
X178177632Y-39895114D01*
X178177632Y-39895114D02*
X178177632Y-40680828D01*
X177677631Y-39680828D02*
X177106203Y-39680828D01*
X177463346Y-39180828D02*
X177463346Y-40466542D01*
X177463346Y-40466542D02*
X177391917Y-40609400D01*
X177391917Y-40609400D02*
X177249060Y-40680828D01*
X177249060Y-40680828D02*
X177106203Y-40680828D01*
X176606203Y-40680828D02*
X176606203Y-39680828D01*
X176606203Y-39966542D02*
X176534774Y-39823685D01*
X176534774Y-39823685D02*
X176463346Y-39752257D01*
X176463346Y-39752257D02*
X176320488Y-39680828D01*
X176320488Y-39680828D02*
X176177631Y-39680828D01*
X175463346Y-40680828D02*
X175606203Y-40609400D01*
X175606203Y-40609400D02*
X175677632Y-40537971D01*
X175677632Y-40537971D02*
X175749060Y-40395114D01*
X175749060Y-40395114D02*
X175749060Y-39966542D01*
X175749060Y-39966542D02*
X175677632Y-39823685D01*
X175677632Y-39823685D02*
X175606203Y-39752257D01*
X175606203Y-39752257D02*
X175463346Y-39680828D01*
X175463346Y-39680828D02*
X175249060Y-39680828D01*
X175249060Y-39680828D02*
X175106203Y-39752257D01*
X175106203Y-39752257D02*
X175034775Y-39823685D01*
X175034775Y-39823685D02*
X174963346Y-39966542D01*
X174963346Y-39966542D02*
X174963346Y-40395114D01*
X174963346Y-40395114D02*
X175034775Y-40537971D01*
X175034775Y-40537971D02*
X175106203Y-40609400D01*
X175106203Y-40609400D02*
X175249060Y-40680828D01*
X175249060Y-40680828D02*
X175463346Y-40680828D01*
X174106203Y-40680828D02*
X174249060Y-40609400D01*
X174249060Y-40609400D02*
X174320489Y-40466542D01*
X174320489Y-40466542D02*
X174320489Y-39180828D01*
X173320489Y-40680828D02*
X173463346Y-40609400D01*
X173463346Y-40609400D02*
X173534775Y-40466542D01*
X173534775Y-40466542D02*
X173534775Y-39180828D01*
X172177632Y-40609400D02*
X172320489Y-40680828D01*
X172320489Y-40680828D02*
X172606204Y-40680828D01*
X172606204Y-40680828D02*
X172749061Y-40609400D01*
X172749061Y-40609400D02*
X172820489Y-40466542D01*
X172820489Y-40466542D02*
X172820489Y-39895114D01*
X172820489Y-39895114D02*
X172749061Y-39752257D01*
X172749061Y-39752257D02*
X172606204Y-39680828D01*
X172606204Y-39680828D02*
X172320489Y-39680828D01*
X172320489Y-39680828D02*
X172177632Y-39752257D01*
X172177632Y-39752257D02*
X172106204Y-39895114D01*
X172106204Y-39895114D02*
X172106204Y-40037971D01*
X172106204Y-40037971D02*
X172820489Y-40180828D01*
X171463347Y-40680828D02*
X171463347Y-39680828D01*
X171463347Y-39966542D02*
X171391918Y-39823685D01*
X171391918Y-39823685D02*
X171320490Y-39752257D01*
X171320490Y-39752257D02*
X171177632Y-39680828D01*
X171177632Y-39680828D02*
X171034775Y-39680828D01*
X185391917Y-41595744D02*
X185391917Y-42667173D01*
X185391917Y-42667173D02*
X185463346Y-42881458D01*
X185463346Y-42881458D02*
X185606203Y-43024316D01*
X185606203Y-43024316D02*
X185820489Y-43095744D01*
X185820489Y-43095744D02*
X185963346Y-43095744D01*
X184106203Y-43024316D02*
X184249060Y-43095744D01*
X184249060Y-43095744D02*
X184534775Y-43095744D01*
X184534775Y-43095744D02*
X184677632Y-43024316D01*
X184677632Y-43024316D02*
X184749060Y-42881458D01*
X184749060Y-42881458D02*
X184749060Y-42310030D01*
X184749060Y-42310030D02*
X184677632Y-42167173D01*
X184677632Y-42167173D02*
X184534775Y-42095744D01*
X184534775Y-42095744D02*
X184249060Y-42095744D01*
X184249060Y-42095744D02*
X184106203Y-42167173D01*
X184106203Y-42167173D02*
X184034775Y-42310030D01*
X184034775Y-42310030D02*
X184034775Y-42452887D01*
X184034775Y-42452887D02*
X184749060Y-42595744D01*
X183391918Y-43095744D02*
X183391918Y-42095744D01*
X183391918Y-42381458D02*
X183320489Y-42238601D01*
X183320489Y-42238601D02*
X183249061Y-42167173D01*
X183249061Y-42167173D02*
X183106203Y-42095744D01*
X183106203Y-42095744D02*
X182963346Y-42095744D01*
X181891918Y-43024316D02*
X182034775Y-43095744D01*
X182034775Y-43095744D02*
X182320490Y-43095744D01*
X182320490Y-43095744D02*
X182463347Y-43024316D01*
X182463347Y-43024316D02*
X182534775Y-42881458D01*
X182534775Y-42881458D02*
X182534775Y-42310030D01*
X182534775Y-42310030D02*
X182463347Y-42167173D01*
X182463347Y-42167173D02*
X182320490Y-42095744D01*
X182320490Y-42095744D02*
X182034775Y-42095744D01*
X182034775Y-42095744D02*
X181891918Y-42167173D01*
X181891918Y-42167173D02*
X181820490Y-42310030D01*
X181820490Y-42310030D02*
X181820490Y-42452887D01*
X181820490Y-42452887D02*
X182534775Y-42595744D01*
X181177633Y-43095744D02*
X181177633Y-42095744D01*
X181177633Y-42238601D02*
X181106204Y-42167173D01*
X181106204Y-42167173D02*
X180963347Y-42095744D01*
X180963347Y-42095744D02*
X180749061Y-42095744D01*
X180749061Y-42095744D02*
X180606204Y-42167173D01*
X180606204Y-42167173D02*
X180534776Y-42310030D01*
X180534776Y-42310030D02*
X180534776Y-43095744D01*
X180534776Y-42310030D02*
X180463347Y-42167173D01*
X180463347Y-42167173D02*
X180320490Y-42095744D01*
X180320490Y-42095744D02*
X180106204Y-42095744D01*
X180106204Y-42095744D02*
X179963347Y-42167173D01*
X179963347Y-42167173D02*
X179891918Y-42310030D01*
X179891918Y-42310030D02*
X179891918Y-43095744D01*
X179177633Y-43095744D02*
X179177633Y-42095744D01*
X179177633Y-41595744D02*
X179249061Y-41667173D01*
X179249061Y-41667173D02*
X179177633Y-41738601D01*
X179177633Y-41738601D02*
X179106204Y-41667173D01*
X179106204Y-41667173D02*
X179177633Y-41595744D01*
X179177633Y-41595744D02*
X179177633Y-41738601D01*
X177820490Y-43095744D02*
X177820490Y-42310030D01*
X177820490Y-42310030D02*
X177891918Y-42167173D01*
X177891918Y-42167173D02*
X178034775Y-42095744D01*
X178034775Y-42095744D02*
X178320490Y-42095744D01*
X178320490Y-42095744D02*
X178463347Y-42167173D01*
X177820490Y-43024316D02*
X177963347Y-43095744D01*
X177963347Y-43095744D02*
X178320490Y-43095744D01*
X178320490Y-43095744D02*
X178463347Y-43024316D01*
X178463347Y-43024316D02*
X178534775Y-42881458D01*
X178534775Y-42881458D02*
X178534775Y-42738601D01*
X178534775Y-42738601D02*
X178463347Y-42595744D01*
X178463347Y-42595744D02*
X178320490Y-42524316D01*
X178320490Y-42524316D02*
X177963347Y-42524316D01*
X177963347Y-42524316D02*
X177820490Y-42452887D01*
X177106204Y-43095744D02*
X177106204Y-41595744D01*
X176463347Y-43095744D02*
X176463347Y-42310030D01*
X176463347Y-42310030D02*
X176534775Y-42167173D01*
X176534775Y-42167173D02*
X176677632Y-42095744D01*
X176677632Y-42095744D02*
X176891918Y-42095744D01*
X176891918Y-42095744D02*
X177034775Y-42167173D01*
X177034775Y-42167173D02*
X177106204Y-42238601D01*
X173749061Y-43095744D02*
X174249061Y-42381458D01*
X174606204Y-43095744D02*
X174606204Y-41595744D01*
X174606204Y-41595744D02*
X174034775Y-41595744D01*
X174034775Y-41595744D02*
X173891918Y-41667173D01*
X173891918Y-41667173D02*
X173820489Y-41738601D01*
X173820489Y-41738601D02*
X173749061Y-41881458D01*
X173749061Y-41881458D02*
X173749061Y-42095744D01*
X173749061Y-42095744D02*
X173820489Y-42238601D01*
X173820489Y-42238601D02*
X173891918Y-42310030D01*
X173891918Y-42310030D02*
X174034775Y-42381458D01*
X174034775Y-42381458D02*
X174606204Y-42381458D01*
X172463347Y-42095744D02*
X172463347Y-43095744D01*
X173106204Y-42095744D02*
X173106204Y-42881458D01*
X173106204Y-42881458D02*
X173034775Y-43024316D01*
X173034775Y-43024316D02*
X172891918Y-43095744D01*
X172891918Y-43095744D02*
X172677632Y-43095744D01*
X172677632Y-43095744D02*
X172534775Y-43024316D01*
X172534775Y-43024316D02*
X172463347Y-42952887D01*
X171106204Y-42095744D02*
X171106204Y-43310030D01*
X171106204Y-43310030D02*
X171177632Y-43452887D01*
X171177632Y-43452887D02*
X171249061Y-43524316D01*
X171249061Y-43524316D02*
X171391918Y-43595744D01*
X171391918Y-43595744D02*
X171606204Y-43595744D01*
X171606204Y-43595744D02*
X171749061Y-43524316D01*
X171106204Y-43024316D02*
X171249061Y-43095744D01*
X171249061Y-43095744D02*
X171534775Y-43095744D01*
X171534775Y-43095744D02*
X171677632Y-43024316D01*
X171677632Y-43024316D02*
X171749061Y-42952887D01*
X171749061Y-42952887D02*
X171820489Y-42810030D01*
X171820489Y-42810030D02*
X171820489Y-42381458D01*
X171820489Y-42381458D02*
X171749061Y-42238601D01*
X171749061Y-42238601D02*
X171677632Y-42167173D01*
X171677632Y-42167173D02*
X171534775Y-42095744D01*
X171534775Y-42095744D02*
X171249061Y-42095744D01*
X171249061Y-42095744D02*
X171106204Y-42167173D01*
X170391918Y-43095744D02*
X170391918Y-42095744D01*
X170391918Y-42381458D02*
X170320489Y-42238601D01*
X170320489Y-42238601D02*
X170249061Y-42167173D01*
X170249061Y-42167173D02*
X170106203Y-42095744D01*
X170106203Y-42095744D02*
X169963346Y-42095744D01*
X169249061Y-43095744D02*
X169391918Y-43024316D01*
X169391918Y-43024316D02*
X169463347Y-42952887D01*
X169463347Y-42952887D02*
X169534775Y-42810030D01*
X169534775Y-42810030D02*
X169534775Y-42381458D01*
X169534775Y-42381458D02*
X169463347Y-42238601D01*
X169463347Y-42238601D02*
X169391918Y-42167173D01*
X169391918Y-42167173D02*
X169249061Y-42095744D01*
X169249061Y-42095744D02*
X169034775Y-42095744D01*
X169034775Y-42095744D02*
X168891918Y-42167173D01*
X168891918Y-42167173D02*
X168820490Y-42238601D01*
X168820490Y-42238601D02*
X168749061Y-42381458D01*
X168749061Y-42381458D02*
X168749061Y-42810030D01*
X168749061Y-42810030D02*
X168820490Y-42952887D01*
X168820490Y-42952887D02*
X168891918Y-43024316D01*
X168891918Y-43024316D02*
X169034775Y-43095744D01*
X169034775Y-43095744D02*
X169249061Y-43095744D01*
X167463347Y-43095744D02*
X167463347Y-41595744D01*
X167463347Y-43024316D02*
X167606204Y-43095744D01*
X167606204Y-43095744D02*
X167891918Y-43095744D01*
X167891918Y-43095744D02*
X168034775Y-43024316D01*
X168034775Y-43024316D02*
X168106204Y-42952887D01*
X168106204Y-42952887D02*
X168177632Y-42810030D01*
X168177632Y-42810030D02*
X168177632Y-42381458D01*
X168177632Y-42381458D02*
X168106204Y-42238601D01*
X168106204Y-42238601D02*
X168034775Y-42167173D01*
X168034775Y-42167173D02*
X167891918Y-42095744D01*
X167891918Y-42095744D02*
X167606204Y-42095744D01*
X167606204Y-42095744D02*
X167463347Y-42167173D01*
X166177632Y-43024316D02*
X166320489Y-43095744D01*
X166320489Y-43095744D02*
X166606204Y-43095744D01*
X166606204Y-43095744D02*
X166749061Y-43024316D01*
X166749061Y-43024316D02*
X166820489Y-42881458D01*
X166820489Y-42881458D02*
X166820489Y-42310030D01*
X166820489Y-42310030D02*
X166749061Y-42167173D01*
X166749061Y-42167173D02*
X166606204Y-42095744D01*
X166606204Y-42095744D02*
X166320489Y-42095744D01*
X166320489Y-42095744D02*
X166177632Y-42167173D01*
X166177632Y-42167173D02*
X166106204Y-42310030D01*
X166106204Y-42310030D02*
X166106204Y-42452887D01*
X166106204Y-42452887D02*
X166820489Y-42595744D01*
X165463347Y-42095744D02*
X165463347Y-43095744D01*
X165463347Y-42238601D02*
X165391918Y-42167173D01*
X165391918Y-42167173D02*
X165249061Y-42095744D01*
X165249061Y-42095744D02*
X165034775Y-42095744D01*
X165034775Y-42095744D02*
X164891918Y-42167173D01*
X164891918Y-42167173D02*
X164820490Y-42310030D01*
X164820490Y-42310030D02*
X164820490Y-43095744D01*
X185106203Y-45510660D02*
X185820489Y-45510660D01*
X185820489Y-45510660D02*
X185820489Y-44010660D01*
X183963346Y-44510660D02*
X183963346Y-45510660D01*
X184606203Y-44510660D02*
X184606203Y-45296374D01*
X184606203Y-45296374D02*
X184534774Y-45439232D01*
X184534774Y-45439232D02*
X184391917Y-45510660D01*
X184391917Y-45510660D02*
X184177631Y-45510660D01*
X184177631Y-45510660D02*
X184034774Y-45439232D01*
X184034774Y-45439232D02*
X183963346Y-45367803D01*
X183249060Y-45510660D02*
X183249060Y-44010660D01*
X183106203Y-44939232D02*
X182677631Y-45510660D01*
X182677631Y-44510660D02*
X183249060Y-45082089D01*
X181463345Y-45439232D02*
X181606202Y-45510660D01*
X181606202Y-45510660D02*
X181891917Y-45510660D01*
X181891917Y-45510660D02*
X182034774Y-45439232D01*
X182034774Y-45439232D02*
X182106202Y-45296374D01*
X182106202Y-45296374D02*
X182106202Y-44724946D01*
X182106202Y-44724946D02*
X182034774Y-44582089D01*
X182034774Y-44582089D02*
X181891917Y-44510660D01*
X181891917Y-44510660D02*
X181606202Y-44510660D01*
X181606202Y-44510660D02*
X181463345Y-44582089D01*
X181463345Y-44582089D02*
X181391917Y-44724946D01*
X181391917Y-44724946D02*
X181391917Y-44867803D01*
X181391917Y-44867803D02*
X182106202Y-45010660D01*
X179606203Y-45510660D02*
X179606203Y-44010660D01*
X179606203Y-44724946D02*
X178749060Y-44724946D01*
X178749060Y-45510660D02*
X178749060Y-44010660D01*
X177820488Y-45510660D02*
X177963345Y-45439232D01*
X177963345Y-45439232D02*
X178034774Y-45367803D01*
X178034774Y-45367803D02*
X178106202Y-45224946D01*
X178106202Y-45224946D02*
X178106202Y-44796374D01*
X178106202Y-44796374D02*
X178034774Y-44653517D01*
X178034774Y-44653517D02*
X177963345Y-44582089D01*
X177963345Y-44582089D02*
X177820488Y-44510660D01*
X177820488Y-44510660D02*
X177606202Y-44510660D01*
X177606202Y-44510660D02*
X177463345Y-44582089D01*
X177463345Y-44582089D02*
X177391917Y-44653517D01*
X177391917Y-44653517D02*
X177320488Y-44796374D01*
X177320488Y-44796374D02*
X177320488Y-45224946D01*
X177320488Y-45224946D02*
X177391917Y-45367803D01*
X177391917Y-45367803D02*
X177463345Y-45439232D01*
X177463345Y-45439232D02*
X177606202Y-45510660D01*
X177606202Y-45510660D02*
X177820488Y-45510660D01*
X176463345Y-45510660D02*
X176606202Y-45439232D01*
X176606202Y-45439232D02*
X176677631Y-45367803D01*
X176677631Y-45367803D02*
X176749059Y-45224946D01*
X176749059Y-45224946D02*
X176749059Y-44796374D01*
X176749059Y-44796374D02*
X176677631Y-44653517D01*
X176677631Y-44653517D02*
X176606202Y-44582089D01*
X176606202Y-44582089D02*
X176463345Y-44510660D01*
X176463345Y-44510660D02*
X176249059Y-44510660D01*
X176249059Y-44510660D02*
X176106202Y-44582089D01*
X176106202Y-44582089D02*
X176034774Y-44653517D01*
X176034774Y-44653517D02*
X175963345Y-44796374D01*
X175963345Y-44796374D02*
X175963345Y-45224946D01*
X175963345Y-45224946D02*
X176034774Y-45367803D01*
X176034774Y-45367803D02*
X176106202Y-45439232D01*
X176106202Y-45439232D02*
X176249059Y-45510660D01*
X176249059Y-45510660D02*
X176463345Y-45510660D01*
X175320488Y-44510660D02*
X175320488Y-46010660D01*
X175320488Y-44582089D02*
X175177631Y-44510660D01*
X175177631Y-44510660D02*
X174891916Y-44510660D01*
X174891916Y-44510660D02*
X174749059Y-44582089D01*
X174749059Y-44582089D02*
X174677631Y-44653517D01*
X174677631Y-44653517D02*
X174606202Y-44796374D01*
X174606202Y-44796374D02*
X174606202Y-45224946D01*
X174606202Y-45224946D02*
X174677631Y-45367803D01*
X174677631Y-45367803D02*
X174749059Y-45439232D01*
X174749059Y-45439232D02*
X174891916Y-45510660D01*
X174891916Y-45510660D02*
X175177631Y-45510660D01*
X175177631Y-45510660D02*
X175320488Y-45439232D01*
X173391916Y-45439232D02*
X173534773Y-45510660D01*
X173534773Y-45510660D02*
X173820488Y-45510660D01*
X173820488Y-45510660D02*
X173963345Y-45439232D01*
X173963345Y-45439232D02*
X174034773Y-45296374D01*
X174034773Y-45296374D02*
X174034773Y-44724946D01*
X174034773Y-44724946D02*
X173963345Y-44582089D01*
X173963345Y-44582089D02*
X173820488Y-44510660D01*
X173820488Y-44510660D02*
X173534773Y-44510660D01*
X173534773Y-44510660D02*
X173391916Y-44582089D01*
X173391916Y-44582089D02*
X173320488Y-44724946D01*
X173320488Y-44724946D02*
X173320488Y-44867803D01*
X173320488Y-44867803D02*
X174034773Y-45010660D01*
X172677631Y-45510660D02*
X172677631Y-44510660D01*
X172677631Y-44796374D02*
X172606202Y-44653517D01*
X172606202Y-44653517D02*
X172534774Y-44582089D01*
X172534774Y-44582089D02*
X172391916Y-44510660D01*
X172391916Y-44510660D02*
X172249059Y-44510660D01*
%LPC*%
D11*
%TO.C,SW7*%
X152000000Y-70000000D03*
X158000000Y-70000000D03*
%TD*%
D12*
%TO.C,R34*%
X130840000Y-75500000D03*
D13*
X141000000Y-75500000D03*
%TD*%
D12*
%TO.C,R6*%
X120500000Y-99500000D03*
D13*
X110340000Y-99500000D03*
%TD*%
D11*
%TO.C,SW3*%
X52000000Y-80000000D03*
X58000000Y-80000000D03*
%TD*%
D14*
%TO.C,J5*%
X63500000Y-53500000D03*
%TD*%
D12*
%TO.C,R24*%
X99000000Y-54500000D03*
D13*
X88840000Y-54500000D03*
%TD*%
D12*
%TO.C,FB1*%
X100000000Y-104000000D03*
X105000000Y-104000000D03*
%TD*%
D11*
%TO.C,SW10*%
X177500000Y-106500000D03*
X183500000Y-106500000D03*
%TD*%
D12*
%TO.C,R12*%
X130840000Y-57500000D03*
D13*
X141000000Y-57500000D03*
%TD*%
D12*
%TO.C,R27*%
X99000000Y-93500000D03*
D13*
X88840000Y-93500000D03*
%TD*%
D12*
%TO.C,R10*%
X130840000Y-51500000D03*
D13*
X141000000Y-51500000D03*
%TD*%
D15*
%TO.C,U7*%
X117669500Y-71719500D03*
D16*
X120209500Y-71719500D03*
X122749500Y-71719500D03*
X125289500Y-71719500D03*
X127829500Y-71719500D03*
X127829500Y-56479500D03*
X125289500Y-56479500D03*
X122749500Y-56479500D03*
X120209500Y-56479500D03*
X117669500Y-56479500D03*
%TD*%
D12*
%TO.C,R7*%
X75500000Y-101000000D03*
D13*
X65340000Y-101000000D03*
%TD*%
D15*
%TO.C,U1*%
X71880000Y-43040000D03*
D16*
X71880000Y-40500000D03*
X74420000Y-43040000D03*
X74420000Y-40500000D03*
X76960000Y-43040000D03*
X76960000Y-40500000D03*
X79500000Y-43040000D03*
X79500000Y-40500000D03*
%TD*%
D12*
%TO.C,R33*%
X99000000Y-75500000D03*
D13*
X88840000Y-75500000D03*
%TD*%
D12*
%TO.C,R3*%
X46340000Y-72000000D03*
D13*
X56500000Y-72000000D03*
%TD*%
D15*
%TO.C,U10*%
X117669500Y-93519500D03*
D16*
X120209500Y-93519500D03*
X122749500Y-93519500D03*
X125289500Y-93519500D03*
X127829500Y-93519500D03*
X127829500Y-78279500D03*
X125289500Y-78279500D03*
X122749500Y-78279500D03*
X120209500Y-78279500D03*
X117669500Y-78279500D03*
%TD*%
D14*
%TO.C,J1*%
X63500000Y-47500000D03*
%TD*%
D17*
%TO.C,U3*%
X145500000Y-46760000D03*
D13*
X145500000Y-49300000D03*
X145500000Y-51840000D03*
X145500000Y-54380000D03*
X145500000Y-56920000D03*
X145500000Y-59460000D03*
X145500000Y-62000000D03*
X145500000Y-64540000D03*
X153120000Y-64540000D03*
X153120000Y-62000000D03*
X153120000Y-59460000D03*
X153120000Y-56920000D03*
X153120000Y-54380000D03*
X153120000Y-51840000D03*
X153120000Y-49300000D03*
X153120000Y-46760000D03*
%TD*%
D12*
%TO.C,R29*%
X99000000Y-87500000D03*
D13*
X88840000Y-87500000D03*
%TD*%
D17*
%TO.C,A1*%
X170580000Y-95260000D03*
D13*
X168040000Y-95260000D03*
X165500000Y-95260000D03*
X162960000Y-95260000D03*
X160420000Y-95260000D03*
X157880000Y-95260000D03*
X155340000Y-95260000D03*
X152800000Y-95260000D03*
X150260000Y-95260000D03*
X147720000Y-95260000D03*
X145180000Y-95260000D03*
X142640000Y-95260000D03*
X140100000Y-95260000D03*
X137560000Y-95260000D03*
X135020000Y-95260000D03*
X135020000Y-110500000D03*
X137560000Y-110500000D03*
X140100000Y-110500000D03*
X142640000Y-110500000D03*
X145180000Y-110500000D03*
X147720000Y-110500000D03*
X150260000Y-110500000D03*
X152800000Y-110500000D03*
X155340000Y-110500000D03*
X157880000Y-110500000D03*
X160420000Y-110500000D03*
X162960000Y-110500000D03*
X165500000Y-110500000D03*
X168040000Y-110500000D03*
X170580000Y-110500000D03*
%TD*%
D12*
%TO.C,C2*%
X156000000Y-47500000D03*
X161000000Y-47500000D03*
%TD*%
%TO.C,R13*%
X130840000Y-60500000D03*
D13*
X141000000Y-60500000D03*
%TD*%
D18*
%TO.C,H1*%
X50000000Y-50000000D03*
%TD*%
D17*
%TO.C,C1*%
X162500000Y-57500000D03*
D12*
X164500000Y-57500000D03*
%TD*%
D11*
%TO.C,SW9*%
X172000000Y-85000000D03*
X178000000Y-85000000D03*
%TD*%
D19*
%TO.C,D5*%
X68455000Y-48500000D03*
D20*
X70995000Y-48500000D03*
%TD*%
D12*
%TO.C,R19*%
X99000000Y-69500000D03*
D13*
X88840000Y-69500000D03*
%TD*%
D11*
%TO.C,SW6*%
X172000000Y-70000000D03*
X178000000Y-70000000D03*
%TD*%
D12*
%TO.C,R1*%
X46340000Y-60400000D03*
D13*
X56500000Y-60400000D03*
%TD*%
D12*
%TO.C,R28*%
X99000000Y-90500000D03*
D13*
X88840000Y-90500000D03*
%TD*%
D12*
%TO.C,R39*%
X130840000Y-90500000D03*
D13*
X141000000Y-90500000D03*
%TD*%
D12*
%TO.C,R9*%
X68000000Y-52420000D03*
D13*
X68000000Y-62580000D03*
%TD*%
D11*
%TO.C,SW2*%
X62000000Y-70000000D03*
X68000000Y-70000000D03*
%TD*%
D12*
%TO.C,R26*%
X99000000Y-96500000D03*
D13*
X88840000Y-96500000D03*
%TD*%
D18*
%TO.C,H2*%
X180000000Y-50000000D03*
%TD*%
D12*
%TO.C,R15*%
X130840000Y-66500000D03*
D13*
X141000000Y-66500000D03*
%TD*%
D12*
%TO.C,R38*%
X130840000Y-87500000D03*
D13*
X141000000Y-87500000D03*
%TD*%
D12*
%TO.C,R16*%
X130840000Y-69500000D03*
D13*
X141000000Y-69500000D03*
%TD*%
D12*
%TO.C,R5*%
X74340000Y-52550000D03*
D13*
X84500000Y-52550000D03*
%TD*%
D12*
%TO.C,R36*%
X130840000Y-81500000D03*
D13*
X141000000Y-81500000D03*
%TD*%
D12*
%TO.C,R22*%
X99000000Y-60500000D03*
D13*
X88840000Y-60500000D03*
%TD*%
D18*
%TO.C,H3*%
X50000000Y-95000000D03*
%TD*%
D17*
%TO.C,C3*%
X112000000Y-51000000D03*
D12*
X114000000Y-51000000D03*
%TD*%
D17*
%TO.C,U5*%
X86120000Y-103200000D03*
D13*
X86120000Y-100660000D03*
X86120000Y-98120000D03*
X86120000Y-95580000D03*
X86120000Y-93040000D03*
X86120000Y-90500000D03*
X86120000Y-87960000D03*
X86120000Y-85420000D03*
X78500000Y-85420000D03*
X78500000Y-87960000D03*
X78500000Y-90500000D03*
X78500000Y-93040000D03*
X78500000Y-95580000D03*
X78500000Y-98120000D03*
X78500000Y-100660000D03*
X78500000Y-103200000D03*
%TD*%
D12*
%TO.C,R2*%
X46340000Y-66000000D03*
D13*
X56500000Y-66000000D03*
%TD*%
D12*
%TO.C,R23*%
X99000000Y-57500000D03*
D13*
X88840000Y-57500000D03*
%TD*%
D21*
%TO.C,J3*%
X117500000Y-50000000D03*
%TD*%
D12*
%TO.C,R37*%
X130840000Y-84500000D03*
D13*
X141000000Y-84500000D03*
%TD*%
D12*
%TO.C,R40*%
X148000000Y-90160000D03*
D13*
X148000000Y-80000000D03*
%TD*%
D17*
%TO.C,SW1*%
X121880000Y-42500000D03*
D13*
X129500000Y-42500000D03*
%TD*%
D17*
%TO.C,U4*%
X86000000Y-74540000D03*
D13*
X86000000Y-72000000D03*
X86000000Y-69460000D03*
X86000000Y-66920000D03*
X86000000Y-64380000D03*
X86000000Y-61840000D03*
X86000000Y-59300000D03*
X86000000Y-56760000D03*
X78380000Y-56760000D03*
X78380000Y-59300000D03*
X78380000Y-61840000D03*
X78380000Y-64380000D03*
X78380000Y-66920000D03*
X78380000Y-69460000D03*
X78380000Y-72000000D03*
X78380000Y-74540000D03*
%TD*%
D15*
%TO.C,U8*%
X102169500Y-71719500D03*
D16*
X104709500Y-71719500D03*
X107249500Y-71719500D03*
X109789500Y-71719500D03*
X112329500Y-71719500D03*
X112329500Y-56479500D03*
X109789500Y-56479500D03*
X107249500Y-56479500D03*
X104709500Y-56479500D03*
X102169500Y-56479500D03*
%TD*%
D22*
%TO.C,P1*%
X110680000Y-105700000D03*
X110680000Y-109500000D03*
X119320000Y-105700000D03*
X119320000Y-109500000D03*
%TD*%
D17*
%TO.C,U6*%
X161166487Y-68307747D03*
D13*
X161166487Y-70847747D03*
X161166487Y-73387747D03*
X161166487Y-75927747D03*
X161166487Y-78467747D03*
X161166487Y-81007747D03*
X161166487Y-83547747D03*
X161166487Y-86087747D03*
X168786487Y-86087747D03*
X168786487Y-83547747D03*
X168786487Y-81007747D03*
X168786487Y-78467747D03*
X168786487Y-75927747D03*
X168786487Y-73387747D03*
X168786487Y-70847747D03*
X168786487Y-68307747D03*
%TD*%
D19*
%TO.C,D1*%
X124500000Y-106000000D03*
D20*
X124500000Y-108540000D03*
%TD*%
D11*
%TO.C,SW4*%
X62000000Y-90000000D03*
X68000000Y-90000000D03*
%TD*%
D14*
%TO.C,J2*%
X63500000Y-59500000D03*
%TD*%
D12*
%TO.C,R20*%
X99000000Y-66500000D03*
D13*
X88840000Y-66500000D03*
%TD*%
D12*
%TO.C,R35*%
X130840000Y-78500000D03*
D13*
X141000000Y-78500000D03*
%TD*%
D19*
%TO.C,D4*%
X63350000Y-41000000D03*
D20*
X50650000Y-41000000D03*
%TD*%
D12*
%TO.C,R21*%
X99000000Y-63500000D03*
D13*
X88840000Y-63500000D03*
%TD*%
D12*
%TO.C,R32*%
X99000000Y-78500000D03*
D13*
X88840000Y-78500000D03*
%TD*%
D12*
%TO.C,R31*%
X99000000Y-81500000D03*
D13*
X88840000Y-81500000D03*
%TD*%
D12*
%TO.C,R14*%
X130840000Y-63500000D03*
D13*
X141000000Y-63500000D03*
%TD*%
D18*
%TO.C,H4*%
X180000000Y-95000000D03*
%TD*%
D19*
%TO.C,D2*%
X109850000Y-47500000D03*
D20*
X97150000Y-47500000D03*
%TD*%
D12*
%TO.C,R11*%
X130840000Y-54500000D03*
D13*
X141000000Y-54500000D03*
%TD*%
D19*
%TO.C,D3*%
X59500000Y-52150000D03*
D20*
X59500000Y-64850000D03*
%TD*%
D12*
%TO.C,R30*%
X99000000Y-84500000D03*
D13*
X88840000Y-84500000D03*
%TD*%
D12*
%TO.C,R18*%
X99000000Y-72500000D03*
D13*
X88840000Y-72500000D03*
%TD*%
D11*
%TO.C,SW8*%
X152000000Y-85000000D03*
X158000000Y-85000000D03*
%TD*%
%TO.C,SW5*%
X72000000Y-80000000D03*
X78000000Y-80000000D03*
%TD*%
D12*
%TO.C,R41*%
X144000000Y-90160000D03*
D13*
X144000000Y-80000000D03*
%TD*%
D12*
%TO.C,C4*%
X100000000Y-42500000D03*
X105000000Y-42500000D03*
%TD*%
D15*
%TO.C,U9*%
X102169500Y-93519500D03*
D16*
X104709500Y-93519500D03*
X107249500Y-93519500D03*
X109789500Y-93519500D03*
X112329500Y-93519500D03*
X112329500Y-78279500D03*
X109789500Y-78279500D03*
X107249500Y-78279500D03*
X104709500Y-78279500D03*
X102169500Y-78279500D03*
%TD*%
D21*
%TO.C,J6*%
X127500000Y-50000000D03*
%TD*%
D12*
%TO.C,R17*%
X130840000Y-72500000D03*
D13*
X141000000Y-72500000D03*
%TD*%
D12*
%TO.C,R25*%
X99000000Y-51500000D03*
D13*
X88840000Y-51500000D03*
%TD*%
D12*
%TO.C,R8*%
X60420000Y-107500000D03*
D13*
X70580000Y-107500000D03*
%TD*%
D12*
%TO.C,R4*%
X74340000Y-48500000D03*
D13*
X84500000Y-48500000D03*
%TD*%
%LPD*%
M02*
