%TF.GenerationSoftware,KiCad,Pcbnew,8.0.3*%
%TF.CreationDate,2024-07-14T00:03:07-05:00*%
%TF.ProjectId,Controller,436f6e74-726f-46c6-9c65-722e6b696361,rev?*%
%TF.SameCoordinates,Original*%
%TF.FileFunction,Soldermask,Bot*%
%TF.FilePolarity,Negative*%
%FSLAX46Y46*%
G04 Gerber Fmt 4.6, Leading zero omitted, Abs format (unit mm)*
G04 Created by KiCad (PCBNEW 8.0.3) date 2024-07-14 00:03:07*
%MOMM*%
%LPD*%
G01*
G04 APERTURE LIST*
G04 Aperture macros list*
%AMRoundRect*
0 Rectangle with rounded corners*
0 $1 Rounding radius*
0 $2 $3 $4 $5 $6 $7 $8 $9 X,Y pos of 4 corners*
0 Add a 4 corners polygon primitive as box body*
4,1,4,$2,$3,$4,$5,$6,$7,$8,$9,$2,$3,0*
0 Add four circle primitives for the rounded corners*
1,1,$1+$1,$2,$3*
1,1,$1+$1,$4,$5*
1,1,$1+$1,$6,$7*
1,1,$1+$1,$8,$9*
0 Add four rect primitives between the rounded corners*
20,1,$1+$1,$2,$3,$4,$5,0*
20,1,$1+$1,$4,$5,$6,$7,0*
20,1,$1+$1,$6,$7,$8,$9,0*
20,1,$1+$1,$8,$9,$2,$3,0*%
G04 Aperture macros list end*
%ADD10C,2.000000*%
%ADD11C,1.600000*%
%ADD12O,1.600000X1.600000*%
%ADD13RoundRect,0.250001X-0.799999X-0.799999X0.799999X-0.799999X0.799999X0.799999X-0.799999X0.799999X0*%
%ADD14R,1.700000X1.700000*%
%ADD15C,1.700000*%
%ADD16R,1.600000X1.600000*%
%ADD17C,4.300000*%
%ADD18R,1.800000X1.800000*%
%ADD19O,1.800000X1.800000*%
%ADD20RoundRect,0.250001X-0.799999X0.799999X-0.799999X-0.799999X0.799999X-0.799999X0.799999X0.799999X0*%
%ADD21O,1.100000X1.700000*%
G04 APERTURE END LIST*
D10*
%TO.C,SW7*%
X152000000Y-70000000D03*
X158000000Y-70000000D03*
%TD*%
D11*
%TO.C,R34*%
X130840000Y-75500000D03*
D12*
X141000000Y-75500000D03*
%TD*%
D11*
%TO.C,R6*%
X120500000Y-99500000D03*
D12*
X110340000Y-99500000D03*
%TD*%
D10*
%TO.C,SW3*%
X52000000Y-80000000D03*
X58000000Y-80000000D03*
%TD*%
D13*
%TO.C,J5*%
X63500000Y-53500000D03*
%TD*%
D11*
%TO.C,R24*%
X99000000Y-54500000D03*
D12*
X88840000Y-54500000D03*
%TD*%
D11*
%TO.C,FB1*%
X100000000Y-104000000D03*
X105000000Y-104000000D03*
%TD*%
D10*
%TO.C,SW10*%
X177500000Y-106500000D03*
X183500000Y-106500000D03*
%TD*%
D11*
%TO.C,R12*%
X130840000Y-57500000D03*
D12*
X141000000Y-57500000D03*
%TD*%
D11*
%TO.C,R27*%
X99000000Y-93500000D03*
D12*
X88840000Y-93500000D03*
%TD*%
D11*
%TO.C,R10*%
X130840000Y-51500000D03*
D12*
X141000000Y-51500000D03*
%TD*%
D14*
%TO.C,U7*%
X117669500Y-71719500D03*
D15*
X120209500Y-71719500D03*
X122749500Y-71719500D03*
X125289500Y-71719500D03*
X127829500Y-71719500D03*
X127829500Y-56479500D03*
X125289500Y-56479500D03*
X122749500Y-56479500D03*
X120209500Y-56479500D03*
X117669500Y-56479500D03*
%TD*%
D11*
%TO.C,R7*%
X75500000Y-101000000D03*
D12*
X65340000Y-101000000D03*
%TD*%
D14*
%TO.C,U1*%
X71880000Y-43040000D03*
D15*
X71880000Y-40500000D03*
X74420000Y-43040000D03*
X74420000Y-40500000D03*
X76960000Y-43040000D03*
X76960000Y-40500000D03*
X79500000Y-43040000D03*
X79500000Y-40500000D03*
%TD*%
D11*
%TO.C,R33*%
X99000000Y-75500000D03*
D12*
X88840000Y-75500000D03*
%TD*%
D11*
%TO.C,R3*%
X46340000Y-72000000D03*
D12*
X56500000Y-72000000D03*
%TD*%
D14*
%TO.C,U10*%
X117669500Y-93519500D03*
D15*
X120209500Y-93519500D03*
X122749500Y-93519500D03*
X125289500Y-93519500D03*
X127829500Y-93519500D03*
X127829500Y-78279500D03*
X125289500Y-78279500D03*
X122749500Y-78279500D03*
X120209500Y-78279500D03*
X117669500Y-78279500D03*
%TD*%
D13*
%TO.C,J1*%
X63500000Y-47500000D03*
%TD*%
D16*
%TO.C,U3*%
X145500000Y-46760000D03*
D12*
X145500000Y-49300000D03*
X145500000Y-51840000D03*
X145500000Y-54380000D03*
X145500000Y-56920000D03*
X145500000Y-59460000D03*
X145500000Y-62000000D03*
X145500000Y-64540000D03*
X153120000Y-64540000D03*
X153120000Y-62000000D03*
X153120000Y-59460000D03*
X153120000Y-56920000D03*
X153120000Y-54380000D03*
X153120000Y-51840000D03*
X153120000Y-49300000D03*
X153120000Y-46760000D03*
%TD*%
D11*
%TO.C,R29*%
X99000000Y-87500000D03*
D12*
X88840000Y-87500000D03*
%TD*%
D16*
%TO.C,A1*%
X170580000Y-95260000D03*
D12*
X168040000Y-95260000D03*
X165500000Y-95260000D03*
X162960000Y-95260000D03*
X160420000Y-95260000D03*
X157880000Y-95260000D03*
X155340000Y-95260000D03*
X152800000Y-95260000D03*
X150260000Y-95260000D03*
X147720000Y-95260000D03*
X145180000Y-95260000D03*
X142640000Y-95260000D03*
X140100000Y-95260000D03*
X137560000Y-95260000D03*
X135020000Y-95260000D03*
X135020000Y-110500000D03*
X137560000Y-110500000D03*
X140100000Y-110500000D03*
X142640000Y-110500000D03*
X145180000Y-110500000D03*
X147720000Y-110500000D03*
X150260000Y-110500000D03*
X152800000Y-110500000D03*
X155340000Y-110500000D03*
X157880000Y-110500000D03*
X160420000Y-110500000D03*
X162960000Y-110500000D03*
X165500000Y-110500000D03*
X168040000Y-110500000D03*
X170580000Y-110500000D03*
%TD*%
D11*
%TO.C,C2*%
X156000000Y-47500000D03*
X161000000Y-47500000D03*
%TD*%
%TO.C,R13*%
X130840000Y-60500000D03*
D12*
X141000000Y-60500000D03*
%TD*%
D17*
%TO.C,H1*%
X50000000Y-50000000D03*
%TD*%
D16*
%TO.C,C1*%
X162500000Y-57500000D03*
D11*
X164500000Y-57500000D03*
%TD*%
D10*
%TO.C,SW9*%
X172000000Y-85000000D03*
X178000000Y-85000000D03*
%TD*%
D18*
%TO.C,D5*%
X68455000Y-48500000D03*
D19*
X70995000Y-48500000D03*
%TD*%
D11*
%TO.C,R19*%
X99000000Y-69500000D03*
D12*
X88840000Y-69500000D03*
%TD*%
D10*
%TO.C,SW6*%
X172000000Y-70000000D03*
X178000000Y-70000000D03*
%TD*%
D11*
%TO.C,R1*%
X46340000Y-60400000D03*
D12*
X56500000Y-60400000D03*
%TD*%
D11*
%TO.C,R28*%
X99000000Y-90500000D03*
D12*
X88840000Y-90500000D03*
%TD*%
D11*
%TO.C,R39*%
X130840000Y-90500000D03*
D12*
X141000000Y-90500000D03*
%TD*%
D11*
%TO.C,R9*%
X68000000Y-52420000D03*
D12*
X68000000Y-62580000D03*
%TD*%
D10*
%TO.C,SW2*%
X62000000Y-70000000D03*
X68000000Y-70000000D03*
%TD*%
D11*
%TO.C,R26*%
X99000000Y-96500000D03*
D12*
X88840000Y-96500000D03*
%TD*%
D17*
%TO.C,H2*%
X180000000Y-50000000D03*
%TD*%
D11*
%TO.C,R15*%
X130840000Y-66500000D03*
D12*
X141000000Y-66500000D03*
%TD*%
D11*
%TO.C,R38*%
X130840000Y-87500000D03*
D12*
X141000000Y-87500000D03*
%TD*%
D11*
%TO.C,R16*%
X130840000Y-69500000D03*
D12*
X141000000Y-69500000D03*
%TD*%
D11*
%TO.C,R5*%
X74340000Y-52550000D03*
D12*
X84500000Y-52550000D03*
%TD*%
D11*
%TO.C,R36*%
X130840000Y-81500000D03*
D12*
X141000000Y-81500000D03*
%TD*%
D11*
%TO.C,R22*%
X99000000Y-60500000D03*
D12*
X88840000Y-60500000D03*
%TD*%
D17*
%TO.C,H3*%
X50000000Y-95000000D03*
%TD*%
D16*
%TO.C,C3*%
X112000000Y-51000000D03*
D11*
X114000000Y-51000000D03*
%TD*%
D16*
%TO.C,U5*%
X86120000Y-103200000D03*
D12*
X86120000Y-100660000D03*
X86120000Y-98120000D03*
X86120000Y-95580000D03*
X86120000Y-93040000D03*
X86120000Y-90500000D03*
X86120000Y-87960000D03*
X86120000Y-85420000D03*
X78500000Y-85420000D03*
X78500000Y-87960000D03*
X78500000Y-90500000D03*
X78500000Y-93040000D03*
X78500000Y-95580000D03*
X78500000Y-98120000D03*
X78500000Y-100660000D03*
X78500000Y-103200000D03*
%TD*%
D11*
%TO.C,R2*%
X46340000Y-66000000D03*
D12*
X56500000Y-66000000D03*
%TD*%
D11*
%TO.C,R23*%
X99000000Y-57500000D03*
D12*
X88840000Y-57500000D03*
%TD*%
D20*
%TO.C,J3*%
X117500000Y-50000000D03*
%TD*%
D11*
%TO.C,R37*%
X130840000Y-84500000D03*
D12*
X141000000Y-84500000D03*
%TD*%
D11*
%TO.C,R40*%
X148000000Y-90160000D03*
D12*
X148000000Y-80000000D03*
%TD*%
D16*
%TO.C,SW1*%
X121880000Y-42500000D03*
D12*
X129500000Y-42500000D03*
%TD*%
D16*
%TO.C,U4*%
X86000000Y-74540000D03*
D12*
X86000000Y-72000000D03*
X86000000Y-69460000D03*
X86000000Y-66920000D03*
X86000000Y-64380000D03*
X86000000Y-61840000D03*
X86000000Y-59300000D03*
X86000000Y-56760000D03*
X78380000Y-56760000D03*
X78380000Y-59300000D03*
X78380000Y-61840000D03*
X78380000Y-64380000D03*
X78380000Y-66920000D03*
X78380000Y-69460000D03*
X78380000Y-72000000D03*
X78380000Y-74540000D03*
%TD*%
D14*
%TO.C,U8*%
X102169500Y-71719500D03*
D15*
X104709500Y-71719500D03*
X107249500Y-71719500D03*
X109789500Y-71719500D03*
X112329500Y-71719500D03*
X112329500Y-56479500D03*
X109789500Y-56479500D03*
X107249500Y-56479500D03*
X104709500Y-56479500D03*
X102169500Y-56479500D03*
%TD*%
D21*
%TO.C,P1*%
X110680000Y-105700000D03*
X110680000Y-109500000D03*
X119320000Y-105700000D03*
X119320000Y-109500000D03*
%TD*%
D16*
%TO.C,U6*%
X161166487Y-68307747D03*
D12*
X161166487Y-70847747D03*
X161166487Y-73387747D03*
X161166487Y-75927747D03*
X161166487Y-78467747D03*
X161166487Y-81007747D03*
X161166487Y-83547747D03*
X161166487Y-86087747D03*
X168786487Y-86087747D03*
X168786487Y-83547747D03*
X168786487Y-81007747D03*
X168786487Y-78467747D03*
X168786487Y-75927747D03*
X168786487Y-73387747D03*
X168786487Y-70847747D03*
X168786487Y-68307747D03*
%TD*%
D18*
%TO.C,D1*%
X124500000Y-106000000D03*
D19*
X124500000Y-108540000D03*
%TD*%
D10*
%TO.C,SW4*%
X62000000Y-90000000D03*
X68000000Y-90000000D03*
%TD*%
D13*
%TO.C,J2*%
X63500000Y-59500000D03*
%TD*%
D11*
%TO.C,R20*%
X99000000Y-66500000D03*
D12*
X88840000Y-66500000D03*
%TD*%
D11*
%TO.C,R35*%
X130840000Y-78500000D03*
D12*
X141000000Y-78500000D03*
%TD*%
D18*
%TO.C,D4*%
X63350000Y-41000000D03*
D19*
X50650000Y-41000000D03*
%TD*%
D11*
%TO.C,R21*%
X99000000Y-63500000D03*
D12*
X88840000Y-63500000D03*
%TD*%
D11*
%TO.C,R32*%
X99000000Y-78500000D03*
D12*
X88840000Y-78500000D03*
%TD*%
D11*
%TO.C,R31*%
X99000000Y-81500000D03*
D12*
X88840000Y-81500000D03*
%TD*%
D11*
%TO.C,R14*%
X130840000Y-63500000D03*
D12*
X141000000Y-63500000D03*
%TD*%
D17*
%TO.C,H4*%
X180000000Y-95000000D03*
%TD*%
D18*
%TO.C,D2*%
X109850000Y-47500000D03*
D19*
X97150000Y-47500000D03*
%TD*%
D11*
%TO.C,R11*%
X130840000Y-54500000D03*
D12*
X141000000Y-54500000D03*
%TD*%
D18*
%TO.C,D3*%
X59500000Y-52150000D03*
D19*
X59500000Y-64850000D03*
%TD*%
D11*
%TO.C,R30*%
X99000000Y-84500000D03*
D12*
X88840000Y-84500000D03*
%TD*%
D11*
%TO.C,R18*%
X99000000Y-72500000D03*
D12*
X88840000Y-72500000D03*
%TD*%
D10*
%TO.C,SW8*%
X152000000Y-85000000D03*
X158000000Y-85000000D03*
%TD*%
%TO.C,SW5*%
X72000000Y-80000000D03*
X78000000Y-80000000D03*
%TD*%
D11*
%TO.C,R41*%
X144000000Y-90160000D03*
D12*
X144000000Y-80000000D03*
%TD*%
D11*
%TO.C,C4*%
X100000000Y-42500000D03*
X105000000Y-42500000D03*
%TD*%
D14*
%TO.C,U9*%
X102169500Y-93519500D03*
D15*
X104709500Y-93519500D03*
X107249500Y-93519500D03*
X109789500Y-93519500D03*
X112329500Y-93519500D03*
X112329500Y-78279500D03*
X109789500Y-78279500D03*
X107249500Y-78279500D03*
X104709500Y-78279500D03*
X102169500Y-78279500D03*
%TD*%
D20*
%TO.C,J6*%
X127500000Y-50000000D03*
%TD*%
D11*
%TO.C,R17*%
X130840000Y-72500000D03*
D12*
X141000000Y-72500000D03*
%TD*%
D11*
%TO.C,R25*%
X99000000Y-51500000D03*
D12*
X88840000Y-51500000D03*
%TD*%
D11*
%TO.C,R8*%
X60420000Y-107500000D03*
D12*
X70580000Y-107500000D03*
%TD*%
D11*
%TO.C,R4*%
X74340000Y-48500000D03*
D12*
X84500000Y-48500000D03*
%TD*%
M02*
