%TF.GenerationSoftware,KiCad,Pcbnew,8.0.3*%
%TF.CreationDate,2024-07-14T00:03:07-05:00*%
%TF.ProjectId,Controller,436f6e74-726f-46c6-9c65-722e6b696361,rev?*%
%TF.SameCoordinates,Original*%
%TF.FileFunction,Legend,Top*%
%TF.FilePolarity,Positive*%
%FSLAX46Y46*%
G04 Gerber Fmt 4.6, Leading zero omitted, Abs format (unit mm)*
G04 Created by KiCad (PCBNEW 8.0.3) date 2024-07-14 00:03:07*
%MOMM*%
%LPD*%
G01*
G04 APERTURE LIST*
G04 Aperture macros list*
%AMRoundRect*
0 Rectangle with rounded corners*
0 $1 Rounding radius*
0 $2 $3 $4 $5 $6 $7 $8 $9 X,Y pos of 4 corners*
0 Add a 4 corners polygon primitive as box body*
4,1,4,$2,$3,$4,$5,$6,$7,$8,$9,$2,$3,0*
0 Add four circle primitives for the rounded corners*
1,1,$1+$1,$2,$3*
1,1,$1+$1,$4,$5*
1,1,$1+$1,$6,$7*
1,1,$1+$1,$8,$9*
0 Add four rect primitives between the rounded corners*
20,1,$1+$1,$2,$3,$4,$5,0*
20,1,$1+$1,$4,$5,$6,$7,0*
20,1,$1+$1,$6,$7,$8,$9,0*
20,1,$1+$1,$8,$9,$2,$3,0*%
G04 Aperture macros list end*
%ADD10C,0.150000*%
%ADD11C,0.120000*%
%ADD12C,2.000000*%
%ADD13C,1.600000*%
%ADD14O,1.600000X1.600000*%
%ADD15RoundRect,0.250001X-0.799999X-0.799999X0.799999X-0.799999X0.799999X0.799999X-0.799999X0.799999X0*%
%ADD16R,1.700000X1.700000*%
%ADD17C,1.700000*%
%ADD18R,1.600000X1.600000*%
%ADD19C,4.300000*%
%ADD20R,1.800000X1.800000*%
%ADD21O,1.800000X1.800000*%
%ADD22RoundRect,0.250001X-0.799999X0.799999X-0.799999X-0.799999X0.799999X-0.799999X0.799999X0.799999X0*%
%ADD23RoundRect,0.175000X-0.175000X-0.425000X0.175000X-0.425000X0.175000X0.425000X-0.175000X0.425000X0*%
%ADD24RoundRect,0.190000X0.190000X0.410000X-0.190000X0.410000X-0.190000X-0.410000X0.190000X-0.410000X0*%
%ADD25RoundRect,0.200000X0.200000X0.400000X-0.200000X0.400000X-0.200000X-0.400000X0.200000X-0.400000X0*%
%ADD26RoundRect,0.175000X0.175000X0.425000X-0.175000X0.425000X-0.175000X-0.425000X0.175000X-0.425000X0*%
%ADD27RoundRect,0.190000X-0.190000X-0.410000X0.190000X-0.410000X0.190000X0.410000X-0.190000X0.410000X0*%
%ADD28RoundRect,0.200000X-0.200000X-0.400000X0.200000X-0.400000X0.200000X0.400000X-0.200000X0.400000X0*%
%ADD29O,1.100000X1.700000*%
%ADD30RoundRect,0.375000X-0.625000X-0.375000X0.625000X-0.375000X0.625000X0.375000X-0.625000X0.375000X0*%
%ADD31RoundRect,0.500000X-0.500000X-1.400000X0.500000X-1.400000X0.500000X1.400000X-0.500000X1.400000X0*%
G04 APERTURE END LIST*
D10*
X155166667Y-66157200D02*
X155309524Y-66204819D01*
X155309524Y-66204819D02*
X155547619Y-66204819D01*
X155547619Y-66204819D02*
X155642857Y-66157200D01*
X155642857Y-66157200D02*
X155690476Y-66109580D01*
X155690476Y-66109580D02*
X155738095Y-66014342D01*
X155738095Y-66014342D02*
X155738095Y-65919104D01*
X155738095Y-65919104D02*
X155690476Y-65823866D01*
X155690476Y-65823866D02*
X155642857Y-65776247D01*
X155642857Y-65776247D02*
X155547619Y-65728628D01*
X155547619Y-65728628D02*
X155357143Y-65681009D01*
X155357143Y-65681009D02*
X155261905Y-65633390D01*
X155261905Y-65633390D02*
X155214286Y-65585771D01*
X155214286Y-65585771D02*
X155166667Y-65490533D01*
X155166667Y-65490533D02*
X155166667Y-65395295D01*
X155166667Y-65395295D02*
X155214286Y-65300057D01*
X155214286Y-65300057D02*
X155261905Y-65252438D01*
X155261905Y-65252438D02*
X155357143Y-65204819D01*
X155357143Y-65204819D02*
X155595238Y-65204819D01*
X155595238Y-65204819D02*
X155738095Y-65252438D01*
X156071429Y-65204819D02*
X156309524Y-66204819D01*
X156309524Y-66204819D02*
X156500000Y-65490533D01*
X156500000Y-65490533D02*
X156690476Y-66204819D01*
X156690476Y-66204819D02*
X156928572Y-65204819D01*
X157214286Y-65204819D02*
X157880952Y-65204819D01*
X157880952Y-65204819D02*
X157452381Y-66204819D01*
X135277142Y-75954819D02*
X134943809Y-75478628D01*
X134705714Y-75954819D02*
X134705714Y-74954819D01*
X134705714Y-74954819D02*
X135086666Y-74954819D01*
X135086666Y-74954819D02*
X135181904Y-75002438D01*
X135181904Y-75002438D02*
X135229523Y-75050057D01*
X135229523Y-75050057D02*
X135277142Y-75145295D01*
X135277142Y-75145295D02*
X135277142Y-75288152D01*
X135277142Y-75288152D02*
X135229523Y-75383390D01*
X135229523Y-75383390D02*
X135181904Y-75431009D01*
X135181904Y-75431009D02*
X135086666Y-75478628D01*
X135086666Y-75478628D02*
X134705714Y-75478628D01*
X135610476Y-74954819D02*
X136229523Y-74954819D01*
X136229523Y-74954819D02*
X135896190Y-75335771D01*
X135896190Y-75335771D02*
X136039047Y-75335771D01*
X136039047Y-75335771D02*
X136134285Y-75383390D01*
X136134285Y-75383390D02*
X136181904Y-75431009D01*
X136181904Y-75431009D02*
X136229523Y-75526247D01*
X136229523Y-75526247D02*
X136229523Y-75764342D01*
X136229523Y-75764342D02*
X136181904Y-75859580D01*
X136181904Y-75859580D02*
X136134285Y-75907200D01*
X136134285Y-75907200D02*
X136039047Y-75954819D01*
X136039047Y-75954819D02*
X135753333Y-75954819D01*
X135753333Y-75954819D02*
X135658095Y-75907200D01*
X135658095Y-75907200D02*
X135610476Y-75859580D01*
X137086666Y-75288152D02*
X137086666Y-75954819D01*
X136848571Y-74907200D02*
X136610476Y-75621485D01*
X136610476Y-75621485D02*
X137229523Y-75621485D01*
X115413333Y-97584819D02*
X115080000Y-97108628D01*
X114841905Y-97584819D02*
X114841905Y-96584819D01*
X114841905Y-96584819D02*
X115222857Y-96584819D01*
X115222857Y-96584819D02*
X115318095Y-96632438D01*
X115318095Y-96632438D02*
X115365714Y-96680057D01*
X115365714Y-96680057D02*
X115413333Y-96775295D01*
X115413333Y-96775295D02*
X115413333Y-96918152D01*
X115413333Y-96918152D02*
X115365714Y-97013390D01*
X115365714Y-97013390D02*
X115318095Y-97061009D01*
X115318095Y-97061009D02*
X115222857Y-97108628D01*
X115222857Y-97108628D02*
X114841905Y-97108628D01*
X116270476Y-96584819D02*
X116080000Y-96584819D01*
X116080000Y-96584819D02*
X115984762Y-96632438D01*
X115984762Y-96632438D02*
X115937143Y-96680057D01*
X115937143Y-96680057D02*
X115841905Y-96822914D01*
X115841905Y-96822914D02*
X115794286Y-97013390D01*
X115794286Y-97013390D02*
X115794286Y-97394342D01*
X115794286Y-97394342D02*
X115841905Y-97489580D01*
X115841905Y-97489580D02*
X115889524Y-97537200D01*
X115889524Y-97537200D02*
X115984762Y-97584819D01*
X115984762Y-97584819D02*
X116175238Y-97584819D01*
X116175238Y-97584819D02*
X116270476Y-97537200D01*
X116270476Y-97537200D02*
X116318095Y-97489580D01*
X116318095Y-97489580D02*
X116365714Y-97394342D01*
X116365714Y-97394342D02*
X116365714Y-97156247D01*
X116365714Y-97156247D02*
X116318095Y-97061009D01*
X116318095Y-97061009D02*
X116270476Y-97013390D01*
X116270476Y-97013390D02*
X116175238Y-96965771D01*
X116175238Y-96965771D02*
X115984762Y-96965771D01*
X115984762Y-96965771D02*
X115889524Y-97013390D01*
X115889524Y-97013390D02*
X115841905Y-97061009D01*
X115841905Y-97061009D02*
X115794286Y-97156247D01*
X53916667Y-76157200D02*
X54059524Y-76204819D01*
X54059524Y-76204819D02*
X54297619Y-76204819D01*
X54297619Y-76204819D02*
X54392857Y-76157200D01*
X54392857Y-76157200D02*
X54440476Y-76109580D01*
X54440476Y-76109580D02*
X54488095Y-76014342D01*
X54488095Y-76014342D02*
X54488095Y-75919104D01*
X54488095Y-75919104D02*
X54440476Y-75823866D01*
X54440476Y-75823866D02*
X54392857Y-75776247D01*
X54392857Y-75776247D02*
X54297619Y-75728628D01*
X54297619Y-75728628D02*
X54107143Y-75681009D01*
X54107143Y-75681009D02*
X54011905Y-75633390D01*
X54011905Y-75633390D02*
X53964286Y-75585771D01*
X53964286Y-75585771D02*
X53916667Y-75490533D01*
X53916667Y-75490533D02*
X53916667Y-75395295D01*
X53916667Y-75395295D02*
X53964286Y-75300057D01*
X53964286Y-75300057D02*
X54011905Y-75252438D01*
X54011905Y-75252438D02*
X54107143Y-75204819D01*
X54107143Y-75204819D02*
X54345238Y-75204819D01*
X54345238Y-75204819D02*
X54488095Y-75252438D01*
X54821429Y-75204819D02*
X55059524Y-76204819D01*
X55059524Y-76204819D02*
X55250000Y-75490533D01*
X55250000Y-75490533D02*
X55440476Y-76204819D01*
X55440476Y-76204819D02*
X55678572Y-75204819D01*
X55964286Y-75204819D02*
X56583333Y-75204819D01*
X56583333Y-75204819D02*
X56250000Y-75585771D01*
X56250000Y-75585771D02*
X56392857Y-75585771D01*
X56392857Y-75585771D02*
X56488095Y-75633390D01*
X56488095Y-75633390D02*
X56535714Y-75681009D01*
X56535714Y-75681009D02*
X56583333Y-75776247D01*
X56583333Y-75776247D02*
X56583333Y-76014342D01*
X56583333Y-76014342D02*
X56535714Y-76109580D01*
X56535714Y-76109580D02*
X56488095Y-76157200D01*
X56488095Y-76157200D02*
X56392857Y-76204819D01*
X56392857Y-76204819D02*
X56107143Y-76204819D01*
X56107143Y-76204819D02*
X56011905Y-76157200D01*
X56011905Y-76157200D02*
X55964286Y-76109580D01*
X63166666Y-54954819D02*
X63166666Y-55669104D01*
X63166666Y-55669104D02*
X63119047Y-55811961D01*
X63119047Y-55811961D02*
X63023809Y-55907200D01*
X63023809Y-55907200D02*
X62880952Y-55954819D01*
X62880952Y-55954819D02*
X62785714Y-55954819D01*
X64119047Y-54954819D02*
X63642857Y-54954819D01*
X63642857Y-54954819D02*
X63595238Y-55431009D01*
X63595238Y-55431009D02*
X63642857Y-55383390D01*
X63642857Y-55383390D02*
X63738095Y-55335771D01*
X63738095Y-55335771D02*
X63976190Y-55335771D01*
X63976190Y-55335771D02*
X64071428Y-55383390D01*
X64071428Y-55383390D02*
X64119047Y-55431009D01*
X64119047Y-55431009D02*
X64166666Y-55526247D01*
X64166666Y-55526247D02*
X64166666Y-55764342D01*
X64166666Y-55764342D02*
X64119047Y-55859580D01*
X64119047Y-55859580D02*
X64071428Y-55907200D01*
X64071428Y-55907200D02*
X63976190Y-55954819D01*
X63976190Y-55954819D02*
X63738095Y-55954819D01*
X63738095Y-55954819D02*
X63642857Y-55907200D01*
X63642857Y-55907200D02*
X63595238Y-55859580D01*
X93277143Y-54959051D02*
X92943810Y-54482860D01*
X92705715Y-54959051D02*
X92705715Y-53959051D01*
X92705715Y-53959051D02*
X93086667Y-53959051D01*
X93086667Y-53959051D02*
X93181905Y-54006670D01*
X93181905Y-54006670D02*
X93229524Y-54054289D01*
X93229524Y-54054289D02*
X93277143Y-54149527D01*
X93277143Y-54149527D02*
X93277143Y-54292384D01*
X93277143Y-54292384D02*
X93229524Y-54387622D01*
X93229524Y-54387622D02*
X93181905Y-54435241D01*
X93181905Y-54435241D02*
X93086667Y-54482860D01*
X93086667Y-54482860D02*
X92705715Y-54482860D01*
X93658096Y-54054289D02*
X93705715Y-54006670D01*
X93705715Y-54006670D02*
X93800953Y-53959051D01*
X93800953Y-53959051D02*
X94039048Y-53959051D01*
X94039048Y-53959051D02*
X94134286Y-54006670D01*
X94134286Y-54006670D02*
X94181905Y-54054289D01*
X94181905Y-54054289D02*
X94229524Y-54149527D01*
X94229524Y-54149527D02*
X94229524Y-54244765D01*
X94229524Y-54244765D02*
X94181905Y-54387622D01*
X94181905Y-54387622D02*
X93610477Y-54959051D01*
X93610477Y-54959051D02*
X94229524Y-54959051D01*
X95086667Y-54292384D02*
X95086667Y-54959051D01*
X94848572Y-53911432D02*
X94610477Y-54625717D01*
X94610477Y-54625717D02*
X95229524Y-54625717D01*
X101666666Y-101431009D02*
X101333333Y-101431009D01*
X101333333Y-101954819D02*
X101333333Y-100954819D01*
X101333333Y-100954819D02*
X101809523Y-100954819D01*
X102523809Y-101431009D02*
X102666666Y-101478628D01*
X102666666Y-101478628D02*
X102714285Y-101526247D01*
X102714285Y-101526247D02*
X102761904Y-101621485D01*
X102761904Y-101621485D02*
X102761904Y-101764342D01*
X102761904Y-101764342D02*
X102714285Y-101859580D01*
X102714285Y-101859580D02*
X102666666Y-101907200D01*
X102666666Y-101907200D02*
X102571428Y-101954819D01*
X102571428Y-101954819D02*
X102190476Y-101954819D01*
X102190476Y-101954819D02*
X102190476Y-100954819D01*
X102190476Y-100954819D02*
X102523809Y-100954819D01*
X102523809Y-100954819D02*
X102619047Y-101002438D01*
X102619047Y-101002438D02*
X102666666Y-101050057D01*
X102666666Y-101050057D02*
X102714285Y-101145295D01*
X102714285Y-101145295D02*
X102714285Y-101240533D01*
X102714285Y-101240533D02*
X102666666Y-101335771D01*
X102666666Y-101335771D02*
X102619047Y-101383390D01*
X102619047Y-101383390D02*
X102523809Y-101431009D01*
X102523809Y-101431009D02*
X102190476Y-101431009D01*
X103714285Y-101954819D02*
X103142857Y-101954819D01*
X103428571Y-101954819D02*
X103428571Y-100954819D01*
X103428571Y-100954819D02*
X103333333Y-101097676D01*
X103333333Y-101097676D02*
X103238095Y-101192914D01*
X103238095Y-101192914D02*
X103142857Y-101240533D01*
X178940476Y-102657200D02*
X179083333Y-102704819D01*
X179083333Y-102704819D02*
X179321428Y-102704819D01*
X179321428Y-102704819D02*
X179416666Y-102657200D01*
X179416666Y-102657200D02*
X179464285Y-102609580D01*
X179464285Y-102609580D02*
X179511904Y-102514342D01*
X179511904Y-102514342D02*
X179511904Y-102419104D01*
X179511904Y-102419104D02*
X179464285Y-102323866D01*
X179464285Y-102323866D02*
X179416666Y-102276247D01*
X179416666Y-102276247D02*
X179321428Y-102228628D01*
X179321428Y-102228628D02*
X179130952Y-102181009D01*
X179130952Y-102181009D02*
X179035714Y-102133390D01*
X179035714Y-102133390D02*
X178988095Y-102085771D01*
X178988095Y-102085771D02*
X178940476Y-101990533D01*
X178940476Y-101990533D02*
X178940476Y-101895295D01*
X178940476Y-101895295D02*
X178988095Y-101800057D01*
X178988095Y-101800057D02*
X179035714Y-101752438D01*
X179035714Y-101752438D02*
X179130952Y-101704819D01*
X179130952Y-101704819D02*
X179369047Y-101704819D01*
X179369047Y-101704819D02*
X179511904Y-101752438D01*
X179845238Y-101704819D02*
X180083333Y-102704819D01*
X180083333Y-102704819D02*
X180273809Y-101990533D01*
X180273809Y-101990533D02*
X180464285Y-102704819D01*
X180464285Y-102704819D02*
X180702381Y-101704819D01*
X181607142Y-102704819D02*
X181035714Y-102704819D01*
X181321428Y-102704819D02*
X181321428Y-101704819D01*
X181321428Y-101704819D02*
X181226190Y-101847676D01*
X181226190Y-101847676D02*
X181130952Y-101942914D01*
X181130952Y-101942914D02*
X181035714Y-101990533D01*
X182226190Y-101704819D02*
X182321428Y-101704819D01*
X182321428Y-101704819D02*
X182416666Y-101752438D01*
X182416666Y-101752438D02*
X182464285Y-101800057D01*
X182464285Y-101800057D02*
X182511904Y-101895295D01*
X182511904Y-101895295D02*
X182559523Y-102085771D01*
X182559523Y-102085771D02*
X182559523Y-102323866D01*
X182559523Y-102323866D02*
X182511904Y-102514342D01*
X182511904Y-102514342D02*
X182464285Y-102609580D01*
X182464285Y-102609580D02*
X182416666Y-102657200D01*
X182416666Y-102657200D02*
X182321428Y-102704819D01*
X182321428Y-102704819D02*
X182226190Y-102704819D01*
X182226190Y-102704819D02*
X182130952Y-102657200D01*
X182130952Y-102657200D02*
X182083333Y-102609580D01*
X182083333Y-102609580D02*
X182035714Y-102514342D01*
X182035714Y-102514342D02*
X181988095Y-102323866D01*
X181988095Y-102323866D02*
X181988095Y-102085771D01*
X181988095Y-102085771D02*
X182035714Y-101895295D01*
X182035714Y-101895295D02*
X182083333Y-101800057D01*
X182083333Y-101800057D02*
X182130952Y-101752438D01*
X182130952Y-101752438D02*
X182226190Y-101704819D01*
X135277142Y-57954819D02*
X134943809Y-57478628D01*
X134705714Y-57954819D02*
X134705714Y-56954819D01*
X134705714Y-56954819D02*
X135086666Y-56954819D01*
X135086666Y-56954819D02*
X135181904Y-57002438D01*
X135181904Y-57002438D02*
X135229523Y-57050057D01*
X135229523Y-57050057D02*
X135277142Y-57145295D01*
X135277142Y-57145295D02*
X135277142Y-57288152D01*
X135277142Y-57288152D02*
X135229523Y-57383390D01*
X135229523Y-57383390D02*
X135181904Y-57431009D01*
X135181904Y-57431009D02*
X135086666Y-57478628D01*
X135086666Y-57478628D02*
X134705714Y-57478628D01*
X136229523Y-57954819D02*
X135658095Y-57954819D01*
X135943809Y-57954819D02*
X135943809Y-56954819D01*
X135943809Y-56954819D02*
X135848571Y-57097676D01*
X135848571Y-57097676D02*
X135753333Y-57192914D01*
X135753333Y-57192914D02*
X135658095Y-57240533D01*
X136610476Y-57050057D02*
X136658095Y-57002438D01*
X136658095Y-57002438D02*
X136753333Y-56954819D01*
X136753333Y-56954819D02*
X136991428Y-56954819D01*
X136991428Y-56954819D02*
X137086666Y-57002438D01*
X137086666Y-57002438D02*
X137134285Y-57050057D01*
X137134285Y-57050057D02*
X137181904Y-57145295D01*
X137181904Y-57145295D02*
X137181904Y-57240533D01*
X137181904Y-57240533D02*
X137134285Y-57383390D01*
X137134285Y-57383390D02*
X136562857Y-57954819D01*
X136562857Y-57954819D02*
X137181904Y-57954819D01*
X93277142Y-93954819D02*
X92943809Y-93478628D01*
X92705714Y-93954819D02*
X92705714Y-92954819D01*
X92705714Y-92954819D02*
X93086666Y-92954819D01*
X93086666Y-92954819D02*
X93181904Y-93002438D01*
X93181904Y-93002438D02*
X93229523Y-93050057D01*
X93229523Y-93050057D02*
X93277142Y-93145295D01*
X93277142Y-93145295D02*
X93277142Y-93288152D01*
X93277142Y-93288152D02*
X93229523Y-93383390D01*
X93229523Y-93383390D02*
X93181904Y-93431009D01*
X93181904Y-93431009D02*
X93086666Y-93478628D01*
X93086666Y-93478628D02*
X92705714Y-93478628D01*
X93658095Y-93050057D02*
X93705714Y-93002438D01*
X93705714Y-93002438D02*
X93800952Y-92954819D01*
X93800952Y-92954819D02*
X94039047Y-92954819D01*
X94039047Y-92954819D02*
X94134285Y-93002438D01*
X94134285Y-93002438D02*
X94181904Y-93050057D01*
X94181904Y-93050057D02*
X94229523Y-93145295D01*
X94229523Y-93145295D02*
X94229523Y-93240533D01*
X94229523Y-93240533D02*
X94181904Y-93383390D01*
X94181904Y-93383390D02*
X93610476Y-93954819D01*
X93610476Y-93954819D02*
X94229523Y-93954819D01*
X94562857Y-92954819D02*
X95229523Y-92954819D01*
X95229523Y-92954819D02*
X94800952Y-93954819D01*
X135277142Y-51954819D02*
X134943809Y-51478628D01*
X134705714Y-51954819D02*
X134705714Y-50954819D01*
X134705714Y-50954819D02*
X135086666Y-50954819D01*
X135086666Y-50954819D02*
X135181904Y-51002438D01*
X135181904Y-51002438D02*
X135229523Y-51050057D01*
X135229523Y-51050057D02*
X135277142Y-51145295D01*
X135277142Y-51145295D02*
X135277142Y-51288152D01*
X135277142Y-51288152D02*
X135229523Y-51383390D01*
X135229523Y-51383390D02*
X135181904Y-51431009D01*
X135181904Y-51431009D02*
X135086666Y-51478628D01*
X135086666Y-51478628D02*
X134705714Y-51478628D01*
X136229523Y-51954819D02*
X135658095Y-51954819D01*
X135943809Y-51954819D02*
X135943809Y-50954819D01*
X135943809Y-50954819D02*
X135848571Y-51097676D01*
X135848571Y-51097676D02*
X135753333Y-51192914D01*
X135753333Y-51192914D02*
X135658095Y-51240533D01*
X136848571Y-50954819D02*
X136943809Y-50954819D01*
X136943809Y-50954819D02*
X137039047Y-51002438D01*
X137039047Y-51002438D02*
X137086666Y-51050057D01*
X137086666Y-51050057D02*
X137134285Y-51145295D01*
X137134285Y-51145295D02*
X137181904Y-51335771D01*
X137181904Y-51335771D02*
X137181904Y-51573866D01*
X137181904Y-51573866D02*
X137134285Y-51764342D01*
X137134285Y-51764342D02*
X137086666Y-51859580D01*
X137086666Y-51859580D02*
X137039047Y-51907200D01*
X137039047Y-51907200D02*
X136943809Y-51954819D01*
X136943809Y-51954819D02*
X136848571Y-51954819D01*
X136848571Y-51954819D02*
X136753333Y-51907200D01*
X136753333Y-51907200D02*
X136705714Y-51859580D01*
X136705714Y-51859580D02*
X136658095Y-51764342D01*
X136658095Y-51764342D02*
X136610476Y-51573866D01*
X136610476Y-51573866D02*
X136610476Y-51335771D01*
X136610476Y-51335771D02*
X136658095Y-51145295D01*
X136658095Y-51145295D02*
X136705714Y-51050057D01*
X136705714Y-51050057D02*
X136753333Y-51002438D01*
X136753333Y-51002438D02*
X136848571Y-50954819D01*
X122317595Y-52774319D02*
X122317595Y-53583842D01*
X122317595Y-53583842D02*
X122365214Y-53679080D01*
X122365214Y-53679080D02*
X122412833Y-53726700D01*
X122412833Y-53726700D02*
X122508071Y-53774319D01*
X122508071Y-53774319D02*
X122698547Y-53774319D01*
X122698547Y-53774319D02*
X122793785Y-53726700D01*
X122793785Y-53726700D02*
X122841404Y-53679080D01*
X122841404Y-53679080D02*
X122889023Y-53583842D01*
X122889023Y-53583842D02*
X122889023Y-52774319D01*
X123269976Y-52774319D02*
X123936642Y-52774319D01*
X123936642Y-52774319D02*
X123508071Y-53774319D01*
X70253333Y-103824819D02*
X69920000Y-103348628D01*
X69681905Y-103824819D02*
X69681905Y-102824819D01*
X69681905Y-102824819D02*
X70062857Y-102824819D01*
X70062857Y-102824819D02*
X70158095Y-102872438D01*
X70158095Y-102872438D02*
X70205714Y-102920057D01*
X70205714Y-102920057D02*
X70253333Y-103015295D01*
X70253333Y-103015295D02*
X70253333Y-103158152D01*
X70253333Y-103158152D02*
X70205714Y-103253390D01*
X70205714Y-103253390D02*
X70158095Y-103301009D01*
X70158095Y-103301009D02*
X70062857Y-103348628D01*
X70062857Y-103348628D02*
X69681905Y-103348628D01*
X70586667Y-102824819D02*
X71253333Y-102824819D01*
X71253333Y-102824819D02*
X70824762Y-103824819D01*
X65238095Y-41954819D02*
X65238095Y-42764342D01*
X65238095Y-42764342D02*
X65285714Y-42859580D01*
X65285714Y-42859580D02*
X65333333Y-42907200D01*
X65333333Y-42907200D02*
X65428571Y-42954819D01*
X65428571Y-42954819D02*
X65619047Y-42954819D01*
X65619047Y-42954819D02*
X65714285Y-42907200D01*
X65714285Y-42907200D02*
X65761904Y-42859580D01*
X65761904Y-42859580D02*
X65809523Y-42764342D01*
X65809523Y-42764342D02*
X65809523Y-41954819D01*
X66809523Y-42954819D02*
X66238095Y-42954819D01*
X66523809Y-42954819D02*
X66523809Y-41954819D01*
X66523809Y-41954819D02*
X66428571Y-42097676D01*
X66428571Y-42097676D02*
X66333333Y-42192914D01*
X66333333Y-42192914D02*
X66238095Y-42240533D01*
X93277142Y-75954819D02*
X92943809Y-75478628D01*
X92705714Y-75954819D02*
X92705714Y-74954819D01*
X92705714Y-74954819D02*
X93086666Y-74954819D01*
X93086666Y-74954819D02*
X93181904Y-75002438D01*
X93181904Y-75002438D02*
X93229523Y-75050057D01*
X93229523Y-75050057D02*
X93277142Y-75145295D01*
X93277142Y-75145295D02*
X93277142Y-75288152D01*
X93277142Y-75288152D02*
X93229523Y-75383390D01*
X93229523Y-75383390D02*
X93181904Y-75431009D01*
X93181904Y-75431009D02*
X93086666Y-75478628D01*
X93086666Y-75478628D02*
X92705714Y-75478628D01*
X93610476Y-74954819D02*
X94229523Y-74954819D01*
X94229523Y-74954819D02*
X93896190Y-75335771D01*
X93896190Y-75335771D02*
X94039047Y-75335771D01*
X94039047Y-75335771D02*
X94134285Y-75383390D01*
X94134285Y-75383390D02*
X94181904Y-75431009D01*
X94181904Y-75431009D02*
X94229523Y-75526247D01*
X94229523Y-75526247D02*
X94229523Y-75764342D01*
X94229523Y-75764342D02*
X94181904Y-75859580D01*
X94181904Y-75859580D02*
X94134285Y-75907200D01*
X94134285Y-75907200D02*
X94039047Y-75954819D01*
X94039047Y-75954819D02*
X93753333Y-75954819D01*
X93753333Y-75954819D02*
X93658095Y-75907200D01*
X93658095Y-75907200D02*
X93610476Y-75859580D01*
X94562857Y-74954819D02*
X95181904Y-74954819D01*
X95181904Y-74954819D02*
X94848571Y-75335771D01*
X94848571Y-75335771D02*
X94991428Y-75335771D01*
X94991428Y-75335771D02*
X95086666Y-75383390D01*
X95086666Y-75383390D02*
X95134285Y-75431009D01*
X95134285Y-75431009D02*
X95181904Y-75526247D01*
X95181904Y-75526247D02*
X95181904Y-75764342D01*
X95181904Y-75764342D02*
X95134285Y-75859580D01*
X95134285Y-75859580D02*
X95086666Y-75907200D01*
X95086666Y-75907200D02*
X94991428Y-75954819D01*
X94991428Y-75954819D02*
X94705714Y-75954819D01*
X94705714Y-75954819D02*
X94610476Y-75907200D01*
X94610476Y-75907200D02*
X94562857Y-75859580D01*
X51253333Y-70084819D02*
X50920000Y-69608628D01*
X50681905Y-70084819D02*
X50681905Y-69084819D01*
X50681905Y-69084819D02*
X51062857Y-69084819D01*
X51062857Y-69084819D02*
X51158095Y-69132438D01*
X51158095Y-69132438D02*
X51205714Y-69180057D01*
X51205714Y-69180057D02*
X51253333Y-69275295D01*
X51253333Y-69275295D02*
X51253333Y-69418152D01*
X51253333Y-69418152D02*
X51205714Y-69513390D01*
X51205714Y-69513390D02*
X51158095Y-69561009D01*
X51158095Y-69561009D02*
X51062857Y-69608628D01*
X51062857Y-69608628D02*
X50681905Y-69608628D01*
X51586667Y-69084819D02*
X52205714Y-69084819D01*
X52205714Y-69084819D02*
X51872381Y-69465771D01*
X51872381Y-69465771D02*
X52015238Y-69465771D01*
X52015238Y-69465771D02*
X52110476Y-69513390D01*
X52110476Y-69513390D02*
X52158095Y-69561009D01*
X52158095Y-69561009D02*
X52205714Y-69656247D01*
X52205714Y-69656247D02*
X52205714Y-69894342D01*
X52205714Y-69894342D02*
X52158095Y-69989580D01*
X52158095Y-69989580D02*
X52110476Y-70037200D01*
X52110476Y-70037200D02*
X52015238Y-70084819D01*
X52015238Y-70084819D02*
X51729524Y-70084819D01*
X51729524Y-70084819D02*
X51634286Y-70037200D01*
X51634286Y-70037200D02*
X51586667Y-69989580D01*
X121761905Y-74954819D02*
X121761905Y-75764342D01*
X121761905Y-75764342D02*
X121809524Y-75859580D01*
X121809524Y-75859580D02*
X121857143Y-75907200D01*
X121857143Y-75907200D02*
X121952381Y-75954819D01*
X121952381Y-75954819D02*
X122142857Y-75954819D01*
X122142857Y-75954819D02*
X122238095Y-75907200D01*
X122238095Y-75907200D02*
X122285714Y-75859580D01*
X122285714Y-75859580D02*
X122333333Y-75764342D01*
X122333333Y-75764342D02*
X122333333Y-74954819D01*
X123333333Y-75954819D02*
X122761905Y-75954819D01*
X123047619Y-75954819D02*
X123047619Y-74954819D01*
X123047619Y-74954819D02*
X122952381Y-75097676D01*
X122952381Y-75097676D02*
X122857143Y-75192914D01*
X122857143Y-75192914D02*
X122761905Y-75240533D01*
X123952381Y-74954819D02*
X124047619Y-74954819D01*
X124047619Y-74954819D02*
X124142857Y-75002438D01*
X124142857Y-75002438D02*
X124190476Y-75050057D01*
X124190476Y-75050057D02*
X124238095Y-75145295D01*
X124238095Y-75145295D02*
X124285714Y-75335771D01*
X124285714Y-75335771D02*
X124285714Y-75573866D01*
X124285714Y-75573866D02*
X124238095Y-75764342D01*
X124238095Y-75764342D02*
X124190476Y-75859580D01*
X124190476Y-75859580D02*
X124142857Y-75907200D01*
X124142857Y-75907200D02*
X124047619Y-75954819D01*
X124047619Y-75954819D02*
X123952381Y-75954819D01*
X123952381Y-75954819D02*
X123857143Y-75907200D01*
X123857143Y-75907200D02*
X123809524Y-75859580D01*
X123809524Y-75859580D02*
X123761905Y-75764342D01*
X123761905Y-75764342D02*
X123714286Y-75573866D01*
X123714286Y-75573866D02*
X123714286Y-75335771D01*
X123714286Y-75335771D02*
X123761905Y-75145295D01*
X123761905Y-75145295D02*
X123809524Y-75050057D01*
X123809524Y-75050057D02*
X123857143Y-75002438D01*
X123857143Y-75002438D02*
X123952381Y-74954819D01*
X63166666Y-44704819D02*
X63166666Y-45419104D01*
X63166666Y-45419104D02*
X63119047Y-45561961D01*
X63119047Y-45561961D02*
X63023809Y-45657200D01*
X63023809Y-45657200D02*
X62880952Y-45704819D01*
X62880952Y-45704819D02*
X62785714Y-45704819D01*
X64166666Y-45704819D02*
X63595238Y-45704819D01*
X63880952Y-45704819D02*
X63880952Y-44704819D01*
X63880952Y-44704819D02*
X63785714Y-44847676D01*
X63785714Y-44847676D02*
X63690476Y-44942914D01*
X63690476Y-44942914D02*
X63595238Y-44990533D01*
X148548095Y-43884819D02*
X148548095Y-44694342D01*
X148548095Y-44694342D02*
X148595714Y-44789580D01*
X148595714Y-44789580D02*
X148643333Y-44837200D01*
X148643333Y-44837200D02*
X148738571Y-44884819D01*
X148738571Y-44884819D02*
X148929047Y-44884819D01*
X148929047Y-44884819D02*
X149024285Y-44837200D01*
X149024285Y-44837200D02*
X149071904Y-44789580D01*
X149071904Y-44789580D02*
X149119523Y-44694342D01*
X149119523Y-44694342D02*
X149119523Y-43884819D01*
X149500476Y-43884819D02*
X150119523Y-43884819D01*
X150119523Y-43884819D02*
X149786190Y-44265771D01*
X149786190Y-44265771D02*
X149929047Y-44265771D01*
X149929047Y-44265771D02*
X150024285Y-44313390D01*
X150024285Y-44313390D02*
X150071904Y-44361009D01*
X150071904Y-44361009D02*
X150119523Y-44456247D01*
X150119523Y-44456247D02*
X150119523Y-44694342D01*
X150119523Y-44694342D02*
X150071904Y-44789580D01*
X150071904Y-44789580D02*
X150024285Y-44837200D01*
X150024285Y-44837200D02*
X149929047Y-44884819D01*
X149929047Y-44884819D02*
X149643333Y-44884819D01*
X149643333Y-44884819D02*
X149548095Y-44837200D01*
X149548095Y-44837200D02*
X149500476Y-44789580D01*
X93277142Y-87954819D02*
X92943809Y-87478628D01*
X92705714Y-87954819D02*
X92705714Y-86954819D01*
X92705714Y-86954819D02*
X93086666Y-86954819D01*
X93086666Y-86954819D02*
X93181904Y-87002438D01*
X93181904Y-87002438D02*
X93229523Y-87050057D01*
X93229523Y-87050057D02*
X93277142Y-87145295D01*
X93277142Y-87145295D02*
X93277142Y-87288152D01*
X93277142Y-87288152D02*
X93229523Y-87383390D01*
X93229523Y-87383390D02*
X93181904Y-87431009D01*
X93181904Y-87431009D02*
X93086666Y-87478628D01*
X93086666Y-87478628D02*
X92705714Y-87478628D01*
X93658095Y-87050057D02*
X93705714Y-87002438D01*
X93705714Y-87002438D02*
X93800952Y-86954819D01*
X93800952Y-86954819D02*
X94039047Y-86954819D01*
X94039047Y-86954819D02*
X94134285Y-87002438D01*
X94134285Y-87002438D02*
X94181904Y-87050057D01*
X94181904Y-87050057D02*
X94229523Y-87145295D01*
X94229523Y-87145295D02*
X94229523Y-87240533D01*
X94229523Y-87240533D02*
X94181904Y-87383390D01*
X94181904Y-87383390D02*
X93610476Y-87954819D01*
X93610476Y-87954819D02*
X94229523Y-87954819D01*
X94705714Y-87954819D02*
X94896190Y-87954819D01*
X94896190Y-87954819D02*
X94991428Y-87907200D01*
X94991428Y-87907200D02*
X95039047Y-87859580D01*
X95039047Y-87859580D02*
X95134285Y-87716723D01*
X95134285Y-87716723D02*
X95181904Y-87526247D01*
X95181904Y-87526247D02*
X95181904Y-87145295D01*
X95181904Y-87145295D02*
X95134285Y-87050057D01*
X95134285Y-87050057D02*
X95086666Y-87002438D01*
X95086666Y-87002438D02*
X94991428Y-86954819D01*
X94991428Y-86954819D02*
X94800952Y-86954819D01*
X94800952Y-86954819D02*
X94705714Y-87002438D01*
X94705714Y-87002438D02*
X94658095Y-87050057D01*
X94658095Y-87050057D02*
X94610476Y-87145295D01*
X94610476Y-87145295D02*
X94610476Y-87383390D01*
X94610476Y-87383390D02*
X94658095Y-87478628D01*
X94658095Y-87478628D02*
X94705714Y-87526247D01*
X94705714Y-87526247D02*
X94800952Y-87573866D01*
X94800952Y-87573866D02*
X94991428Y-87573866D01*
X94991428Y-87573866D02*
X95086666Y-87526247D01*
X95086666Y-87526247D02*
X95134285Y-87478628D01*
X95134285Y-87478628D02*
X95181904Y-87383390D01*
X175829104Y-103594285D02*
X175829104Y-103118095D01*
X176114819Y-103689523D02*
X175114819Y-103356190D01*
X175114819Y-103356190D02*
X176114819Y-103022857D01*
X176114819Y-102165714D02*
X176114819Y-102737142D01*
X176114819Y-102451428D02*
X175114819Y-102451428D01*
X175114819Y-102451428D02*
X175257676Y-102546666D01*
X175257676Y-102546666D02*
X175352914Y-102641904D01*
X175352914Y-102641904D02*
X175400533Y-102737142D01*
X135565180Y-101618095D02*
X134755657Y-101618095D01*
X134755657Y-101618095D02*
X134660419Y-101665714D01*
X134660419Y-101665714D02*
X134612800Y-101713333D01*
X134612800Y-101713333D02*
X134565180Y-101808571D01*
X134565180Y-101808571D02*
X134565180Y-101999047D01*
X134565180Y-101999047D02*
X134612800Y-102094285D01*
X134612800Y-102094285D02*
X134660419Y-102141904D01*
X134660419Y-102141904D02*
X134755657Y-102189523D01*
X134755657Y-102189523D02*
X135565180Y-102189523D01*
X134612800Y-102618095D02*
X134565180Y-102760952D01*
X134565180Y-102760952D02*
X134565180Y-102999047D01*
X134565180Y-102999047D02*
X134612800Y-103094285D01*
X134612800Y-103094285D02*
X134660419Y-103141904D01*
X134660419Y-103141904D02*
X134755657Y-103189523D01*
X134755657Y-103189523D02*
X134850895Y-103189523D01*
X134850895Y-103189523D02*
X134946133Y-103141904D01*
X134946133Y-103141904D02*
X134993752Y-103094285D01*
X134993752Y-103094285D02*
X135041371Y-102999047D01*
X135041371Y-102999047D02*
X135088990Y-102808571D01*
X135088990Y-102808571D02*
X135136609Y-102713333D01*
X135136609Y-102713333D02*
X135184228Y-102665714D01*
X135184228Y-102665714D02*
X135279466Y-102618095D01*
X135279466Y-102618095D02*
X135374704Y-102618095D01*
X135374704Y-102618095D02*
X135469942Y-102665714D01*
X135469942Y-102665714D02*
X135517561Y-102713333D01*
X135517561Y-102713333D02*
X135565180Y-102808571D01*
X135565180Y-102808571D02*
X135565180Y-103046666D01*
X135565180Y-103046666D02*
X135517561Y-103189523D01*
X135088990Y-103951428D02*
X135041371Y-104094285D01*
X135041371Y-104094285D02*
X134993752Y-104141904D01*
X134993752Y-104141904D02*
X134898514Y-104189523D01*
X134898514Y-104189523D02*
X134755657Y-104189523D01*
X134755657Y-104189523D02*
X134660419Y-104141904D01*
X134660419Y-104141904D02*
X134612800Y-104094285D01*
X134612800Y-104094285D02*
X134565180Y-103999047D01*
X134565180Y-103999047D02*
X134565180Y-103618095D01*
X134565180Y-103618095D02*
X135565180Y-103618095D01*
X135565180Y-103618095D02*
X135565180Y-103951428D01*
X135565180Y-103951428D02*
X135517561Y-104046666D01*
X135517561Y-104046666D02*
X135469942Y-104094285D01*
X135469942Y-104094285D02*
X135374704Y-104141904D01*
X135374704Y-104141904D02*
X135279466Y-104141904D01*
X135279466Y-104141904D02*
X135184228Y-104094285D01*
X135184228Y-104094285D02*
X135136609Y-104046666D01*
X135136609Y-104046666D02*
X135088990Y-103951428D01*
X135088990Y-103951428D02*
X135088990Y-103618095D01*
X158333333Y-45359580D02*
X158285714Y-45407200D01*
X158285714Y-45407200D02*
X158142857Y-45454819D01*
X158142857Y-45454819D02*
X158047619Y-45454819D01*
X158047619Y-45454819D02*
X157904762Y-45407200D01*
X157904762Y-45407200D02*
X157809524Y-45311961D01*
X157809524Y-45311961D02*
X157761905Y-45216723D01*
X157761905Y-45216723D02*
X157714286Y-45026247D01*
X157714286Y-45026247D02*
X157714286Y-44883390D01*
X157714286Y-44883390D02*
X157761905Y-44692914D01*
X157761905Y-44692914D02*
X157809524Y-44597676D01*
X157809524Y-44597676D02*
X157904762Y-44502438D01*
X157904762Y-44502438D02*
X158047619Y-44454819D01*
X158047619Y-44454819D02*
X158142857Y-44454819D01*
X158142857Y-44454819D02*
X158285714Y-44502438D01*
X158285714Y-44502438D02*
X158333333Y-44550057D01*
X158714286Y-44550057D02*
X158761905Y-44502438D01*
X158761905Y-44502438D02*
X158857143Y-44454819D01*
X158857143Y-44454819D02*
X159095238Y-44454819D01*
X159095238Y-44454819D02*
X159190476Y-44502438D01*
X159190476Y-44502438D02*
X159238095Y-44550057D01*
X159238095Y-44550057D02*
X159285714Y-44645295D01*
X159285714Y-44645295D02*
X159285714Y-44740533D01*
X159285714Y-44740533D02*
X159238095Y-44883390D01*
X159238095Y-44883390D02*
X158666667Y-45454819D01*
X158666667Y-45454819D02*
X159285714Y-45454819D01*
X135277142Y-60954819D02*
X134943809Y-60478628D01*
X134705714Y-60954819D02*
X134705714Y-59954819D01*
X134705714Y-59954819D02*
X135086666Y-59954819D01*
X135086666Y-59954819D02*
X135181904Y-60002438D01*
X135181904Y-60002438D02*
X135229523Y-60050057D01*
X135229523Y-60050057D02*
X135277142Y-60145295D01*
X135277142Y-60145295D02*
X135277142Y-60288152D01*
X135277142Y-60288152D02*
X135229523Y-60383390D01*
X135229523Y-60383390D02*
X135181904Y-60431009D01*
X135181904Y-60431009D02*
X135086666Y-60478628D01*
X135086666Y-60478628D02*
X134705714Y-60478628D01*
X136229523Y-60954819D02*
X135658095Y-60954819D01*
X135943809Y-60954819D02*
X135943809Y-59954819D01*
X135943809Y-59954819D02*
X135848571Y-60097676D01*
X135848571Y-60097676D02*
X135753333Y-60192914D01*
X135753333Y-60192914D02*
X135658095Y-60240533D01*
X136562857Y-59954819D02*
X137181904Y-59954819D01*
X137181904Y-59954819D02*
X136848571Y-60335771D01*
X136848571Y-60335771D02*
X136991428Y-60335771D01*
X136991428Y-60335771D02*
X137086666Y-60383390D01*
X137086666Y-60383390D02*
X137134285Y-60431009D01*
X137134285Y-60431009D02*
X137181904Y-60526247D01*
X137181904Y-60526247D02*
X137181904Y-60764342D01*
X137181904Y-60764342D02*
X137134285Y-60859580D01*
X137134285Y-60859580D02*
X137086666Y-60907200D01*
X137086666Y-60907200D02*
X136991428Y-60954819D01*
X136991428Y-60954819D02*
X136705714Y-60954819D01*
X136705714Y-60954819D02*
X136610476Y-60907200D01*
X136610476Y-60907200D02*
X136562857Y-60859580D01*
X49238095Y-45154819D02*
X49238095Y-44154819D01*
X49238095Y-44631009D02*
X49809523Y-44631009D01*
X49809523Y-45154819D02*
X49809523Y-44154819D01*
X50809523Y-45154819D02*
X50238095Y-45154819D01*
X50523809Y-45154819D02*
X50523809Y-44154819D01*
X50523809Y-44154819D02*
X50428571Y-44297676D01*
X50428571Y-44297676D02*
X50333333Y-44392914D01*
X50333333Y-44392914D02*
X50238095Y-44440533D01*
X163333333Y-54109580D02*
X163285714Y-54157200D01*
X163285714Y-54157200D02*
X163142857Y-54204819D01*
X163142857Y-54204819D02*
X163047619Y-54204819D01*
X163047619Y-54204819D02*
X162904762Y-54157200D01*
X162904762Y-54157200D02*
X162809524Y-54061961D01*
X162809524Y-54061961D02*
X162761905Y-53966723D01*
X162761905Y-53966723D02*
X162714286Y-53776247D01*
X162714286Y-53776247D02*
X162714286Y-53633390D01*
X162714286Y-53633390D02*
X162761905Y-53442914D01*
X162761905Y-53442914D02*
X162809524Y-53347676D01*
X162809524Y-53347676D02*
X162904762Y-53252438D01*
X162904762Y-53252438D02*
X163047619Y-53204819D01*
X163047619Y-53204819D02*
X163142857Y-53204819D01*
X163142857Y-53204819D02*
X163285714Y-53252438D01*
X163285714Y-53252438D02*
X163333333Y-53300057D01*
X164285714Y-54204819D02*
X163714286Y-54204819D01*
X164000000Y-54204819D02*
X164000000Y-53204819D01*
X164000000Y-53204819D02*
X163904762Y-53347676D01*
X163904762Y-53347676D02*
X163809524Y-53442914D01*
X163809524Y-53442914D02*
X163714286Y-53490533D01*
X173916667Y-81157200D02*
X174059524Y-81204819D01*
X174059524Y-81204819D02*
X174297619Y-81204819D01*
X174297619Y-81204819D02*
X174392857Y-81157200D01*
X174392857Y-81157200D02*
X174440476Y-81109580D01*
X174440476Y-81109580D02*
X174488095Y-81014342D01*
X174488095Y-81014342D02*
X174488095Y-80919104D01*
X174488095Y-80919104D02*
X174440476Y-80823866D01*
X174440476Y-80823866D02*
X174392857Y-80776247D01*
X174392857Y-80776247D02*
X174297619Y-80728628D01*
X174297619Y-80728628D02*
X174107143Y-80681009D01*
X174107143Y-80681009D02*
X174011905Y-80633390D01*
X174011905Y-80633390D02*
X173964286Y-80585771D01*
X173964286Y-80585771D02*
X173916667Y-80490533D01*
X173916667Y-80490533D02*
X173916667Y-80395295D01*
X173916667Y-80395295D02*
X173964286Y-80300057D01*
X173964286Y-80300057D02*
X174011905Y-80252438D01*
X174011905Y-80252438D02*
X174107143Y-80204819D01*
X174107143Y-80204819D02*
X174345238Y-80204819D01*
X174345238Y-80204819D02*
X174488095Y-80252438D01*
X174821429Y-80204819D02*
X175059524Y-81204819D01*
X175059524Y-81204819D02*
X175250000Y-80490533D01*
X175250000Y-80490533D02*
X175440476Y-81204819D01*
X175440476Y-81204819D02*
X175678572Y-80204819D01*
X176107143Y-81204819D02*
X176297619Y-81204819D01*
X176297619Y-81204819D02*
X176392857Y-81157200D01*
X176392857Y-81157200D02*
X176440476Y-81109580D01*
X176440476Y-81109580D02*
X176535714Y-80966723D01*
X176535714Y-80966723D02*
X176583333Y-80776247D01*
X176583333Y-80776247D02*
X176583333Y-80395295D01*
X176583333Y-80395295D02*
X176535714Y-80300057D01*
X176535714Y-80300057D02*
X176488095Y-80252438D01*
X176488095Y-80252438D02*
X176392857Y-80204819D01*
X176392857Y-80204819D02*
X176202381Y-80204819D01*
X176202381Y-80204819D02*
X176107143Y-80252438D01*
X176107143Y-80252438D02*
X176059524Y-80300057D01*
X176059524Y-80300057D02*
X176011905Y-80395295D01*
X176011905Y-80395295D02*
X176011905Y-80633390D01*
X176011905Y-80633390D02*
X176059524Y-80728628D01*
X176059524Y-80728628D02*
X176107143Y-80776247D01*
X176107143Y-80776247D02*
X176202381Y-80823866D01*
X176202381Y-80823866D02*
X176392857Y-80823866D01*
X176392857Y-80823866D02*
X176488095Y-80776247D01*
X176488095Y-80776247D02*
X176535714Y-80728628D01*
X176535714Y-80728628D02*
X176583333Y-80633390D01*
X68986905Y-46484819D02*
X68986905Y-45484819D01*
X68986905Y-45484819D02*
X69225000Y-45484819D01*
X69225000Y-45484819D02*
X69367857Y-45532438D01*
X69367857Y-45532438D02*
X69463095Y-45627676D01*
X69463095Y-45627676D02*
X69510714Y-45722914D01*
X69510714Y-45722914D02*
X69558333Y-45913390D01*
X69558333Y-45913390D02*
X69558333Y-46056247D01*
X69558333Y-46056247D02*
X69510714Y-46246723D01*
X69510714Y-46246723D02*
X69463095Y-46341961D01*
X69463095Y-46341961D02*
X69367857Y-46437200D01*
X69367857Y-46437200D02*
X69225000Y-46484819D01*
X69225000Y-46484819D02*
X68986905Y-46484819D01*
X70463095Y-45484819D02*
X69986905Y-45484819D01*
X69986905Y-45484819D02*
X69939286Y-45961009D01*
X69939286Y-45961009D02*
X69986905Y-45913390D01*
X69986905Y-45913390D02*
X70082143Y-45865771D01*
X70082143Y-45865771D02*
X70320238Y-45865771D01*
X70320238Y-45865771D02*
X70415476Y-45913390D01*
X70415476Y-45913390D02*
X70463095Y-45961009D01*
X70463095Y-45961009D02*
X70510714Y-46056247D01*
X70510714Y-46056247D02*
X70510714Y-46294342D01*
X70510714Y-46294342D02*
X70463095Y-46389580D01*
X70463095Y-46389580D02*
X70415476Y-46437200D01*
X70415476Y-46437200D02*
X70320238Y-46484819D01*
X70320238Y-46484819D02*
X70082143Y-46484819D01*
X70082143Y-46484819D02*
X69986905Y-46437200D01*
X69986905Y-46437200D02*
X69939286Y-46389580D01*
X72656905Y-48669104D02*
X73133095Y-48669104D01*
X72561667Y-48954819D02*
X72895000Y-47954819D01*
X72895000Y-47954819D02*
X73228333Y-48954819D01*
X93277143Y-69959051D02*
X92943810Y-69482860D01*
X92705715Y-69959051D02*
X92705715Y-68959051D01*
X92705715Y-68959051D02*
X93086667Y-68959051D01*
X93086667Y-68959051D02*
X93181905Y-69006670D01*
X93181905Y-69006670D02*
X93229524Y-69054289D01*
X93229524Y-69054289D02*
X93277143Y-69149527D01*
X93277143Y-69149527D02*
X93277143Y-69292384D01*
X93277143Y-69292384D02*
X93229524Y-69387622D01*
X93229524Y-69387622D02*
X93181905Y-69435241D01*
X93181905Y-69435241D02*
X93086667Y-69482860D01*
X93086667Y-69482860D02*
X92705715Y-69482860D01*
X94229524Y-69959051D02*
X93658096Y-69959051D01*
X93943810Y-69959051D02*
X93943810Y-68959051D01*
X93943810Y-68959051D02*
X93848572Y-69101908D01*
X93848572Y-69101908D02*
X93753334Y-69197146D01*
X93753334Y-69197146D02*
X93658096Y-69244765D01*
X94705715Y-69959051D02*
X94896191Y-69959051D01*
X94896191Y-69959051D02*
X94991429Y-69911432D01*
X94991429Y-69911432D02*
X95039048Y-69863812D01*
X95039048Y-69863812D02*
X95134286Y-69720955D01*
X95134286Y-69720955D02*
X95181905Y-69530479D01*
X95181905Y-69530479D02*
X95181905Y-69149527D01*
X95181905Y-69149527D02*
X95134286Y-69054289D01*
X95134286Y-69054289D02*
X95086667Y-69006670D01*
X95086667Y-69006670D02*
X94991429Y-68959051D01*
X94991429Y-68959051D02*
X94800953Y-68959051D01*
X94800953Y-68959051D02*
X94705715Y-69006670D01*
X94705715Y-69006670D02*
X94658096Y-69054289D01*
X94658096Y-69054289D02*
X94610477Y-69149527D01*
X94610477Y-69149527D02*
X94610477Y-69387622D01*
X94610477Y-69387622D02*
X94658096Y-69482860D01*
X94658096Y-69482860D02*
X94705715Y-69530479D01*
X94705715Y-69530479D02*
X94800953Y-69578098D01*
X94800953Y-69578098D02*
X94991429Y-69578098D01*
X94991429Y-69578098D02*
X95086667Y-69530479D01*
X95086667Y-69530479D02*
X95134286Y-69482860D01*
X95134286Y-69482860D02*
X95181905Y-69387622D01*
X173916667Y-66157200D02*
X174059524Y-66204819D01*
X174059524Y-66204819D02*
X174297619Y-66204819D01*
X174297619Y-66204819D02*
X174392857Y-66157200D01*
X174392857Y-66157200D02*
X174440476Y-66109580D01*
X174440476Y-66109580D02*
X174488095Y-66014342D01*
X174488095Y-66014342D02*
X174488095Y-65919104D01*
X174488095Y-65919104D02*
X174440476Y-65823866D01*
X174440476Y-65823866D02*
X174392857Y-65776247D01*
X174392857Y-65776247D02*
X174297619Y-65728628D01*
X174297619Y-65728628D02*
X174107143Y-65681009D01*
X174107143Y-65681009D02*
X174011905Y-65633390D01*
X174011905Y-65633390D02*
X173964286Y-65585771D01*
X173964286Y-65585771D02*
X173916667Y-65490533D01*
X173916667Y-65490533D02*
X173916667Y-65395295D01*
X173916667Y-65395295D02*
X173964286Y-65300057D01*
X173964286Y-65300057D02*
X174011905Y-65252438D01*
X174011905Y-65252438D02*
X174107143Y-65204819D01*
X174107143Y-65204819D02*
X174345238Y-65204819D01*
X174345238Y-65204819D02*
X174488095Y-65252438D01*
X174821429Y-65204819D02*
X175059524Y-66204819D01*
X175059524Y-66204819D02*
X175250000Y-65490533D01*
X175250000Y-65490533D02*
X175440476Y-66204819D01*
X175440476Y-66204819D02*
X175678572Y-65204819D01*
X176488095Y-65204819D02*
X176297619Y-65204819D01*
X176297619Y-65204819D02*
X176202381Y-65252438D01*
X176202381Y-65252438D02*
X176154762Y-65300057D01*
X176154762Y-65300057D02*
X176059524Y-65442914D01*
X176059524Y-65442914D02*
X176011905Y-65633390D01*
X176011905Y-65633390D02*
X176011905Y-66014342D01*
X176011905Y-66014342D02*
X176059524Y-66109580D01*
X176059524Y-66109580D02*
X176107143Y-66157200D01*
X176107143Y-66157200D02*
X176202381Y-66204819D01*
X176202381Y-66204819D02*
X176392857Y-66204819D01*
X176392857Y-66204819D02*
X176488095Y-66157200D01*
X176488095Y-66157200D02*
X176535714Y-66109580D01*
X176535714Y-66109580D02*
X176583333Y-66014342D01*
X176583333Y-66014342D02*
X176583333Y-65776247D01*
X176583333Y-65776247D02*
X176535714Y-65681009D01*
X176535714Y-65681009D02*
X176488095Y-65633390D01*
X176488095Y-65633390D02*
X176392857Y-65585771D01*
X176392857Y-65585771D02*
X176202381Y-65585771D01*
X176202381Y-65585771D02*
X176107143Y-65633390D01*
X176107143Y-65633390D02*
X176059524Y-65681009D01*
X176059524Y-65681009D02*
X176011905Y-65776247D01*
X51253333Y-58484819D02*
X50920000Y-58008628D01*
X50681905Y-58484819D02*
X50681905Y-57484819D01*
X50681905Y-57484819D02*
X51062857Y-57484819D01*
X51062857Y-57484819D02*
X51158095Y-57532438D01*
X51158095Y-57532438D02*
X51205714Y-57580057D01*
X51205714Y-57580057D02*
X51253333Y-57675295D01*
X51253333Y-57675295D02*
X51253333Y-57818152D01*
X51253333Y-57818152D02*
X51205714Y-57913390D01*
X51205714Y-57913390D02*
X51158095Y-57961009D01*
X51158095Y-57961009D02*
X51062857Y-58008628D01*
X51062857Y-58008628D02*
X50681905Y-58008628D01*
X52205714Y-58484819D02*
X51634286Y-58484819D01*
X51920000Y-58484819D02*
X51920000Y-57484819D01*
X51920000Y-57484819D02*
X51824762Y-57627676D01*
X51824762Y-57627676D02*
X51729524Y-57722914D01*
X51729524Y-57722914D02*
X51634286Y-57770533D01*
X93277142Y-90954819D02*
X92943809Y-90478628D01*
X92705714Y-90954819D02*
X92705714Y-89954819D01*
X92705714Y-89954819D02*
X93086666Y-89954819D01*
X93086666Y-89954819D02*
X93181904Y-90002438D01*
X93181904Y-90002438D02*
X93229523Y-90050057D01*
X93229523Y-90050057D02*
X93277142Y-90145295D01*
X93277142Y-90145295D02*
X93277142Y-90288152D01*
X93277142Y-90288152D02*
X93229523Y-90383390D01*
X93229523Y-90383390D02*
X93181904Y-90431009D01*
X93181904Y-90431009D02*
X93086666Y-90478628D01*
X93086666Y-90478628D02*
X92705714Y-90478628D01*
X93658095Y-90050057D02*
X93705714Y-90002438D01*
X93705714Y-90002438D02*
X93800952Y-89954819D01*
X93800952Y-89954819D02*
X94039047Y-89954819D01*
X94039047Y-89954819D02*
X94134285Y-90002438D01*
X94134285Y-90002438D02*
X94181904Y-90050057D01*
X94181904Y-90050057D02*
X94229523Y-90145295D01*
X94229523Y-90145295D02*
X94229523Y-90240533D01*
X94229523Y-90240533D02*
X94181904Y-90383390D01*
X94181904Y-90383390D02*
X93610476Y-90954819D01*
X93610476Y-90954819D02*
X94229523Y-90954819D01*
X94800952Y-90383390D02*
X94705714Y-90335771D01*
X94705714Y-90335771D02*
X94658095Y-90288152D01*
X94658095Y-90288152D02*
X94610476Y-90192914D01*
X94610476Y-90192914D02*
X94610476Y-90145295D01*
X94610476Y-90145295D02*
X94658095Y-90050057D01*
X94658095Y-90050057D02*
X94705714Y-90002438D01*
X94705714Y-90002438D02*
X94800952Y-89954819D01*
X94800952Y-89954819D02*
X94991428Y-89954819D01*
X94991428Y-89954819D02*
X95086666Y-90002438D01*
X95086666Y-90002438D02*
X95134285Y-90050057D01*
X95134285Y-90050057D02*
X95181904Y-90145295D01*
X95181904Y-90145295D02*
X95181904Y-90192914D01*
X95181904Y-90192914D02*
X95134285Y-90288152D01*
X95134285Y-90288152D02*
X95086666Y-90335771D01*
X95086666Y-90335771D02*
X94991428Y-90383390D01*
X94991428Y-90383390D02*
X94800952Y-90383390D01*
X94800952Y-90383390D02*
X94705714Y-90431009D01*
X94705714Y-90431009D02*
X94658095Y-90478628D01*
X94658095Y-90478628D02*
X94610476Y-90573866D01*
X94610476Y-90573866D02*
X94610476Y-90764342D01*
X94610476Y-90764342D02*
X94658095Y-90859580D01*
X94658095Y-90859580D02*
X94705714Y-90907200D01*
X94705714Y-90907200D02*
X94800952Y-90954819D01*
X94800952Y-90954819D02*
X94991428Y-90954819D01*
X94991428Y-90954819D02*
X95086666Y-90907200D01*
X95086666Y-90907200D02*
X95134285Y-90859580D01*
X95134285Y-90859580D02*
X95181904Y-90764342D01*
X95181904Y-90764342D02*
X95181904Y-90573866D01*
X95181904Y-90573866D02*
X95134285Y-90478628D01*
X95134285Y-90478628D02*
X95086666Y-90431009D01*
X95086666Y-90431009D02*
X94991428Y-90383390D01*
X135277142Y-90954819D02*
X134943809Y-90478628D01*
X134705714Y-90954819D02*
X134705714Y-89954819D01*
X134705714Y-89954819D02*
X135086666Y-89954819D01*
X135086666Y-89954819D02*
X135181904Y-90002438D01*
X135181904Y-90002438D02*
X135229523Y-90050057D01*
X135229523Y-90050057D02*
X135277142Y-90145295D01*
X135277142Y-90145295D02*
X135277142Y-90288152D01*
X135277142Y-90288152D02*
X135229523Y-90383390D01*
X135229523Y-90383390D02*
X135181904Y-90431009D01*
X135181904Y-90431009D02*
X135086666Y-90478628D01*
X135086666Y-90478628D02*
X134705714Y-90478628D01*
X135610476Y-89954819D02*
X136229523Y-89954819D01*
X136229523Y-89954819D02*
X135896190Y-90335771D01*
X135896190Y-90335771D02*
X136039047Y-90335771D01*
X136039047Y-90335771D02*
X136134285Y-90383390D01*
X136134285Y-90383390D02*
X136181904Y-90431009D01*
X136181904Y-90431009D02*
X136229523Y-90526247D01*
X136229523Y-90526247D02*
X136229523Y-90764342D01*
X136229523Y-90764342D02*
X136181904Y-90859580D01*
X136181904Y-90859580D02*
X136134285Y-90907200D01*
X136134285Y-90907200D02*
X136039047Y-90954819D01*
X136039047Y-90954819D02*
X135753333Y-90954819D01*
X135753333Y-90954819D02*
X135658095Y-90907200D01*
X135658095Y-90907200D02*
X135610476Y-90859580D01*
X136705714Y-90954819D02*
X136896190Y-90954819D01*
X136896190Y-90954819D02*
X136991428Y-90907200D01*
X136991428Y-90907200D02*
X137039047Y-90859580D01*
X137039047Y-90859580D02*
X137134285Y-90716723D01*
X137134285Y-90716723D02*
X137181904Y-90526247D01*
X137181904Y-90526247D02*
X137181904Y-90145295D01*
X137181904Y-90145295D02*
X137134285Y-90050057D01*
X137134285Y-90050057D02*
X137086666Y-90002438D01*
X137086666Y-90002438D02*
X136991428Y-89954819D01*
X136991428Y-89954819D02*
X136800952Y-89954819D01*
X136800952Y-89954819D02*
X136705714Y-90002438D01*
X136705714Y-90002438D02*
X136658095Y-90050057D01*
X136658095Y-90050057D02*
X136610476Y-90145295D01*
X136610476Y-90145295D02*
X136610476Y-90383390D01*
X136610476Y-90383390D02*
X136658095Y-90478628D01*
X136658095Y-90478628D02*
X136705714Y-90526247D01*
X136705714Y-90526247D02*
X136800952Y-90573866D01*
X136800952Y-90573866D02*
X136991428Y-90573866D01*
X136991428Y-90573866D02*
X137086666Y-90526247D01*
X137086666Y-90526247D02*
X137134285Y-90478628D01*
X137134285Y-90478628D02*
X137181904Y-90383390D01*
X70824819Y-57666666D02*
X70348628Y-57999999D01*
X70824819Y-58238094D02*
X69824819Y-58238094D01*
X69824819Y-58238094D02*
X69824819Y-57857142D01*
X69824819Y-57857142D02*
X69872438Y-57761904D01*
X69872438Y-57761904D02*
X69920057Y-57714285D01*
X69920057Y-57714285D02*
X70015295Y-57666666D01*
X70015295Y-57666666D02*
X70158152Y-57666666D01*
X70158152Y-57666666D02*
X70253390Y-57714285D01*
X70253390Y-57714285D02*
X70301009Y-57761904D01*
X70301009Y-57761904D02*
X70348628Y-57857142D01*
X70348628Y-57857142D02*
X70348628Y-58238094D01*
X70824819Y-57190475D02*
X70824819Y-56999999D01*
X70824819Y-56999999D02*
X70777200Y-56904761D01*
X70777200Y-56904761D02*
X70729580Y-56857142D01*
X70729580Y-56857142D02*
X70586723Y-56761904D01*
X70586723Y-56761904D02*
X70396247Y-56714285D01*
X70396247Y-56714285D02*
X70015295Y-56714285D01*
X70015295Y-56714285D02*
X69920057Y-56761904D01*
X69920057Y-56761904D02*
X69872438Y-56809523D01*
X69872438Y-56809523D02*
X69824819Y-56904761D01*
X69824819Y-56904761D02*
X69824819Y-57095237D01*
X69824819Y-57095237D02*
X69872438Y-57190475D01*
X69872438Y-57190475D02*
X69920057Y-57238094D01*
X69920057Y-57238094D02*
X70015295Y-57285713D01*
X70015295Y-57285713D02*
X70253390Y-57285713D01*
X70253390Y-57285713D02*
X70348628Y-57238094D01*
X70348628Y-57238094D02*
X70396247Y-57190475D01*
X70396247Y-57190475D02*
X70443866Y-57095237D01*
X70443866Y-57095237D02*
X70443866Y-56904761D01*
X70443866Y-56904761D02*
X70396247Y-56809523D01*
X70396247Y-56809523D02*
X70348628Y-56761904D01*
X70348628Y-56761904D02*
X70253390Y-56714285D01*
X63916667Y-66157200D02*
X64059524Y-66204819D01*
X64059524Y-66204819D02*
X64297619Y-66204819D01*
X64297619Y-66204819D02*
X64392857Y-66157200D01*
X64392857Y-66157200D02*
X64440476Y-66109580D01*
X64440476Y-66109580D02*
X64488095Y-66014342D01*
X64488095Y-66014342D02*
X64488095Y-65919104D01*
X64488095Y-65919104D02*
X64440476Y-65823866D01*
X64440476Y-65823866D02*
X64392857Y-65776247D01*
X64392857Y-65776247D02*
X64297619Y-65728628D01*
X64297619Y-65728628D02*
X64107143Y-65681009D01*
X64107143Y-65681009D02*
X64011905Y-65633390D01*
X64011905Y-65633390D02*
X63964286Y-65585771D01*
X63964286Y-65585771D02*
X63916667Y-65490533D01*
X63916667Y-65490533D02*
X63916667Y-65395295D01*
X63916667Y-65395295D02*
X63964286Y-65300057D01*
X63964286Y-65300057D02*
X64011905Y-65252438D01*
X64011905Y-65252438D02*
X64107143Y-65204819D01*
X64107143Y-65204819D02*
X64345238Y-65204819D01*
X64345238Y-65204819D02*
X64488095Y-65252438D01*
X64821429Y-65204819D02*
X65059524Y-66204819D01*
X65059524Y-66204819D02*
X65250000Y-65490533D01*
X65250000Y-65490533D02*
X65440476Y-66204819D01*
X65440476Y-66204819D02*
X65678572Y-65204819D01*
X66011905Y-65300057D02*
X66059524Y-65252438D01*
X66059524Y-65252438D02*
X66154762Y-65204819D01*
X66154762Y-65204819D02*
X66392857Y-65204819D01*
X66392857Y-65204819D02*
X66488095Y-65252438D01*
X66488095Y-65252438D02*
X66535714Y-65300057D01*
X66535714Y-65300057D02*
X66583333Y-65395295D01*
X66583333Y-65395295D02*
X66583333Y-65490533D01*
X66583333Y-65490533D02*
X66535714Y-65633390D01*
X66535714Y-65633390D02*
X65964286Y-66204819D01*
X65964286Y-66204819D02*
X66583333Y-66204819D01*
X93277142Y-96954819D02*
X92943809Y-96478628D01*
X92705714Y-96954819D02*
X92705714Y-95954819D01*
X92705714Y-95954819D02*
X93086666Y-95954819D01*
X93086666Y-95954819D02*
X93181904Y-96002438D01*
X93181904Y-96002438D02*
X93229523Y-96050057D01*
X93229523Y-96050057D02*
X93277142Y-96145295D01*
X93277142Y-96145295D02*
X93277142Y-96288152D01*
X93277142Y-96288152D02*
X93229523Y-96383390D01*
X93229523Y-96383390D02*
X93181904Y-96431009D01*
X93181904Y-96431009D02*
X93086666Y-96478628D01*
X93086666Y-96478628D02*
X92705714Y-96478628D01*
X93658095Y-96050057D02*
X93705714Y-96002438D01*
X93705714Y-96002438D02*
X93800952Y-95954819D01*
X93800952Y-95954819D02*
X94039047Y-95954819D01*
X94039047Y-95954819D02*
X94134285Y-96002438D01*
X94134285Y-96002438D02*
X94181904Y-96050057D01*
X94181904Y-96050057D02*
X94229523Y-96145295D01*
X94229523Y-96145295D02*
X94229523Y-96240533D01*
X94229523Y-96240533D02*
X94181904Y-96383390D01*
X94181904Y-96383390D02*
X93610476Y-96954819D01*
X93610476Y-96954819D02*
X94229523Y-96954819D01*
X95086666Y-95954819D02*
X94896190Y-95954819D01*
X94896190Y-95954819D02*
X94800952Y-96002438D01*
X94800952Y-96002438D02*
X94753333Y-96050057D01*
X94753333Y-96050057D02*
X94658095Y-96192914D01*
X94658095Y-96192914D02*
X94610476Y-96383390D01*
X94610476Y-96383390D02*
X94610476Y-96764342D01*
X94610476Y-96764342D02*
X94658095Y-96859580D01*
X94658095Y-96859580D02*
X94705714Y-96907200D01*
X94705714Y-96907200D02*
X94800952Y-96954819D01*
X94800952Y-96954819D02*
X94991428Y-96954819D01*
X94991428Y-96954819D02*
X95086666Y-96907200D01*
X95086666Y-96907200D02*
X95134285Y-96859580D01*
X95134285Y-96859580D02*
X95181904Y-96764342D01*
X95181904Y-96764342D02*
X95181904Y-96526247D01*
X95181904Y-96526247D02*
X95134285Y-96431009D01*
X95134285Y-96431009D02*
X95086666Y-96383390D01*
X95086666Y-96383390D02*
X94991428Y-96335771D01*
X94991428Y-96335771D02*
X94800952Y-96335771D01*
X94800952Y-96335771D02*
X94705714Y-96383390D01*
X94705714Y-96383390D02*
X94658095Y-96431009D01*
X94658095Y-96431009D02*
X94610476Y-96526247D01*
X179238095Y-45154819D02*
X179238095Y-44154819D01*
X179238095Y-44631009D02*
X179809523Y-44631009D01*
X179809523Y-45154819D02*
X179809523Y-44154819D01*
X180238095Y-44250057D02*
X180285714Y-44202438D01*
X180285714Y-44202438D02*
X180380952Y-44154819D01*
X180380952Y-44154819D02*
X180619047Y-44154819D01*
X180619047Y-44154819D02*
X180714285Y-44202438D01*
X180714285Y-44202438D02*
X180761904Y-44250057D01*
X180761904Y-44250057D02*
X180809523Y-44345295D01*
X180809523Y-44345295D02*
X180809523Y-44440533D01*
X180809523Y-44440533D02*
X180761904Y-44583390D01*
X180761904Y-44583390D02*
X180190476Y-45154819D01*
X180190476Y-45154819D02*
X180809523Y-45154819D01*
X135277142Y-66954819D02*
X134943809Y-66478628D01*
X134705714Y-66954819D02*
X134705714Y-65954819D01*
X134705714Y-65954819D02*
X135086666Y-65954819D01*
X135086666Y-65954819D02*
X135181904Y-66002438D01*
X135181904Y-66002438D02*
X135229523Y-66050057D01*
X135229523Y-66050057D02*
X135277142Y-66145295D01*
X135277142Y-66145295D02*
X135277142Y-66288152D01*
X135277142Y-66288152D02*
X135229523Y-66383390D01*
X135229523Y-66383390D02*
X135181904Y-66431009D01*
X135181904Y-66431009D02*
X135086666Y-66478628D01*
X135086666Y-66478628D02*
X134705714Y-66478628D01*
X136229523Y-66954819D02*
X135658095Y-66954819D01*
X135943809Y-66954819D02*
X135943809Y-65954819D01*
X135943809Y-65954819D02*
X135848571Y-66097676D01*
X135848571Y-66097676D02*
X135753333Y-66192914D01*
X135753333Y-66192914D02*
X135658095Y-66240533D01*
X137134285Y-65954819D02*
X136658095Y-65954819D01*
X136658095Y-65954819D02*
X136610476Y-66431009D01*
X136610476Y-66431009D02*
X136658095Y-66383390D01*
X136658095Y-66383390D02*
X136753333Y-66335771D01*
X136753333Y-66335771D02*
X136991428Y-66335771D01*
X136991428Y-66335771D02*
X137086666Y-66383390D01*
X137086666Y-66383390D02*
X137134285Y-66431009D01*
X137134285Y-66431009D02*
X137181904Y-66526247D01*
X137181904Y-66526247D02*
X137181904Y-66764342D01*
X137181904Y-66764342D02*
X137134285Y-66859580D01*
X137134285Y-66859580D02*
X137086666Y-66907200D01*
X137086666Y-66907200D02*
X136991428Y-66954819D01*
X136991428Y-66954819D02*
X136753333Y-66954819D01*
X136753333Y-66954819D02*
X136658095Y-66907200D01*
X136658095Y-66907200D02*
X136610476Y-66859580D01*
X135277142Y-87954819D02*
X134943809Y-87478628D01*
X134705714Y-87954819D02*
X134705714Y-86954819D01*
X134705714Y-86954819D02*
X135086666Y-86954819D01*
X135086666Y-86954819D02*
X135181904Y-87002438D01*
X135181904Y-87002438D02*
X135229523Y-87050057D01*
X135229523Y-87050057D02*
X135277142Y-87145295D01*
X135277142Y-87145295D02*
X135277142Y-87288152D01*
X135277142Y-87288152D02*
X135229523Y-87383390D01*
X135229523Y-87383390D02*
X135181904Y-87431009D01*
X135181904Y-87431009D02*
X135086666Y-87478628D01*
X135086666Y-87478628D02*
X134705714Y-87478628D01*
X135610476Y-86954819D02*
X136229523Y-86954819D01*
X136229523Y-86954819D02*
X135896190Y-87335771D01*
X135896190Y-87335771D02*
X136039047Y-87335771D01*
X136039047Y-87335771D02*
X136134285Y-87383390D01*
X136134285Y-87383390D02*
X136181904Y-87431009D01*
X136181904Y-87431009D02*
X136229523Y-87526247D01*
X136229523Y-87526247D02*
X136229523Y-87764342D01*
X136229523Y-87764342D02*
X136181904Y-87859580D01*
X136181904Y-87859580D02*
X136134285Y-87907200D01*
X136134285Y-87907200D02*
X136039047Y-87954819D01*
X136039047Y-87954819D02*
X135753333Y-87954819D01*
X135753333Y-87954819D02*
X135658095Y-87907200D01*
X135658095Y-87907200D02*
X135610476Y-87859580D01*
X136800952Y-87383390D02*
X136705714Y-87335771D01*
X136705714Y-87335771D02*
X136658095Y-87288152D01*
X136658095Y-87288152D02*
X136610476Y-87192914D01*
X136610476Y-87192914D02*
X136610476Y-87145295D01*
X136610476Y-87145295D02*
X136658095Y-87050057D01*
X136658095Y-87050057D02*
X136705714Y-87002438D01*
X136705714Y-87002438D02*
X136800952Y-86954819D01*
X136800952Y-86954819D02*
X136991428Y-86954819D01*
X136991428Y-86954819D02*
X137086666Y-87002438D01*
X137086666Y-87002438D02*
X137134285Y-87050057D01*
X137134285Y-87050057D02*
X137181904Y-87145295D01*
X137181904Y-87145295D02*
X137181904Y-87192914D01*
X137181904Y-87192914D02*
X137134285Y-87288152D01*
X137134285Y-87288152D02*
X137086666Y-87335771D01*
X137086666Y-87335771D02*
X136991428Y-87383390D01*
X136991428Y-87383390D02*
X136800952Y-87383390D01*
X136800952Y-87383390D02*
X136705714Y-87431009D01*
X136705714Y-87431009D02*
X136658095Y-87478628D01*
X136658095Y-87478628D02*
X136610476Y-87573866D01*
X136610476Y-87573866D02*
X136610476Y-87764342D01*
X136610476Y-87764342D02*
X136658095Y-87859580D01*
X136658095Y-87859580D02*
X136705714Y-87907200D01*
X136705714Y-87907200D02*
X136800952Y-87954819D01*
X136800952Y-87954819D02*
X136991428Y-87954819D01*
X136991428Y-87954819D02*
X137086666Y-87907200D01*
X137086666Y-87907200D02*
X137134285Y-87859580D01*
X137134285Y-87859580D02*
X137181904Y-87764342D01*
X137181904Y-87764342D02*
X137181904Y-87573866D01*
X137181904Y-87573866D02*
X137134285Y-87478628D01*
X137134285Y-87478628D02*
X137086666Y-87431009D01*
X137086666Y-87431009D02*
X136991428Y-87383390D01*
X135277142Y-69954819D02*
X134943809Y-69478628D01*
X134705714Y-69954819D02*
X134705714Y-68954819D01*
X134705714Y-68954819D02*
X135086666Y-68954819D01*
X135086666Y-68954819D02*
X135181904Y-69002438D01*
X135181904Y-69002438D02*
X135229523Y-69050057D01*
X135229523Y-69050057D02*
X135277142Y-69145295D01*
X135277142Y-69145295D02*
X135277142Y-69288152D01*
X135277142Y-69288152D02*
X135229523Y-69383390D01*
X135229523Y-69383390D02*
X135181904Y-69431009D01*
X135181904Y-69431009D02*
X135086666Y-69478628D01*
X135086666Y-69478628D02*
X134705714Y-69478628D01*
X136229523Y-69954819D02*
X135658095Y-69954819D01*
X135943809Y-69954819D02*
X135943809Y-68954819D01*
X135943809Y-68954819D02*
X135848571Y-69097676D01*
X135848571Y-69097676D02*
X135753333Y-69192914D01*
X135753333Y-69192914D02*
X135658095Y-69240533D01*
X137086666Y-68954819D02*
X136896190Y-68954819D01*
X136896190Y-68954819D02*
X136800952Y-69002438D01*
X136800952Y-69002438D02*
X136753333Y-69050057D01*
X136753333Y-69050057D02*
X136658095Y-69192914D01*
X136658095Y-69192914D02*
X136610476Y-69383390D01*
X136610476Y-69383390D02*
X136610476Y-69764342D01*
X136610476Y-69764342D02*
X136658095Y-69859580D01*
X136658095Y-69859580D02*
X136705714Y-69907200D01*
X136705714Y-69907200D02*
X136800952Y-69954819D01*
X136800952Y-69954819D02*
X136991428Y-69954819D01*
X136991428Y-69954819D02*
X137086666Y-69907200D01*
X137086666Y-69907200D02*
X137134285Y-69859580D01*
X137134285Y-69859580D02*
X137181904Y-69764342D01*
X137181904Y-69764342D02*
X137181904Y-69526247D01*
X137181904Y-69526247D02*
X137134285Y-69431009D01*
X137134285Y-69431009D02*
X137086666Y-69383390D01*
X137086666Y-69383390D02*
X136991428Y-69335771D01*
X136991428Y-69335771D02*
X136800952Y-69335771D01*
X136800952Y-69335771D02*
X136705714Y-69383390D01*
X136705714Y-69383390D02*
X136658095Y-69431009D01*
X136658095Y-69431009D02*
X136610476Y-69526247D01*
X79253333Y-53004819D02*
X78920000Y-52528628D01*
X78681905Y-53004819D02*
X78681905Y-52004819D01*
X78681905Y-52004819D02*
X79062857Y-52004819D01*
X79062857Y-52004819D02*
X79158095Y-52052438D01*
X79158095Y-52052438D02*
X79205714Y-52100057D01*
X79205714Y-52100057D02*
X79253333Y-52195295D01*
X79253333Y-52195295D02*
X79253333Y-52338152D01*
X79253333Y-52338152D02*
X79205714Y-52433390D01*
X79205714Y-52433390D02*
X79158095Y-52481009D01*
X79158095Y-52481009D02*
X79062857Y-52528628D01*
X79062857Y-52528628D02*
X78681905Y-52528628D01*
X80158095Y-52004819D02*
X79681905Y-52004819D01*
X79681905Y-52004819D02*
X79634286Y-52481009D01*
X79634286Y-52481009D02*
X79681905Y-52433390D01*
X79681905Y-52433390D02*
X79777143Y-52385771D01*
X79777143Y-52385771D02*
X80015238Y-52385771D01*
X80015238Y-52385771D02*
X80110476Y-52433390D01*
X80110476Y-52433390D02*
X80158095Y-52481009D01*
X80158095Y-52481009D02*
X80205714Y-52576247D01*
X80205714Y-52576247D02*
X80205714Y-52814342D01*
X80205714Y-52814342D02*
X80158095Y-52909580D01*
X80158095Y-52909580D02*
X80110476Y-52957200D01*
X80110476Y-52957200D02*
X80015238Y-53004819D01*
X80015238Y-53004819D02*
X79777143Y-53004819D01*
X79777143Y-53004819D02*
X79681905Y-52957200D01*
X79681905Y-52957200D02*
X79634286Y-52909580D01*
X135277142Y-81954819D02*
X134943809Y-81478628D01*
X134705714Y-81954819D02*
X134705714Y-80954819D01*
X134705714Y-80954819D02*
X135086666Y-80954819D01*
X135086666Y-80954819D02*
X135181904Y-81002438D01*
X135181904Y-81002438D02*
X135229523Y-81050057D01*
X135229523Y-81050057D02*
X135277142Y-81145295D01*
X135277142Y-81145295D02*
X135277142Y-81288152D01*
X135277142Y-81288152D02*
X135229523Y-81383390D01*
X135229523Y-81383390D02*
X135181904Y-81431009D01*
X135181904Y-81431009D02*
X135086666Y-81478628D01*
X135086666Y-81478628D02*
X134705714Y-81478628D01*
X135610476Y-80954819D02*
X136229523Y-80954819D01*
X136229523Y-80954819D02*
X135896190Y-81335771D01*
X135896190Y-81335771D02*
X136039047Y-81335771D01*
X136039047Y-81335771D02*
X136134285Y-81383390D01*
X136134285Y-81383390D02*
X136181904Y-81431009D01*
X136181904Y-81431009D02*
X136229523Y-81526247D01*
X136229523Y-81526247D02*
X136229523Y-81764342D01*
X136229523Y-81764342D02*
X136181904Y-81859580D01*
X136181904Y-81859580D02*
X136134285Y-81907200D01*
X136134285Y-81907200D02*
X136039047Y-81954819D01*
X136039047Y-81954819D02*
X135753333Y-81954819D01*
X135753333Y-81954819D02*
X135658095Y-81907200D01*
X135658095Y-81907200D02*
X135610476Y-81859580D01*
X137086666Y-80954819D02*
X136896190Y-80954819D01*
X136896190Y-80954819D02*
X136800952Y-81002438D01*
X136800952Y-81002438D02*
X136753333Y-81050057D01*
X136753333Y-81050057D02*
X136658095Y-81192914D01*
X136658095Y-81192914D02*
X136610476Y-81383390D01*
X136610476Y-81383390D02*
X136610476Y-81764342D01*
X136610476Y-81764342D02*
X136658095Y-81859580D01*
X136658095Y-81859580D02*
X136705714Y-81907200D01*
X136705714Y-81907200D02*
X136800952Y-81954819D01*
X136800952Y-81954819D02*
X136991428Y-81954819D01*
X136991428Y-81954819D02*
X137086666Y-81907200D01*
X137086666Y-81907200D02*
X137134285Y-81859580D01*
X137134285Y-81859580D02*
X137181904Y-81764342D01*
X137181904Y-81764342D02*
X137181904Y-81526247D01*
X137181904Y-81526247D02*
X137134285Y-81431009D01*
X137134285Y-81431009D02*
X137086666Y-81383390D01*
X137086666Y-81383390D02*
X136991428Y-81335771D01*
X136991428Y-81335771D02*
X136800952Y-81335771D01*
X136800952Y-81335771D02*
X136705714Y-81383390D01*
X136705714Y-81383390D02*
X136658095Y-81431009D01*
X136658095Y-81431009D02*
X136610476Y-81526247D01*
X93277143Y-60959051D02*
X92943810Y-60482860D01*
X92705715Y-60959051D02*
X92705715Y-59959051D01*
X92705715Y-59959051D02*
X93086667Y-59959051D01*
X93086667Y-59959051D02*
X93181905Y-60006670D01*
X93181905Y-60006670D02*
X93229524Y-60054289D01*
X93229524Y-60054289D02*
X93277143Y-60149527D01*
X93277143Y-60149527D02*
X93277143Y-60292384D01*
X93277143Y-60292384D02*
X93229524Y-60387622D01*
X93229524Y-60387622D02*
X93181905Y-60435241D01*
X93181905Y-60435241D02*
X93086667Y-60482860D01*
X93086667Y-60482860D02*
X92705715Y-60482860D01*
X93658096Y-60054289D02*
X93705715Y-60006670D01*
X93705715Y-60006670D02*
X93800953Y-59959051D01*
X93800953Y-59959051D02*
X94039048Y-59959051D01*
X94039048Y-59959051D02*
X94134286Y-60006670D01*
X94134286Y-60006670D02*
X94181905Y-60054289D01*
X94181905Y-60054289D02*
X94229524Y-60149527D01*
X94229524Y-60149527D02*
X94229524Y-60244765D01*
X94229524Y-60244765D02*
X94181905Y-60387622D01*
X94181905Y-60387622D02*
X93610477Y-60959051D01*
X93610477Y-60959051D02*
X94229524Y-60959051D01*
X94610477Y-60054289D02*
X94658096Y-60006670D01*
X94658096Y-60006670D02*
X94753334Y-59959051D01*
X94753334Y-59959051D02*
X94991429Y-59959051D01*
X94991429Y-59959051D02*
X95086667Y-60006670D01*
X95086667Y-60006670D02*
X95134286Y-60054289D01*
X95134286Y-60054289D02*
X95181905Y-60149527D01*
X95181905Y-60149527D02*
X95181905Y-60244765D01*
X95181905Y-60244765D02*
X95134286Y-60387622D01*
X95134286Y-60387622D02*
X94562858Y-60959051D01*
X94562858Y-60959051D02*
X95181905Y-60959051D01*
X49238095Y-90154819D02*
X49238095Y-89154819D01*
X49238095Y-89631009D02*
X49809523Y-89631009D01*
X49809523Y-90154819D02*
X49809523Y-89154819D01*
X50190476Y-89154819D02*
X50809523Y-89154819D01*
X50809523Y-89154819D02*
X50476190Y-89535771D01*
X50476190Y-89535771D02*
X50619047Y-89535771D01*
X50619047Y-89535771D02*
X50714285Y-89583390D01*
X50714285Y-89583390D02*
X50761904Y-89631009D01*
X50761904Y-89631009D02*
X50809523Y-89726247D01*
X50809523Y-89726247D02*
X50809523Y-89964342D01*
X50809523Y-89964342D02*
X50761904Y-90059580D01*
X50761904Y-90059580D02*
X50714285Y-90107200D01*
X50714285Y-90107200D02*
X50619047Y-90154819D01*
X50619047Y-90154819D02*
X50333333Y-90154819D01*
X50333333Y-90154819D02*
X50238095Y-90107200D01*
X50238095Y-90107200D02*
X50190476Y-90059580D01*
X112833333Y-47609580D02*
X112785714Y-47657200D01*
X112785714Y-47657200D02*
X112642857Y-47704819D01*
X112642857Y-47704819D02*
X112547619Y-47704819D01*
X112547619Y-47704819D02*
X112404762Y-47657200D01*
X112404762Y-47657200D02*
X112309524Y-47561961D01*
X112309524Y-47561961D02*
X112261905Y-47466723D01*
X112261905Y-47466723D02*
X112214286Y-47276247D01*
X112214286Y-47276247D02*
X112214286Y-47133390D01*
X112214286Y-47133390D02*
X112261905Y-46942914D01*
X112261905Y-46942914D02*
X112309524Y-46847676D01*
X112309524Y-46847676D02*
X112404762Y-46752438D01*
X112404762Y-46752438D02*
X112547619Y-46704819D01*
X112547619Y-46704819D02*
X112642857Y-46704819D01*
X112642857Y-46704819D02*
X112785714Y-46752438D01*
X112785714Y-46752438D02*
X112833333Y-46800057D01*
X113166667Y-46704819D02*
X113785714Y-46704819D01*
X113785714Y-46704819D02*
X113452381Y-47085771D01*
X113452381Y-47085771D02*
X113595238Y-47085771D01*
X113595238Y-47085771D02*
X113690476Y-47133390D01*
X113690476Y-47133390D02*
X113738095Y-47181009D01*
X113738095Y-47181009D02*
X113785714Y-47276247D01*
X113785714Y-47276247D02*
X113785714Y-47514342D01*
X113785714Y-47514342D02*
X113738095Y-47609580D01*
X113738095Y-47609580D02*
X113690476Y-47657200D01*
X113690476Y-47657200D02*
X113595238Y-47704819D01*
X113595238Y-47704819D02*
X113309524Y-47704819D01*
X113309524Y-47704819D02*
X113214286Y-47657200D01*
X113214286Y-47657200D02*
X113166667Y-47609580D01*
X81548095Y-104984819D02*
X81548095Y-105794342D01*
X81548095Y-105794342D02*
X81595714Y-105889580D01*
X81595714Y-105889580D02*
X81643333Y-105937200D01*
X81643333Y-105937200D02*
X81738571Y-105984819D01*
X81738571Y-105984819D02*
X81929047Y-105984819D01*
X81929047Y-105984819D02*
X82024285Y-105937200D01*
X82024285Y-105937200D02*
X82071904Y-105889580D01*
X82071904Y-105889580D02*
X82119523Y-105794342D01*
X82119523Y-105794342D02*
X82119523Y-104984819D01*
X83071904Y-104984819D02*
X82595714Y-104984819D01*
X82595714Y-104984819D02*
X82548095Y-105461009D01*
X82548095Y-105461009D02*
X82595714Y-105413390D01*
X82595714Y-105413390D02*
X82690952Y-105365771D01*
X82690952Y-105365771D02*
X82929047Y-105365771D01*
X82929047Y-105365771D02*
X83024285Y-105413390D01*
X83024285Y-105413390D02*
X83071904Y-105461009D01*
X83071904Y-105461009D02*
X83119523Y-105556247D01*
X83119523Y-105556247D02*
X83119523Y-105794342D01*
X83119523Y-105794342D02*
X83071904Y-105889580D01*
X83071904Y-105889580D02*
X83024285Y-105937200D01*
X83024285Y-105937200D02*
X82929047Y-105984819D01*
X82929047Y-105984819D02*
X82690952Y-105984819D01*
X82690952Y-105984819D02*
X82595714Y-105937200D01*
X82595714Y-105937200D02*
X82548095Y-105889580D01*
X51253333Y-64084819D02*
X50920000Y-63608628D01*
X50681905Y-64084819D02*
X50681905Y-63084819D01*
X50681905Y-63084819D02*
X51062857Y-63084819D01*
X51062857Y-63084819D02*
X51158095Y-63132438D01*
X51158095Y-63132438D02*
X51205714Y-63180057D01*
X51205714Y-63180057D02*
X51253333Y-63275295D01*
X51253333Y-63275295D02*
X51253333Y-63418152D01*
X51253333Y-63418152D02*
X51205714Y-63513390D01*
X51205714Y-63513390D02*
X51158095Y-63561009D01*
X51158095Y-63561009D02*
X51062857Y-63608628D01*
X51062857Y-63608628D02*
X50681905Y-63608628D01*
X51634286Y-63180057D02*
X51681905Y-63132438D01*
X51681905Y-63132438D02*
X51777143Y-63084819D01*
X51777143Y-63084819D02*
X52015238Y-63084819D01*
X52015238Y-63084819D02*
X52110476Y-63132438D01*
X52110476Y-63132438D02*
X52158095Y-63180057D01*
X52158095Y-63180057D02*
X52205714Y-63275295D01*
X52205714Y-63275295D02*
X52205714Y-63370533D01*
X52205714Y-63370533D02*
X52158095Y-63513390D01*
X52158095Y-63513390D02*
X51586667Y-64084819D01*
X51586667Y-64084819D02*
X52205714Y-64084819D01*
X93277143Y-57959051D02*
X92943810Y-57482860D01*
X92705715Y-57959051D02*
X92705715Y-56959051D01*
X92705715Y-56959051D02*
X93086667Y-56959051D01*
X93086667Y-56959051D02*
X93181905Y-57006670D01*
X93181905Y-57006670D02*
X93229524Y-57054289D01*
X93229524Y-57054289D02*
X93277143Y-57149527D01*
X93277143Y-57149527D02*
X93277143Y-57292384D01*
X93277143Y-57292384D02*
X93229524Y-57387622D01*
X93229524Y-57387622D02*
X93181905Y-57435241D01*
X93181905Y-57435241D02*
X93086667Y-57482860D01*
X93086667Y-57482860D02*
X92705715Y-57482860D01*
X93658096Y-57054289D02*
X93705715Y-57006670D01*
X93705715Y-57006670D02*
X93800953Y-56959051D01*
X93800953Y-56959051D02*
X94039048Y-56959051D01*
X94039048Y-56959051D02*
X94134286Y-57006670D01*
X94134286Y-57006670D02*
X94181905Y-57054289D01*
X94181905Y-57054289D02*
X94229524Y-57149527D01*
X94229524Y-57149527D02*
X94229524Y-57244765D01*
X94229524Y-57244765D02*
X94181905Y-57387622D01*
X94181905Y-57387622D02*
X93610477Y-57959051D01*
X93610477Y-57959051D02*
X94229524Y-57959051D01*
X94562858Y-56959051D02*
X95181905Y-56959051D01*
X95181905Y-56959051D02*
X94848572Y-57340003D01*
X94848572Y-57340003D02*
X94991429Y-57340003D01*
X94991429Y-57340003D02*
X95086667Y-57387622D01*
X95086667Y-57387622D02*
X95134286Y-57435241D01*
X95134286Y-57435241D02*
X95181905Y-57530479D01*
X95181905Y-57530479D02*
X95181905Y-57768574D01*
X95181905Y-57768574D02*
X95134286Y-57863812D01*
X95134286Y-57863812D02*
X95086667Y-57911432D01*
X95086667Y-57911432D02*
X94991429Y-57959051D01*
X94991429Y-57959051D02*
X94705715Y-57959051D01*
X94705715Y-57959051D02*
X94610477Y-57911432D01*
X94610477Y-57911432D02*
X94562858Y-57863812D01*
X117166666Y-47204819D02*
X117166666Y-47919104D01*
X117166666Y-47919104D02*
X117119047Y-48061961D01*
X117119047Y-48061961D02*
X117023809Y-48157200D01*
X117023809Y-48157200D02*
X116880952Y-48204819D01*
X116880952Y-48204819D02*
X116785714Y-48204819D01*
X117547619Y-47204819D02*
X118166666Y-47204819D01*
X118166666Y-47204819D02*
X117833333Y-47585771D01*
X117833333Y-47585771D02*
X117976190Y-47585771D01*
X117976190Y-47585771D02*
X118071428Y-47633390D01*
X118071428Y-47633390D02*
X118119047Y-47681009D01*
X118119047Y-47681009D02*
X118166666Y-47776247D01*
X118166666Y-47776247D02*
X118166666Y-48014342D01*
X118166666Y-48014342D02*
X118119047Y-48109580D01*
X118119047Y-48109580D02*
X118071428Y-48157200D01*
X118071428Y-48157200D02*
X117976190Y-48204819D01*
X117976190Y-48204819D02*
X117690476Y-48204819D01*
X117690476Y-48204819D02*
X117595238Y-48157200D01*
X117595238Y-48157200D02*
X117547619Y-48109580D01*
X135277142Y-84954819D02*
X134943809Y-84478628D01*
X134705714Y-84954819D02*
X134705714Y-83954819D01*
X134705714Y-83954819D02*
X135086666Y-83954819D01*
X135086666Y-83954819D02*
X135181904Y-84002438D01*
X135181904Y-84002438D02*
X135229523Y-84050057D01*
X135229523Y-84050057D02*
X135277142Y-84145295D01*
X135277142Y-84145295D02*
X135277142Y-84288152D01*
X135277142Y-84288152D02*
X135229523Y-84383390D01*
X135229523Y-84383390D02*
X135181904Y-84431009D01*
X135181904Y-84431009D02*
X135086666Y-84478628D01*
X135086666Y-84478628D02*
X134705714Y-84478628D01*
X135610476Y-83954819D02*
X136229523Y-83954819D01*
X136229523Y-83954819D02*
X135896190Y-84335771D01*
X135896190Y-84335771D02*
X136039047Y-84335771D01*
X136039047Y-84335771D02*
X136134285Y-84383390D01*
X136134285Y-84383390D02*
X136181904Y-84431009D01*
X136181904Y-84431009D02*
X136229523Y-84526247D01*
X136229523Y-84526247D02*
X136229523Y-84764342D01*
X136229523Y-84764342D02*
X136181904Y-84859580D01*
X136181904Y-84859580D02*
X136134285Y-84907200D01*
X136134285Y-84907200D02*
X136039047Y-84954819D01*
X136039047Y-84954819D02*
X135753333Y-84954819D01*
X135753333Y-84954819D02*
X135658095Y-84907200D01*
X135658095Y-84907200D02*
X135610476Y-84859580D01*
X136562857Y-83954819D02*
X137229523Y-83954819D01*
X137229523Y-83954819D02*
X136800952Y-84954819D01*
X148454819Y-85722857D02*
X147978628Y-86056190D01*
X148454819Y-86294285D02*
X147454819Y-86294285D01*
X147454819Y-86294285D02*
X147454819Y-85913333D01*
X147454819Y-85913333D02*
X147502438Y-85818095D01*
X147502438Y-85818095D02*
X147550057Y-85770476D01*
X147550057Y-85770476D02*
X147645295Y-85722857D01*
X147645295Y-85722857D02*
X147788152Y-85722857D01*
X147788152Y-85722857D02*
X147883390Y-85770476D01*
X147883390Y-85770476D02*
X147931009Y-85818095D01*
X147931009Y-85818095D02*
X147978628Y-85913333D01*
X147978628Y-85913333D02*
X147978628Y-86294285D01*
X147788152Y-84865714D02*
X148454819Y-84865714D01*
X147407200Y-85103809D02*
X148121485Y-85341904D01*
X148121485Y-85341904D02*
X148121485Y-84722857D01*
X147454819Y-84151428D02*
X147454819Y-84056190D01*
X147454819Y-84056190D02*
X147502438Y-83960952D01*
X147502438Y-83960952D02*
X147550057Y-83913333D01*
X147550057Y-83913333D02*
X147645295Y-83865714D01*
X147645295Y-83865714D02*
X147835771Y-83818095D01*
X147835771Y-83818095D02*
X148073866Y-83818095D01*
X148073866Y-83818095D02*
X148264342Y-83865714D01*
X148264342Y-83865714D02*
X148359580Y-83913333D01*
X148359580Y-83913333D02*
X148407200Y-83960952D01*
X148407200Y-83960952D02*
X148454819Y-84056190D01*
X148454819Y-84056190D02*
X148454819Y-84151428D01*
X148454819Y-84151428D02*
X148407200Y-84246666D01*
X148407200Y-84246666D02*
X148359580Y-84294285D01*
X148359580Y-84294285D02*
X148264342Y-84341904D01*
X148264342Y-84341904D02*
X148073866Y-84389523D01*
X148073866Y-84389523D02*
X147835771Y-84389523D01*
X147835771Y-84389523D02*
X147645295Y-84341904D01*
X147645295Y-84341904D02*
X147550057Y-84294285D01*
X147550057Y-84294285D02*
X147502438Y-84246666D01*
X147502438Y-84246666D02*
X147454819Y-84151428D01*
X124356667Y-39487200D02*
X124499524Y-39534819D01*
X124499524Y-39534819D02*
X124737619Y-39534819D01*
X124737619Y-39534819D02*
X124832857Y-39487200D01*
X124832857Y-39487200D02*
X124880476Y-39439580D01*
X124880476Y-39439580D02*
X124928095Y-39344342D01*
X124928095Y-39344342D02*
X124928095Y-39249104D01*
X124928095Y-39249104D02*
X124880476Y-39153866D01*
X124880476Y-39153866D02*
X124832857Y-39106247D01*
X124832857Y-39106247D02*
X124737619Y-39058628D01*
X124737619Y-39058628D02*
X124547143Y-39011009D01*
X124547143Y-39011009D02*
X124451905Y-38963390D01*
X124451905Y-38963390D02*
X124404286Y-38915771D01*
X124404286Y-38915771D02*
X124356667Y-38820533D01*
X124356667Y-38820533D02*
X124356667Y-38725295D01*
X124356667Y-38725295D02*
X124404286Y-38630057D01*
X124404286Y-38630057D02*
X124451905Y-38582438D01*
X124451905Y-38582438D02*
X124547143Y-38534819D01*
X124547143Y-38534819D02*
X124785238Y-38534819D01*
X124785238Y-38534819D02*
X124928095Y-38582438D01*
X125261429Y-38534819D02*
X125499524Y-39534819D01*
X125499524Y-39534819D02*
X125690000Y-38820533D01*
X125690000Y-38820533D02*
X125880476Y-39534819D01*
X125880476Y-39534819D02*
X126118572Y-38534819D01*
X127023333Y-39534819D02*
X126451905Y-39534819D01*
X126737619Y-39534819D02*
X126737619Y-38534819D01*
X126737619Y-38534819D02*
X126642381Y-38677676D01*
X126642381Y-38677676D02*
X126547143Y-38772914D01*
X126547143Y-38772914D02*
X126451905Y-38820533D01*
X74738095Y-55954819D02*
X74738095Y-56764342D01*
X74738095Y-56764342D02*
X74785714Y-56859580D01*
X74785714Y-56859580D02*
X74833333Y-56907200D01*
X74833333Y-56907200D02*
X74928571Y-56954819D01*
X74928571Y-56954819D02*
X75119047Y-56954819D01*
X75119047Y-56954819D02*
X75214285Y-56907200D01*
X75214285Y-56907200D02*
X75261904Y-56859580D01*
X75261904Y-56859580D02*
X75309523Y-56764342D01*
X75309523Y-56764342D02*
X75309523Y-55954819D01*
X76214285Y-56288152D02*
X76214285Y-56954819D01*
X75976190Y-55907200D02*
X75738095Y-56621485D01*
X75738095Y-56621485D02*
X76357142Y-56621485D01*
X106610095Y-52781819D02*
X106610095Y-53591342D01*
X106610095Y-53591342D02*
X106657714Y-53686580D01*
X106657714Y-53686580D02*
X106705333Y-53734200D01*
X106705333Y-53734200D02*
X106800571Y-53781819D01*
X106800571Y-53781819D02*
X106991047Y-53781819D01*
X106991047Y-53781819D02*
X107086285Y-53734200D01*
X107086285Y-53734200D02*
X107133904Y-53686580D01*
X107133904Y-53686580D02*
X107181523Y-53591342D01*
X107181523Y-53591342D02*
X107181523Y-52781819D01*
X107800571Y-53210390D02*
X107705333Y-53162771D01*
X107705333Y-53162771D02*
X107657714Y-53115152D01*
X107657714Y-53115152D02*
X107610095Y-53019914D01*
X107610095Y-53019914D02*
X107610095Y-52972295D01*
X107610095Y-52972295D02*
X107657714Y-52877057D01*
X107657714Y-52877057D02*
X107705333Y-52829438D01*
X107705333Y-52829438D02*
X107800571Y-52781819D01*
X107800571Y-52781819D02*
X107991047Y-52781819D01*
X107991047Y-52781819D02*
X108086285Y-52829438D01*
X108086285Y-52829438D02*
X108133904Y-52877057D01*
X108133904Y-52877057D02*
X108181523Y-52972295D01*
X108181523Y-52972295D02*
X108181523Y-53019914D01*
X108181523Y-53019914D02*
X108133904Y-53115152D01*
X108133904Y-53115152D02*
X108086285Y-53162771D01*
X108086285Y-53162771D02*
X107991047Y-53210390D01*
X107991047Y-53210390D02*
X107800571Y-53210390D01*
X107800571Y-53210390D02*
X107705333Y-53258009D01*
X107705333Y-53258009D02*
X107657714Y-53305628D01*
X107657714Y-53305628D02*
X107610095Y-53400866D01*
X107610095Y-53400866D02*
X107610095Y-53591342D01*
X107610095Y-53591342D02*
X107657714Y-53686580D01*
X107657714Y-53686580D02*
X107705333Y-53734200D01*
X107705333Y-53734200D02*
X107800571Y-53781819D01*
X107800571Y-53781819D02*
X107991047Y-53781819D01*
X107991047Y-53781819D02*
X108086285Y-53734200D01*
X108086285Y-53734200D02*
X108133904Y-53686580D01*
X108133904Y-53686580D02*
X108181523Y-53591342D01*
X108181523Y-53591342D02*
X108181523Y-53400866D01*
X108181523Y-53400866D02*
X108133904Y-53305628D01*
X108133904Y-53305628D02*
X108086285Y-53258009D01*
X108086285Y-53258009D02*
X107991047Y-53210390D01*
X114261905Y-104054819D02*
X114261905Y-103054819D01*
X114261905Y-103054819D02*
X114642857Y-103054819D01*
X114642857Y-103054819D02*
X114738095Y-103102438D01*
X114738095Y-103102438D02*
X114785714Y-103150057D01*
X114785714Y-103150057D02*
X114833333Y-103245295D01*
X114833333Y-103245295D02*
X114833333Y-103388152D01*
X114833333Y-103388152D02*
X114785714Y-103483390D01*
X114785714Y-103483390D02*
X114738095Y-103531009D01*
X114738095Y-103531009D02*
X114642857Y-103578628D01*
X114642857Y-103578628D02*
X114261905Y-103578628D01*
X115785714Y-104054819D02*
X115214286Y-104054819D01*
X115500000Y-104054819D02*
X115500000Y-103054819D01*
X115500000Y-103054819D02*
X115404762Y-103197676D01*
X115404762Y-103197676D02*
X115309524Y-103292914D01*
X115309524Y-103292914D02*
X115214286Y-103340533D01*
X164214582Y-88162566D02*
X164214582Y-88972089D01*
X164214582Y-88972089D02*
X164262201Y-89067327D01*
X164262201Y-89067327D02*
X164309820Y-89114947D01*
X164309820Y-89114947D02*
X164405058Y-89162566D01*
X164405058Y-89162566D02*
X164595534Y-89162566D01*
X164595534Y-89162566D02*
X164690772Y-89114947D01*
X164690772Y-89114947D02*
X164738391Y-89067327D01*
X164738391Y-89067327D02*
X164786010Y-88972089D01*
X164786010Y-88972089D02*
X164786010Y-88162566D01*
X165690772Y-88162566D02*
X165500296Y-88162566D01*
X165500296Y-88162566D02*
X165405058Y-88210185D01*
X165405058Y-88210185D02*
X165357439Y-88257804D01*
X165357439Y-88257804D02*
X165262201Y-88400661D01*
X165262201Y-88400661D02*
X165214582Y-88591137D01*
X165214582Y-88591137D02*
X165214582Y-88972089D01*
X165214582Y-88972089D02*
X165262201Y-89067327D01*
X165262201Y-89067327D02*
X165309820Y-89114947D01*
X165309820Y-89114947D02*
X165405058Y-89162566D01*
X165405058Y-89162566D02*
X165595534Y-89162566D01*
X165595534Y-89162566D02*
X165690772Y-89114947D01*
X165690772Y-89114947D02*
X165738391Y-89067327D01*
X165738391Y-89067327D02*
X165786010Y-88972089D01*
X165786010Y-88972089D02*
X165786010Y-88733994D01*
X165786010Y-88733994D02*
X165738391Y-88638756D01*
X165738391Y-88638756D02*
X165690772Y-88591137D01*
X165690772Y-88591137D02*
X165595534Y-88543518D01*
X165595534Y-88543518D02*
X165405058Y-88543518D01*
X165405058Y-88543518D02*
X165309820Y-88591137D01*
X165309820Y-88591137D02*
X165262201Y-88638756D01*
X165262201Y-88638756D02*
X165214582Y-88733994D01*
X123761905Y-110954819D02*
X123761905Y-109954819D01*
X123761905Y-109954819D02*
X124000000Y-109954819D01*
X124000000Y-109954819D02*
X124142857Y-110002438D01*
X124142857Y-110002438D02*
X124238095Y-110097676D01*
X124238095Y-110097676D02*
X124285714Y-110192914D01*
X124285714Y-110192914D02*
X124333333Y-110383390D01*
X124333333Y-110383390D02*
X124333333Y-110526247D01*
X124333333Y-110526247D02*
X124285714Y-110716723D01*
X124285714Y-110716723D02*
X124238095Y-110811961D01*
X124238095Y-110811961D02*
X124142857Y-110907200D01*
X124142857Y-110907200D02*
X124000000Y-110954819D01*
X124000000Y-110954819D02*
X123761905Y-110954819D01*
X125285714Y-110954819D02*
X124714286Y-110954819D01*
X125000000Y-110954819D02*
X125000000Y-109954819D01*
X125000000Y-109954819D02*
X124904762Y-110097676D01*
X124904762Y-110097676D02*
X124809524Y-110192914D01*
X124809524Y-110192914D02*
X124714286Y-110240533D01*
X126161905Y-108709104D02*
X126638095Y-108709104D01*
X126066667Y-108994819D02*
X126400000Y-107994819D01*
X126400000Y-107994819D02*
X126733333Y-108994819D01*
X63916667Y-86157200D02*
X64059524Y-86204819D01*
X64059524Y-86204819D02*
X64297619Y-86204819D01*
X64297619Y-86204819D02*
X64392857Y-86157200D01*
X64392857Y-86157200D02*
X64440476Y-86109580D01*
X64440476Y-86109580D02*
X64488095Y-86014342D01*
X64488095Y-86014342D02*
X64488095Y-85919104D01*
X64488095Y-85919104D02*
X64440476Y-85823866D01*
X64440476Y-85823866D02*
X64392857Y-85776247D01*
X64392857Y-85776247D02*
X64297619Y-85728628D01*
X64297619Y-85728628D02*
X64107143Y-85681009D01*
X64107143Y-85681009D02*
X64011905Y-85633390D01*
X64011905Y-85633390D02*
X63964286Y-85585771D01*
X63964286Y-85585771D02*
X63916667Y-85490533D01*
X63916667Y-85490533D02*
X63916667Y-85395295D01*
X63916667Y-85395295D02*
X63964286Y-85300057D01*
X63964286Y-85300057D02*
X64011905Y-85252438D01*
X64011905Y-85252438D02*
X64107143Y-85204819D01*
X64107143Y-85204819D02*
X64345238Y-85204819D01*
X64345238Y-85204819D02*
X64488095Y-85252438D01*
X64821429Y-85204819D02*
X65059524Y-86204819D01*
X65059524Y-86204819D02*
X65250000Y-85490533D01*
X65250000Y-85490533D02*
X65440476Y-86204819D01*
X65440476Y-86204819D02*
X65678572Y-85204819D01*
X66488095Y-85538152D02*
X66488095Y-86204819D01*
X66250000Y-85157200D02*
X66011905Y-85871485D01*
X66011905Y-85871485D02*
X66630952Y-85871485D01*
X63166666Y-56704819D02*
X63166666Y-57419104D01*
X63166666Y-57419104D02*
X63119047Y-57561961D01*
X63119047Y-57561961D02*
X63023809Y-57657200D01*
X63023809Y-57657200D02*
X62880952Y-57704819D01*
X62880952Y-57704819D02*
X62785714Y-57704819D01*
X63595238Y-56800057D02*
X63642857Y-56752438D01*
X63642857Y-56752438D02*
X63738095Y-56704819D01*
X63738095Y-56704819D02*
X63976190Y-56704819D01*
X63976190Y-56704819D02*
X64071428Y-56752438D01*
X64071428Y-56752438D02*
X64119047Y-56800057D01*
X64119047Y-56800057D02*
X64166666Y-56895295D01*
X64166666Y-56895295D02*
X64166666Y-56990533D01*
X64166666Y-56990533D02*
X64119047Y-57133390D01*
X64119047Y-57133390D02*
X63547619Y-57704819D01*
X63547619Y-57704819D02*
X64166666Y-57704819D01*
X93277143Y-66959051D02*
X92943810Y-66482860D01*
X92705715Y-66959051D02*
X92705715Y-65959051D01*
X92705715Y-65959051D02*
X93086667Y-65959051D01*
X93086667Y-65959051D02*
X93181905Y-66006670D01*
X93181905Y-66006670D02*
X93229524Y-66054289D01*
X93229524Y-66054289D02*
X93277143Y-66149527D01*
X93277143Y-66149527D02*
X93277143Y-66292384D01*
X93277143Y-66292384D02*
X93229524Y-66387622D01*
X93229524Y-66387622D02*
X93181905Y-66435241D01*
X93181905Y-66435241D02*
X93086667Y-66482860D01*
X93086667Y-66482860D02*
X92705715Y-66482860D01*
X93658096Y-66054289D02*
X93705715Y-66006670D01*
X93705715Y-66006670D02*
X93800953Y-65959051D01*
X93800953Y-65959051D02*
X94039048Y-65959051D01*
X94039048Y-65959051D02*
X94134286Y-66006670D01*
X94134286Y-66006670D02*
X94181905Y-66054289D01*
X94181905Y-66054289D02*
X94229524Y-66149527D01*
X94229524Y-66149527D02*
X94229524Y-66244765D01*
X94229524Y-66244765D02*
X94181905Y-66387622D01*
X94181905Y-66387622D02*
X93610477Y-66959051D01*
X93610477Y-66959051D02*
X94229524Y-66959051D01*
X94848572Y-65959051D02*
X94943810Y-65959051D01*
X94943810Y-65959051D02*
X95039048Y-66006670D01*
X95039048Y-66006670D02*
X95086667Y-66054289D01*
X95086667Y-66054289D02*
X95134286Y-66149527D01*
X95134286Y-66149527D02*
X95181905Y-66340003D01*
X95181905Y-66340003D02*
X95181905Y-66578098D01*
X95181905Y-66578098D02*
X95134286Y-66768574D01*
X95134286Y-66768574D02*
X95086667Y-66863812D01*
X95086667Y-66863812D02*
X95039048Y-66911432D01*
X95039048Y-66911432D02*
X94943810Y-66959051D01*
X94943810Y-66959051D02*
X94848572Y-66959051D01*
X94848572Y-66959051D02*
X94753334Y-66911432D01*
X94753334Y-66911432D02*
X94705715Y-66863812D01*
X94705715Y-66863812D02*
X94658096Y-66768574D01*
X94658096Y-66768574D02*
X94610477Y-66578098D01*
X94610477Y-66578098D02*
X94610477Y-66340003D01*
X94610477Y-66340003D02*
X94658096Y-66149527D01*
X94658096Y-66149527D02*
X94705715Y-66054289D01*
X94705715Y-66054289D02*
X94753334Y-66006670D01*
X94753334Y-66006670D02*
X94848572Y-65959051D01*
X135277142Y-78954819D02*
X134943809Y-78478628D01*
X134705714Y-78954819D02*
X134705714Y-77954819D01*
X134705714Y-77954819D02*
X135086666Y-77954819D01*
X135086666Y-77954819D02*
X135181904Y-78002438D01*
X135181904Y-78002438D02*
X135229523Y-78050057D01*
X135229523Y-78050057D02*
X135277142Y-78145295D01*
X135277142Y-78145295D02*
X135277142Y-78288152D01*
X135277142Y-78288152D02*
X135229523Y-78383390D01*
X135229523Y-78383390D02*
X135181904Y-78431009D01*
X135181904Y-78431009D02*
X135086666Y-78478628D01*
X135086666Y-78478628D02*
X134705714Y-78478628D01*
X135610476Y-77954819D02*
X136229523Y-77954819D01*
X136229523Y-77954819D02*
X135896190Y-78335771D01*
X135896190Y-78335771D02*
X136039047Y-78335771D01*
X136039047Y-78335771D02*
X136134285Y-78383390D01*
X136134285Y-78383390D02*
X136181904Y-78431009D01*
X136181904Y-78431009D02*
X136229523Y-78526247D01*
X136229523Y-78526247D02*
X136229523Y-78764342D01*
X136229523Y-78764342D02*
X136181904Y-78859580D01*
X136181904Y-78859580D02*
X136134285Y-78907200D01*
X136134285Y-78907200D02*
X136039047Y-78954819D01*
X136039047Y-78954819D02*
X135753333Y-78954819D01*
X135753333Y-78954819D02*
X135658095Y-78907200D01*
X135658095Y-78907200D02*
X135610476Y-78859580D01*
X137134285Y-77954819D02*
X136658095Y-77954819D01*
X136658095Y-77954819D02*
X136610476Y-78431009D01*
X136610476Y-78431009D02*
X136658095Y-78383390D01*
X136658095Y-78383390D02*
X136753333Y-78335771D01*
X136753333Y-78335771D02*
X136991428Y-78335771D01*
X136991428Y-78335771D02*
X137086666Y-78383390D01*
X137086666Y-78383390D02*
X137134285Y-78431009D01*
X137134285Y-78431009D02*
X137181904Y-78526247D01*
X137181904Y-78526247D02*
X137181904Y-78764342D01*
X137181904Y-78764342D02*
X137134285Y-78859580D01*
X137134285Y-78859580D02*
X137086666Y-78907200D01*
X137086666Y-78907200D02*
X136991428Y-78954819D01*
X136991428Y-78954819D02*
X136753333Y-78954819D01*
X136753333Y-78954819D02*
X136658095Y-78907200D01*
X136658095Y-78907200D02*
X136610476Y-78859580D01*
X56261905Y-41454819D02*
X56261905Y-40454819D01*
X56261905Y-40454819D02*
X56500000Y-40454819D01*
X56500000Y-40454819D02*
X56642857Y-40502438D01*
X56642857Y-40502438D02*
X56738095Y-40597676D01*
X56738095Y-40597676D02*
X56785714Y-40692914D01*
X56785714Y-40692914D02*
X56833333Y-40883390D01*
X56833333Y-40883390D02*
X56833333Y-41026247D01*
X56833333Y-41026247D02*
X56785714Y-41216723D01*
X56785714Y-41216723D02*
X56738095Y-41311961D01*
X56738095Y-41311961D02*
X56642857Y-41407200D01*
X56642857Y-41407200D02*
X56500000Y-41454819D01*
X56500000Y-41454819D02*
X56261905Y-41454819D01*
X57690476Y-40788152D02*
X57690476Y-41454819D01*
X57452381Y-40407200D02*
X57214286Y-41121485D01*
X57214286Y-41121485D02*
X57833333Y-41121485D01*
X65238095Y-41454819D02*
X65238095Y-40454819D01*
X65809523Y-41454819D02*
X65380952Y-40883390D01*
X65809523Y-40454819D02*
X65238095Y-41026247D01*
X93277143Y-63959051D02*
X92943810Y-63482860D01*
X92705715Y-63959051D02*
X92705715Y-62959051D01*
X92705715Y-62959051D02*
X93086667Y-62959051D01*
X93086667Y-62959051D02*
X93181905Y-63006670D01*
X93181905Y-63006670D02*
X93229524Y-63054289D01*
X93229524Y-63054289D02*
X93277143Y-63149527D01*
X93277143Y-63149527D02*
X93277143Y-63292384D01*
X93277143Y-63292384D02*
X93229524Y-63387622D01*
X93229524Y-63387622D02*
X93181905Y-63435241D01*
X93181905Y-63435241D02*
X93086667Y-63482860D01*
X93086667Y-63482860D02*
X92705715Y-63482860D01*
X93658096Y-63054289D02*
X93705715Y-63006670D01*
X93705715Y-63006670D02*
X93800953Y-62959051D01*
X93800953Y-62959051D02*
X94039048Y-62959051D01*
X94039048Y-62959051D02*
X94134286Y-63006670D01*
X94134286Y-63006670D02*
X94181905Y-63054289D01*
X94181905Y-63054289D02*
X94229524Y-63149527D01*
X94229524Y-63149527D02*
X94229524Y-63244765D01*
X94229524Y-63244765D02*
X94181905Y-63387622D01*
X94181905Y-63387622D02*
X93610477Y-63959051D01*
X93610477Y-63959051D02*
X94229524Y-63959051D01*
X95181905Y-63959051D02*
X94610477Y-63959051D01*
X94896191Y-63959051D02*
X94896191Y-62959051D01*
X94896191Y-62959051D02*
X94800953Y-63101908D01*
X94800953Y-63101908D02*
X94705715Y-63197146D01*
X94705715Y-63197146D02*
X94610477Y-63244765D01*
X93277142Y-78954819D02*
X92943809Y-78478628D01*
X92705714Y-78954819D02*
X92705714Y-77954819D01*
X92705714Y-77954819D02*
X93086666Y-77954819D01*
X93086666Y-77954819D02*
X93181904Y-78002438D01*
X93181904Y-78002438D02*
X93229523Y-78050057D01*
X93229523Y-78050057D02*
X93277142Y-78145295D01*
X93277142Y-78145295D02*
X93277142Y-78288152D01*
X93277142Y-78288152D02*
X93229523Y-78383390D01*
X93229523Y-78383390D02*
X93181904Y-78431009D01*
X93181904Y-78431009D02*
X93086666Y-78478628D01*
X93086666Y-78478628D02*
X92705714Y-78478628D01*
X93610476Y-77954819D02*
X94229523Y-77954819D01*
X94229523Y-77954819D02*
X93896190Y-78335771D01*
X93896190Y-78335771D02*
X94039047Y-78335771D01*
X94039047Y-78335771D02*
X94134285Y-78383390D01*
X94134285Y-78383390D02*
X94181904Y-78431009D01*
X94181904Y-78431009D02*
X94229523Y-78526247D01*
X94229523Y-78526247D02*
X94229523Y-78764342D01*
X94229523Y-78764342D02*
X94181904Y-78859580D01*
X94181904Y-78859580D02*
X94134285Y-78907200D01*
X94134285Y-78907200D02*
X94039047Y-78954819D01*
X94039047Y-78954819D02*
X93753333Y-78954819D01*
X93753333Y-78954819D02*
X93658095Y-78907200D01*
X93658095Y-78907200D02*
X93610476Y-78859580D01*
X94610476Y-78050057D02*
X94658095Y-78002438D01*
X94658095Y-78002438D02*
X94753333Y-77954819D01*
X94753333Y-77954819D02*
X94991428Y-77954819D01*
X94991428Y-77954819D02*
X95086666Y-78002438D01*
X95086666Y-78002438D02*
X95134285Y-78050057D01*
X95134285Y-78050057D02*
X95181904Y-78145295D01*
X95181904Y-78145295D02*
X95181904Y-78240533D01*
X95181904Y-78240533D02*
X95134285Y-78383390D01*
X95134285Y-78383390D02*
X94562857Y-78954819D01*
X94562857Y-78954819D02*
X95181904Y-78954819D01*
X93277142Y-81954819D02*
X92943809Y-81478628D01*
X92705714Y-81954819D02*
X92705714Y-80954819D01*
X92705714Y-80954819D02*
X93086666Y-80954819D01*
X93086666Y-80954819D02*
X93181904Y-81002438D01*
X93181904Y-81002438D02*
X93229523Y-81050057D01*
X93229523Y-81050057D02*
X93277142Y-81145295D01*
X93277142Y-81145295D02*
X93277142Y-81288152D01*
X93277142Y-81288152D02*
X93229523Y-81383390D01*
X93229523Y-81383390D02*
X93181904Y-81431009D01*
X93181904Y-81431009D02*
X93086666Y-81478628D01*
X93086666Y-81478628D02*
X92705714Y-81478628D01*
X93610476Y-80954819D02*
X94229523Y-80954819D01*
X94229523Y-80954819D02*
X93896190Y-81335771D01*
X93896190Y-81335771D02*
X94039047Y-81335771D01*
X94039047Y-81335771D02*
X94134285Y-81383390D01*
X94134285Y-81383390D02*
X94181904Y-81431009D01*
X94181904Y-81431009D02*
X94229523Y-81526247D01*
X94229523Y-81526247D02*
X94229523Y-81764342D01*
X94229523Y-81764342D02*
X94181904Y-81859580D01*
X94181904Y-81859580D02*
X94134285Y-81907200D01*
X94134285Y-81907200D02*
X94039047Y-81954819D01*
X94039047Y-81954819D02*
X93753333Y-81954819D01*
X93753333Y-81954819D02*
X93658095Y-81907200D01*
X93658095Y-81907200D02*
X93610476Y-81859580D01*
X95181904Y-81954819D02*
X94610476Y-81954819D01*
X94896190Y-81954819D02*
X94896190Y-80954819D01*
X94896190Y-80954819D02*
X94800952Y-81097676D01*
X94800952Y-81097676D02*
X94705714Y-81192914D01*
X94705714Y-81192914D02*
X94610476Y-81240533D01*
X135277142Y-63954819D02*
X134943809Y-63478628D01*
X134705714Y-63954819D02*
X134705714Y-62954819D01*
X134705714Y-62954819D02*
X135086666Y-62954819D01*
X135086666Y-62954819D02*
X135181904Y-63002438D01*
X135181904Y-63002438D02*
X135229523Y-63050057D01*
X135229523Y-63050057D02*
X135277142Y-63145295D01*
X135277142Y-63145295D02*
X135277142Y-63288152D01*
X135277142Y-63288152D02*
X135229523Y-63383390D01*
X135229523Y-63383390D02*
X135181904Y-63431009D01*
X135181904Y-63431009D02*
X135086666Y-63478628D01*
X135086666Y-63478628D02*
X134705714Y-63478628D01*
X136229523Y-63954819D02*
X135658095Y-63954819D01*
X135943809Y-63954819D02*
X135943809Y-62954819D01*
X135943809Y-62954819D02*
X135848571Y-63097676D01*
X135848571Y-63097676D02*
X135753333Y-63192914D01*
X135753333Y-63192914D02*
X135658095Y-63240533D01*
X137086666Y-63288152D02*
X137086666Y-63954819D01*
X136848571Y-62907200D02*
X136610476Y-63621485D01*
X136610476Y-63621485D02*
X137229523Y-63621485D01*
X179238095Y-90154819D02*
X179238095Y-89154819D01*
X179238095Y-89631009D02*
X179809523Y-89631009D01*
X179809523Y-90154819D02*
X179809523Y-89154819D01*
X180714285Y-89488152D02*
X180714285Y-90154819D01*
X180476190Y-89107200D02*
X180238095Y-89821485D01*
X180238095Y-89821485D02*
X180857142Y-89821485D01*
X102761905Y-47954819D02*
X102761905Y-46954819D01*
X102761905Y-46954819D02*
X103000000Y-46954819D01*
X103000000Y-46954819D02*
X103142857Y-47002438D01*
X103142857Y-47002438D02*
X103238095Y-47097676D01*
X103238095Y-47097676D02*
X103285714Y-47192914D01*
X103285714Y-47192914D02*
X103333333Y-47383390D01*
X103333333Y-47383390D02*
X103333333Y-47526247D01*
X103333333Y-47526247D02*
X103285714Y-47716723D01*
X103285714Y-47716723D02*
X103238095Y-47811961D01*
X103238095Y-47811961D02*
X103142857Y-47907200D01*
X103142857Y-47907200D02*
X103000000Y-47954819D01*
X103000000Y-47954819D02*
X102761905Y-47954819D01*
X103714286Y-47050057D02*
X103761905Y-47002438D01*
X103761905Y-47002438D02*
X103857143Y-46954819D01*
X103857143Y-46954819D02*
X104095238Y-46954819D01*
X104095238Y-46954819D02*
X104190476Y-47002438D01*
X104190476Y-47002438D02*
X104238095Y-47050057D01*
X104238095Y-47050057D02*
X104285714Y-47145295D01*
X104285714Y-47145295D02*
X104285714Y-47240533D01*
X104285714Y-47240533D02*
X104238095Y-47383390D01*
X104238095Y-47383390D02*
X103666667Y-47954819D01*
X103666667Y-47954819D02*
X104285714Y-47954819D01*
X111238095Y-47954819D02*
X111238095Y-46954819D01*
X111809523Y-47954819D02*
X111380952Y-47383390D01*
X111809523Y-46954819D02*
X111238095Y-47526247D01*
X135277142Y-54954819D02*
X134943809Y-54478628D01*
X134705714Y-54954819D02*
X134705714Y-53954819D01*
X134705714Y-53954819D02*
X135086666Y-53954819D01*
X135086666Y-53954819D02*
X135181904Y-54002438D01*
X135181904Y-54002438D02*
X135229523Y-54050057D01*
X135229523Y-54050057D02*
X135277142Y-54145295D01*
X135277142Y-54145295D02*
X135277142Y-54288152D01*
X135277142Y-54288152D02*
X135229523Y-54383390D01*
X135229523Y-54383390D02*
X135181904Y-54431009D01*
X135181904Y-54431009D02*
X135086666Y-54478628D01*
X135086666Y-54478628D02*
X134705714Y-54478628D01*
X136229523Y-54954819D02*
X135658095Y-54954819D01*
X135943809Y-54954819D02*
X135943809Y-53954819D01*
X135943809Y-53954819D02*
X135848571Y-54097676D01*
X135848571Y-54097676D02*
X135753333Y-54192914D01*
X135753333Y-54192914D02*
X135658095Y-54240533D01*
X137181904Y-54954819D02*
X136610476Y-54954819D01*
X136896190Y-54954819D02*
X136896190Y-53954819D01*
X136896190Y-53954819D02*
X136800952Y-54097676D01*
X136800952Y-54097676D02*
X136705714Y-54192914D01*
X136705714Y-54192914D02*
X136610476Y-54240533D01*
X59954819Y-59238094D02*
X58954819Y-59238094D01*
X58954819Y-59238094D02*
X58954819Y-58999999D01*
X58954819Y-58999999D02*
X59002438Y-58857142D01*
X59002438Y-58857142D02*
X59097676Y-58761904D01*
X59097676Y-58761904D02*
X59192914Y-58714285D01*
X59192914Y-58714285D02*
X59383390Y-58666666D01*
X59383390Y-58666666D02*
X59526247Y-58666666D01*
X59526247Y-58666666D02*
X59716723Y-58714285D01*
X59716723Y-58714285D02*
X59811961Y-58761904D01*
X59811961Y-58761904D02*
X59907200Y-58857142D01*
X59907200Y-58857142D02*
X59954819Y-58999999D01*
X59954819Y-58999999D02*
X59954819Y-59238094D01*
X58954819Y-58333332D02*
X58954819Y-57714285D01*
X58954819Y-57714285D02*
X59335771Y-58047618D01*
X59335771Y-58047618D02*
X59335771Y-57904761D01*
X59335771Y-57904761D02*
X59383390Y-57809523D01*
X59383390Y-57809523D02*
X59431009Y-57761904D01*
X59431009Y-57761904D02*
X59526247Y-57714285D01*
X59526247Y-57714285D02*
X59764342Y-57714285D01*
X59764342Y-57714285D02*
X59859580Y-57761904D01*
X59859580Y-57761904D02*
X59907200Y-57809523D01*
X59907200Y-57809523D02*
X59954819Y-57904761D01*
X59954819Y-57904761D02*
X59954819Y-58190475D01*
X59954819Y-58190475D02*
X59907200Y-58285713D01*
X59907200Y-58285713D02*
X59859580Y-58333332D01*
X59954819Y-50261904D02*
X58954819Y-50261904D01*
X59954819Y-49690476D02*
X59383390Y-50119047D01*
X58954819Y-49690476D02*
X59526247Y-50261904D01*
X93277142Y-84954819D02*
X92943809Y-84478628D01*
X92705714Y-84954819D02*
X92705714Y-83954819D01*
X92705714Y-83954819D02*
X93086666Y-83954819D01*
X93086666Y-83954819D02*
X93181904Y-84002438D01*
X93181904Y-84002438D02*
X93229523Y-84050057D01*
X93229523Y-84050057D02*
X93277142Y-84145295D01*
X93277142Y-84145295D02*
X93277142Y-84288152D01*
X93277142Y-84288152D02*
X93229523Y-84383390D01*
X93229523Y-84383390D02*
X93181904Y-84431009D01*
X93181904Y-84431009D02*
X93086666Y-84478628D01*
X93086666Y-84478628D02*
X92705714Y-84478628D01*
X93610476Y-83954819D02*
X94229523Y-83954819D01*
X94229523Y-83954819D02*
X93896190Y-84335771D01*
X93896190Y-84335771D02*
X94039047Y-84335771D01*
X94039047Y-84335771D02*
X94134285Y-84383390D01*
X94134285Y-84383390D02*
X94181904Y-84431009D01*
X94181904Y-84431009D02*
X94229523Y-84526247D01*
X94229523Y-84526247D02*
X94229523Y-84764342D01*
X94229523Y-84764342D02*
X94181904Y-84859580D01*
X94181904Y-84859580D02*
X94134285Y-84907200D01*
X94134285Y-84907200D02*
X94039047Y-84954819D01*
X94039047Y-84954819D02*
X93753333Y-84954819D01*
X93753333Y-84954819D02*
X93658095Y-84907200D01*
X93658095Y-84907200D02*
X93610476Y-84859580D01*
X94848571Y-83954819D02*
X94943809Y-83954819D01*
X94943809Y-83954819D02*
X95039047Y-84002438D01*
X95039047Y-84002438D02*
X95086666Y-84050057D01*
X95086666Y-84050057D02*
X95134285Y-84145295D01*
X95134285Y-84145295D02*
X95181904Y-84335771D01*
X95181904Y-84335771D02*
X95181904Y-84573866D01*
X95181904Y-84573866D02*
X95134285Y-84764342D01*
X95134285Y-84764342D02*
X95086666Y-84859580D01*
X95086666Y-84859580D02*
X95039047Y-84907200D01*
X95039047Y-84907200D02*
X94943809Y-84954819D01*
X94943809Y-84954819D02*
X94848571Y-84954819D01*
X94848571Y-84954819D02*
X94753333Y-84907200D01*
X94753333Y-84907200D02*
X94705714Y-84859580D01*
X94705714Y-84859580D02*
X94658095Y-84764342D01*
X94658095Y-84764342D02*
X94610476Y-84573866D01*
X94610476Y-84573866D02*
X94610476Y-84335771D01*
X94610476Y-84335771D02*
X94658095Y-84145295D01*
X94658095Y-84145295D02*
X94705714Y-84050057D01*
X94705714Y-84050057D02*
X94753333Y-84002438D01*
X94753333Y-84002438D02*
X94848571Y-83954819D01*
X93277143Y-72959051D02*
X92943810Y-72482860D01*
X92705715Y-72959051D02*
X92705715Y-71959051D01*
X92705715Y-71959051D02*
X93086667Y-71959051D01*
X93086667Y-71959051D02*
X93181905Y-72006670D01*
X93181905Y-72006670D02*
X93229524Y-72054289D01*
X93229524Y-72054289D02*
X93277143Y-72149527D01*
X93277143Y-72149527D02*
X93277143Y-72292384D01*
X93277143Y-72292384D02*
X93229524Y-72387622D01*
X93229524Y-72387622D02*
X93181905Y-72435241D01*
X93181905Y-72435241D02*
X93086667Y-72482860D01*
X93086667Y-72482860D02*
X92705715Y-72482860D01*
X94229524Y-72959051D02*
X93658096Y-72959051D01*
X93943810Y-72959051D02*
X93943810Y-71959051D01*
X93943810Y-71959051D02*
X93848572Y-72101908D01*
X93848572Y-72101908D02*
X93753334Y-72197146D01*
X93753334Y-72197146D02*
X93658096Y-72244765D01*
X94800953Y-72387622D02*
X94705715Y-72340003D01*
X94705715Y-72340003D02*
X94658096Y-72292384D01*
X94658096Y-72292384D02*
X94610477Y-72197146D01*
X94610477Y-72197146D02*
X94610477Y-72149527D01*
X94610477Y-72149527D02*
X94658096Y-72054289D01*
X94658096Y-72054289D02*
X94705715Y-72006670D01*
X94705715Y-72006670D02*
X94800953Y-71959051D01*
X94800953Y-71959051D02*
X94991429Y-71959051D01*
X94991429Y-71959051D02*
X95086667Y-72006670D01*
X95086667Y-72006670D02*
X95134286Y-72054289D01*
X95134286Y-72054289D02*
X95181905Y-72149527D01*
X95181905Y-72149527D02*
X95181905Y-72197146D01*
X95181905Y-72197146D02*
X95134286Y-72292384D01*
X95134286Y-72292384D02*
X95086667Y-72340003D01*
X95086667Y-72340003D02*
X94991429Y-72387622D01*
X94991429Y-72387622D02*
X94800953Y-72387622D01*
X94800953Y-72387622D02*
X94705715Y-72435241D01*
X94705715Y-72435241D02*
X94658096Y-72482860D01*
X94658096Y-72482860D02*
X94610477Y-72578098D01*
X94610477Y-72578098D02*
X94610477Y-72768574D01*
X94610477Y-72768574D02*
X94658096Y-72863812D01*
X94658096Y-72863812D02*
X94705715Y-72911432D01*
X94705715Y-72911432D02*
X94800953Y-72959051D01*
X94800953Y-72959051D02*
X94991429Y-72959051D01*
X94991429Y-72959051D02*
X95086667Y-72911432D01*
X95086667Y-72911432D02*
X95134286Y-72863812D01*
X95134286Y-72863812D02*
X95181905Y-72768574D01*
X95181905Y-72768574D02*
X95181905Y-72578098D01*
X95181905Y-72578098D02*
X95134286Y-72482860D01*
X95134286Y-72482860D02*
X95086667Y-72435241D01*
X95086667Y-72435241D02*
X94991429Y-72387622D01*
X153916667Y-81157200D02*
X154059524Y-81204819D01*
X154059524Y-81204819D02*
X154297619Y-81204819D01*
X154297619Y-81204819D02*
X154392857Y-81157200D01*
X154392857Y-81157200D02*
X154440476Y-81109580D01*
X154440476Y-81109580D02*
X154488095Y-81014342D01*
X154488095Y-81014342D02*
X154488095Y-80919104D01*
X154488095Y-80919104D02*
X154440476Y-80823866D01*
X154440476Y-80823866D02*
X154392857Y-80776247D01*
X154392857Y-80776247D02*
X154297619Y-80728628D01*
X154297619Y-80728628D02*
X154107143Y-80681009D01*
X154107143Y-80681009D02*
X154011905Y-80633390D01*
X154011905Y-80633390D02*
X153964286Y-80585771D01*
X153964286Y-80585771D02*
X153916667Y-80490533D01*
X153916667Y-80490533D02*
X153916667Y-80395295D01*
X153916667Y-80395295D02*
X153964286Y-80300057D01*
X153964286Y-80300057D02*
X154011905Y-80252438D01*
X154011905Y-80252438D02*
X154107143Y-80204819D01*
X154107143Y-80204819D02*
X154345238Y-80204819D01*
X154345238Y-80204819D02*
X154488095Y-80252438D01*
X154821429Y-80204819D02*
X155059524Y-81204819D01*
X155059524Y-81204819D02*
X155250000Y-80490533D01*
X155250000Y-80490533D02*
X155440476Y-81204819D01*
X155440476Y-81204819D02*
X155678572Y-80204819D01*
X156202381Y-80633390D02*
X156107143Y-80585771D01*
X156107143Y-80585771D02*
X156059524Y-80538152D01*
X156059524Y-80538152D02*
X156011905Y-80442914D01*
X156011905Y-80442914D02*
X156011905Y-80395295D01*
X156011905Y-80395295D02*
X156059524Y-80300057D01*
X156059524Y-80300057D02*
X156107143Y-80252438D01*
X156107143Y-80252438D02*
X156202381Y-80204819D01*
X156202381Y-80204819D02*
X156392857Y-80204819D01*
X156392857Y-80204819D02*
X156488095Y-80252438D01*
X156488095Y-80252438D02*
X156535714Y-80300057D01*
X156535714Y-80300057D02*
X156583333Y-80395295D01*
X156583333Y-80395295D02*
X156583333Y-80442914D01*
X156583333Y-80442914D02*
X156535714Y-80538152D01*
X156535714Y-80538152D02*
X156488095Y-80585771D01*
X156488095Y-80585771D02*
X156392857Y-80633390D01*
X156392857Y-80633390D02*
X156202381Y-80633390D01*
X156202381Y-80633390D02*
X156107143Y-80681009D01*
X156107143Y-80681009D02*
X156059524Y-80728628D01*
X156059524Y-80728628D02*
X156011905Y-80823866D01*
X156011905Y-80823866D02*
X156011905Y-81014342D01*
X156011905Y-81014342D02*
X156059524Y-81109580D01*
X156059524Y-81109580D02*
X156107143Y-81157200D01*
X156107143Y-81157200D02*
X156202381Y-81204819D01*
X156202381Y-81204819D02*
X156392857Y-81204819D01*
X156392857Y-81204819D02*
X156488095Y-81157200D01*
X156488095Y-81157200D02*
X156535714Y-81109580D01*
X156535714Y-81109580D02*
X156583333Y-81014342D01*
X156583333Y-81014342D02*
X156583333Y-80823866D01*
X156583333Y-80823866D02*
X156535714Y-80728628D01*
X156535714Y-80728628D02*
X156488095Y-80681009D01*
X156488095Y-80681009D02*
X156392857Y-80633390D01*
X73916667Y-76157200D02*
X74059524Y-76204819D01*
X74059524Y-76204819D02*
X74297619Y-76204819D01*
X74297619Y-76204819D02*
X74392857Y-76157200D01*
X74392857Y-76157200D02*
X74440476Y-76109580D01*
X74440476Y-76109580D02*
X74488095Y-76014342D01*
X74488095Y-76014342D02*
X74488095Y-75919104D01*
X74488095Y-75919104D02*
X74440476Y-75823866D01*
X74440476Y-75823866D02*
X74392857Y-75776247D01*
X74392857Y-75776247D02*
X74297619Y-75728628D01*
X74297619Y-75728628D02*
X74107143Y-75681009D01*
X74107143Y-75681009D02*
X74011905Y-75633390D01*
X74011905Y-75633390D02*
X73964286Y-75585771D01*
X73964286Y-75585771D02*
X73916667Y-75490533D01*
X73916667Y-75490533D02*
X73916667Y-75395295D01*
X73916667Y-75395295D02*
X73964286Y-75300057D01*
X73964286Y-75300057D02*
X74011905Y-75252438D01*
X74011905Y-75252438D02*
X74107143Y-75204819D01*
X74107143Y-75204819D02*
X74345238Y-75204819D01*
X74345238Y-75204819D02*
X74488095Y-75252438D01*
X74821429Y-75204819D02*
X75059524Y-76204819D01*
X75059524Y-76204819D02*
X75250000Y-75490533D01*
X75250000Y-75490533D02*
X75440476Y-76204819D01*
X75440476Y-76204819D02*
X75678572Y-75204819D01*
X76535714Y-75204819D02*
X76059524Y-75204819D01*
X76059524Y-75204819D02*
X76011905Y-75681009D01*
X76011905Y-75681009D02*
X76059524Y-75633390D01*
X76059524Y-75633390D02*
X76154762Y-75585771D01*
X76154762Y-75585771D02*
X76392857Y-75585771D01*
X76392857Y-75585771D02*
X76488095Y-75633390D01*
X76488095Y-75633390D02*
X76535714Y-75681009D01*
X76535714Y-75681009D02*
X76583333Y-75776247D01*
X76583333Y-75776247D02*
X76583333Y-76014342D01*
X76583333Y-76014342D02*
X76535714Y-76109580D01*
X76535714Y-76109580D02*
X76488095Y-76157200D01*
X76488095Y-76157200D02*
X76392857Y-76204819D01*
X76392857Y-76204819D02*
X76154762Y-76204819D01*
X76154762Y-76204819D02*
X76059524Y-76157200D01*
X76059524Y-76157200D02*
X76011905Y-76109580D01*
X144454819Y-85722857D02*
X143978628Y-86056190D01*
X144454819Y-86294285D02*
X143454819Y-86294285D01*
X143454819Y-86294285D02*
X143454819Y-85913333D01*
X143454819Y-85913333D02*
X143502438Y-85818095D01*
X143502438Y-85818095D02*
X143550057Y-85770476D01*
X143550057Y-85770476D02*
X143645295Y-85722857D01*
X143645295Y-85722857D02*
X143788152Y-85722857D01*
X143788152Y-85722857D02*
X143883390Y-85770476D01*
X143883390Y-85770476D02*
X143931009Y-85818095D01*
X143931009Y-85818095D02*
X143978628Y-85913333D01*
X143978628Y-85913333D02*
X143978628Y-86294285D01*
X143788152Y-84865714D02*
X144454819Y-84865714D01*
X143407200Y-85103809D02*
X144121485Y-85341904D01*
X144121485Y-85341904D02*
X144121485Y-84722857D01*
X144454819Y-83818095D02*
X144454819Y-84389523D01*
X144454819Y-84103809D02*
X143454819Y-84103809D01*
X143454819Y-84103809D02*
X143597676Y-84199047D01*
X143597676Y-84199047D02*
X143692914Y-84294285D01*
X143692914Y-84294285D02*
X143740533Y-84389523D01*
X102333333Y-40359580D02*
X102285714Y-40407200D01*
X102285714Y-40407200D02*
X102142857Y-40454819D01*
X102142857Y-40454819D02*
X102047619Y-40454819D01*
X102047619Y-40454819D02*
X101904762Y-40407200D01*
X101904762Y-40407200D02*
X101809524Y-40311961D01*
X101809524Y-40311961D02*
X101761905Y-40216723D01*
X101761905Y-40216723D02*
X101714286Y-40026247D01*
X101714286Y-40026247D02*
X101714286Y-39883390D01*
X101714286Y-39883390D02*
X101761905Y-39692914D01*
X101761905Y-39692914D02*
X101809524Y-39597676D01*
X101809524Y-39597676D02*
X101904762Y-39502438D01*
X101904762Y-39502438D02*
X102047619Y-39454819D01*
X102047619Y-39454819D02*
X102142857Y-39454819D01*
X102142857Y-39454819D02*
X102285714Y-39502438D01*
X102285714Y-39502438D02*
X102333333Y-39550057D01*
X103190476Y-39788152D02*
X103190476Y-40454819D01*
X102952381Y-39407200D02*
X102714286Y-40121485D01*
X102714286Y-40121485D02*
X103333333Y-40121485D01*
X106738095Y-74954819D02*
X106738095Y-75764342D01*
X106738095Y-75764342D02*
X106785714Y-75859580D01*
X106785714Y-75859580D02*
X106833333Y-75907200D01*
X106833333Y-75907200D02*
X106928571Y-75954819D01*
X106928571Y-75954819D02*
X107119047Y-75954819D01*
X107119047Y-75954819D02*
X107214285Y-75907200D01*
X107214285Y-75907200D02*
X107261904Y-75859580D01*
X107261904Y-75859580D02*
X107309523Y-75764342D01*
X107309523Y-75764342D02*
X107309523Y-74954819D01*
X107833333Y-75954819D02*
X108023809Y-75954819D01*
X108023809Y-75954819D02*
X108119047Y-75907200D01*
X108119047Y-75907200D02*
X108166666Y-75859580D01*
X108166666Y-75859580D02*
X108261904Y-75716723D01*
X108261904Y-75716723D02*
X108309523Y-75526247D01*
X108309523Y-75526247D02*
X108309523Y-75145295D01*
X108309523Y-75145295D02*
X108261904Y-75050057D01*
X108261904Y-75050057D02*
X108214285Y-75002438D01*
X108214285Y-75002438D02*
X108119047Y-74954819D01*
X108119047Y-74954819D02*
X107928571Y-74954819D01*
X107928571Y-74954819D02*
X107833333Y-75002438D01*
X107833333Y-75002438D02*
X107785714Y-75050057D01*
X107785714Y-75050057D02*
X107738095Y-75145295D01*
X107738095Y-75145295D02*
X107738095Y-75383390D01*
X107738095Y-75383390D02*
X107785714Y-75478628D01*
X107785714Y-75478628D02*
X107833333Y-75526247D01*
X107833333Y-75526247D02*
X107928571Y-75573866D01*
X107928571Y-75573866D02*
X108119047Y-75573866D01*
X108119047Y-75573866D02*
X108214285Y-75526247D01*
X108214285Y-75526247D02*
X108261904Y-75478628D01*
X108261904Y-75478628D02*
X108309523Y-75383390D01*
X127166666Y-47204819D02*
X127166666Y-47919104D01*
X127166666Y-47919104D02*
X127119047Y-48061961D01*
X127119047Y-48061961D02*
X127023809Y-48157200D01*
X127023809Y-48157200D02*
X126880952Y-48204819D01*
X126880952Y-48204819D02*
X126785714Y-48204819D01*
X128071428Y-47204819D02*
X127880952Y-47204819D01*
X127880952Y-47204819D02*
X127785714Y-47252438D01*
X127785714Y-47252438D02*
X127738095Y-47300057D01*
X127738095Y-47300057D02*
X127642857Y-47442914D01*
X127642857Y-47442914D02*
X127595238Y-47633390D01*
X127595238Y-47633390D02*
X127595238Y-48014342D01*
X127595238Y-48014342D02*
X127642857Y-48109580D01*
X127642857Y-48109580D02*
X127690476Y-48157200D01*
X127690476Y-48157200D02*
X127785714Y-48204819D01*
X127785714Y-48204819D02*
X127976190Y-48204819D01*
X127976190Y-48204819D02*
X128071428Y-48157200D01*
X128071428Y-48157200D02*
X128119047Y-48109580D01*
X128119047Y-48109580D02*
X128166666Y-48014342D01*
X128166666Y-48014342D02*
X128166666Y-47776247D01*
X128166666Y-47776247D02*
X128119047Y-47681009D01*
X128119047Y-47681009D02*
X128071428Y-47633390D01*
X128071428Y-47633390D02*
X127976190Y-47585771D01*
X127976190Y-47585771D02*
X127785714Y-47585771D01*
X127785714Y-47585771D02*
X127690476Y-47633390D01*
X127690476Y-47633390D02*
X127642857Y-47681009D01*
X127642857Y-47681009D02*
X127595238Y-47776247D01*
X135277142Y-72954819D02*
X134943809Y-72478628D01*
X134705714Y-72954819D02*
X134705714Y-71954819D01*
X134705714Y-71954819D02*
X135086666Y-71954819D01*
X135086666Y-71954819D02*
X135181904Y-72002438D01*
X135181904Y-72002438D02*
X135229523Y-72050057D01*
X135229523Y-72050057D02*
X135277142Y-72145295D01*
X135277142Y-72145295D02*
X135277142Y-72288152D01*
X135277142Y-72288152D02*
X135229523Y-72383390D01*
X135229523Y-72383390D02*
X135181904Y-72431009D01*
X135181904Y-72431009D02*
X135086666Y-72478628D01*
X135086666Y-72478628D02*
X134705714Y-72478628D01*
X136229523Y-72954819D02*
X135658095Y-72954819D01*
X135943809Y-72954819D02*
X135943809Y-71954819D01*
X135943809Y-71954819D02*
X135848571Y-72097676D01*
X135848571Y-72097676D02*
X135753333Y-72192914D01*
X135753333Y-72192914D02*
X135658095Y-72240533D01*
X136562857Y-71954819D02*
X137229523Y-71954819D01*
X137229523Y-71954819D02*
X136800952Y-72954819D01*
X93277143Y-51959051D02*
X92943810Y-51482860D01*
X92705715Y-51959051D02*
X92705715Y-50959051D01*
X92705715Y-50959051D02*
X93086667Y-50959051D01*
X93086667Y-50959051D02*
X93181905Y-51006670D01*
X93181905Y-51006670D02*
X93229524Y-51054289D01*
X93229524Y-51054289D02*
X93277143Y-51149527D01*
X93277143Y-51149527D02*
X93277143Y-51292384D01*
X93277143Y-51292384D02*
X93229524Y-51387622D01*
X93229524Y-51387622D02*
X93181905Y-51435241D01*
X93181905Y-51435241D02*
X93086667Y-51482860D01*
X93086667Y-51482860D02*
X92705715Y-51482860D01*
X93658096Y-51054289D02*
X93705715Y-51006670D01*
X93705715Y-51006670D02*
X93800953Y-50959051D01*
X93800953Y-50959051D02*
X94039048Y-50959051D01*
X94039048Y-50959051D02*
X94134286Y-51006670D01*
X94134286Y-51006670D02*
X94181905Y-51054289D01*
X94181905Y-51054289D02*
X94229524Y-51149527D01*
X94229524Y-51149527D02*
X94229524Y-51244765D01*
X94229524Y-51244765D02*
X94181905Y-51387622D01*
X94181905Y-51387622D02*
X93610477Y-51959051D01*
X93610477Y-51959051D02*
X94229524Y-51959051D01*
X95134286Y-50959051D02*
X94658096Y-50959051D01*
X94658096Y-50959051D02*
X94610477Y-51435241D01*
X94610477Y-51435241D02*
X94658096Y-51387622D01*
X94658096Y-51387622D02*
X94753334Y-51340003D01*
X94753334Y-51340003D02*
X94991429Y-51340003D01*
X94991429Y-51340003D02*
X95086667Y-51387622D01*
X95086667Y-51387622D02*
X95134286Y-51435241D01*
X95134286Y-51435241D02*
X95181905Y-51530479D01*
X95181905Y-51530479D02*
X95181905Y-51768574D01*
X95181905Y-51768574D02*
X95134286Y-51863812D01*
X95134286Y-51863812D02*
X95086667Y-51911432D01*
X95086667Y-51911432D02*
X94991429Y-51959051D01*
X94991429Y-51959051D02*
X94753334Y-51959051D01*
X94753334Y-51959051D02*
X94658096Y-51911432D01*
X94658096Y-51911432D02*
X94610477Y-51863812D01*
X65333333Y-105584819D02*
X65000000Y-105108628D01*
X64761905Y-105584819D02*
X64761905Y-104584819D01*
X64761905Y-104584819D02*
X65142857Y-104584819D01*
X65142857Y-104584819D02*
X65238095Y-104632438D01*
X65238095Y-104632438D02*
X65285714Y-104680057D01*
X65285714Y-104680057D02*
X65333333Y-104775295D01*
X65333333Y-104775295D02*
X65333333Y-104918152D01*
X65333333Y-104918152D02*
X65285714Y-105013390D01*
X65285714Y-105013390D02*
X65238095Y-105061009D01*
X65238095Y-105061009D02*
X65142857Y-105108628D01*
X65142857Y-105108628D02*
X64761905Y-105108628D01*
X65904762Y-105013390D02*
X65809524Y-104965771D01*
X65809524Y-104965771D02*
X65761905Y-104918152D01*
X65761905Y-104918152D02*
X65714286Y-104822914D01*
X65714286Y-104822914D02*
X65714286Y-104775295D01*
X65714286Y-104775295D02*
X65761905Y-104680057D01*
X65761905Y-104680057D02*
X65809524Y-104632438D01*
X65809524Y-104632438D02*
X65904762Y-104584819D01*
X65904762Y-104584819D02*
X66095238Y-104584819D01*
X66095238Y-104584819D02*
X66190476Y-104632438D01*
X66190476Y-104632438D02*
X66238095Y-104680057D01*
X66238095Y-104680057D02*
X66285714Y-104775295D01*
X66285714Y-104775295D02*
X66285714Y-104822914D01*
X66285714Y-104822914D02*
X66238095Y-104918152D01*
X66238095Y-104918152D02*
X66190476Y-104965771D01*
X66190476Y-104965771D02*
X66095238Y-105013390D01*
X66095238Y-105013390D02*
X65904762Y-105013390D01*
X65904762Y-105013390D02*
X65809524Y-105061009D01*
X65809524Y-105061009D02*
X65761905Y-105108628D01*
X65761905Y-105108628D02*
X65714286Y-105203866D01*
X65714286Y-105203866D02*
X65714286Y-105394342D01*
X65714286Y-105394342D02*
X65761905Y-105489580D01*
X65761905Y-105489580D02*
X65809524Y-105537200D01*
X65809524Y-105537200D02*
X65904762Y-105584819D01*
X65904762Y-105584819D02*
X66095238Y-105584819D01*
X66095238Y-105584819D02*
X66190476Y-105537200D01*
X66190476Y-105537200D02*
X66238095Y-105489580D01*
X66238095Y-105489580D02*
X66285714Y-105394342D01*
X66285714Y-105394342D02*
X66285714Y-105203866D01*
X66285714Y-105203866D02*
X66238095Y-105108628D01*
X66238095Y-105108628D02*
X66190476Y-105061009D01*
X66190476Y-105061009D02*
X66095238Y-105013390D01*
X79253333Y-48954819D02*
X78920000Y-48478628D01*
X78681905Y-48954819D02*
X78681905Y-47954819D01*
X78681905Y-47954819D02*
X79062857Y-47954819D01*
X79062857Y-47954819D02*
X79158095Y-48002438D01*
X79158095Y-48002438D02*
X79205714Y-48050057D01*
X79205714Y-48050057D02*
X79253333Y-48145295D01*
X79253333Y-48145295D02*
X79253333Y-48288152D01*
X79253333Y-48288152D02*
X79205714Y-48383390D01*
X79205714Y-48383390D02*
X79158095Y-48431009D01*
X79158095Y-48431009D02*
X79062857Y-48478628D01*
X79062857Y-48478628D02*
X78681905Y-48478628D01*
X80110476Y-48288152D02*
X80110476Y-48954819D01*
X79872381Y-47907200D02*
X79634286Y-48621485D01*
X79634286Y-48621485D02*
X80253333Y-48621485D01*
X95238095Y-42454819D02*
X95238095Y-43264342D01*
X95238095Y-43264342D02*
X95285714Y-43359580D01*
X95285714Y-43359580D02*
X95333333Y-43407200D01*
X95333333Y-43407200D02*
X95428571Y-43454819D01*
X95428571Y-43454819D02*
X95619047Y-43454819D01*
X95619047Y-43454819D02*
X95714285Y-43407200D01*
X95714285Y-43407200D02*
X95761904Y-43359580D01*
X95761904Y-43359580D02*
X95809523Y-43264342D01*
X95809523Y-43264342D02*
X95809523Y-42454819D01*
X96238095Y-42550057D02*
X96285714Y-42502438D01*
X96285714Y-42502438D02*
X96380952Y-42454819D01*
X96380952Y-42454819D02*
X96619047Y-42454819D01*
X96619047Y-42454819D02*
X96714285Y-42502438D01*
X96714285Y-42502438D02*
X96761904Y-42550057D01*
X96761904Y-42550057D02*
X96809523Y-42645295D01*
X96809523Y-42645295D02*
X96809523Y-42740533D01*
X96809523Y-42740533D02*
X96761904Y-42883390D01*
X96761904Y-42883390D02*
X96190476Y-43454819D01*
X96190476Y-43454819D02*
X96809523Y-43454819D01*
D11*
%TO.C,SW7*%
X152750000Y-73250000D02*
X157250000Y-73250000D01*
X157250000Y-66750000D02*
X152750000Y-66750000D01*
%TO.C,R34*%
X131880000Y-75500000D02*
X132650000Y-75500000D01*
X132650000Y-74130000D02*
X132650000Y-76870000D01*
X132650000Y-76870000D02*
X139190000Y-76870000D01*
X139190000Y-74130000D02*
X132650000Y-74130000D01*
X139190000Y-76870000D02*
X139190000Y-74130000D01*
X139960000Y-75500000D02*
X139190000Y-75500000D01*
%TO.C,R6*%
X111380000Y-99500000D02*
X112150000Y-99500000D01*
X112150000Y-98130000D02*
X112150000Y-100870000D01*
X112150000Y-100870000D02*
X118690000Y-100870000D01*
X118690000Y-98130000D02*
X112150000Y-98130000D01*
X118690000Y-100870000D02*
X118690000Y-98130000D01*
X119460000Y-99500000D02*
X118690000Y-99500000D01*
%TO.C,SW3*%
X52750000Y-83250000D02*
X57250000Y-83250000D01*
X57250000Y-76750000D02*
X52750000Y-76750000D01*
%TO.C,R24*%
X89880000Y-54500000D02*
X90650000Y-54500000D01*
X90650000Y-53130000D02*
X90650000Y-55870000D01*
X90650000Y-55870000D02*
X97190000Y-55870000D01*
X97190000Y-53130000D02*
X90650000Y-53130000D01*
X97190000Y-55870000D02*
X97190000Y-53130000D01*
X97960000Y-54500000D02*
X97190000Y-54500000D01*
%TO.C,FB1*%
X98780000Y-102630000D02*
X98780000Y-105370000D01*
X98780000Y-102630000D02*
X106220000Y-102630000D01*
X98780000Y-105370000D02*
X106220000Y-105370000D01*
X106220000Y-102630000D02*
X106220000Y-105370000D01*
%TO.C,SW10*%
X178250000Y-109750000D02*
X182750000Y-109750000D01*
X182750000Y-103250000D02*
X178250000Y-103250000D01*
%TO.C,R12*%
X131880000Y-57500000D02*
X132650000Y-57500000D01*
X132650000Y-56130000D02*
X132650000Y-58870000D01*
X132650000Y-58870000D02*
X139190000Y-58870000D01*
X139190000Y-56130000D02*
X132650000Y-56130000D01*
X139190000Y-58870000D02*
X139190000Y-56130000D01*
X139960000Y-57500000D02*
X139190000Y-57500000D01*
%TO.C,R27*%
X89880000Y-93500000D02*
X90650000Y-93500000D01*
X90650000Y-92130000D02*
X90650000Y-94870000D01*
X90650000Y-94870000D02*
X97190000Y-94870000D01*
X97190000Y-92130000D02*
X90650000Y-92130000D01*
X97190000Y-94870000D02*
X97190000Y-92130000D01*
X97960000Y-93500000D02*
X97190000Y-93500000D01*
%TO.C,R10*%
X131880000Y-51500000D02*
X132650000Y-51500000D01*
X132650000Y-50130000D02*
X132650000Y-52870000D01*
X132650000Y-52870000D02*
X139190000Y-52870000D01*
X139190000Y-50130000D02*
X132650000Y-50130000D01*
X139190000Y-52870000D02*
X139190000Y-50130000D01*
X139960000Y-51500000D02*
X139190000Y-51500000D01*
%TO.C,U7*%
X115979500Y-74069500D02*
X115979500Y-72869500D01*
X116339500Y-54489500D02*
X116339500Y-73709500D01*
X116339500Y-73709500D02*
X129159500Y-73709500D01*
X117179500Y-74069500D02*
X115979500Y-74069500D01*
X129159500Y-54489500D02*
X116339500Y-54489500D01*
X129159500Y-73709500D02*
X129159500Y-54489500D01*
%TO.C,R7*%
X66380000Y-101000000D02*
X67150000Y-101000000D01*
X67150000Y-99630000D02*
X67150000Y-102370000D01*
X67150000Y-102370000D02*
X73690000Y-102370000D01*
X73690000Y-99630000D02*
X67150000Y-99630000D01*
X73690000Y-102370000D02*
X73690000Y-99630000D01*
X74460000Y-101000000D02*
X73690000Y-101000000D01*
%TO.C,U1*%
X67840000Y-3740000D02*
X83540000Y-3740000D01*
X67840000Y-44640000D02*
X67840000Y-3740000D01*
X70356000Y-38976000D02*
X81024000Y-38976000D01*
X70356000Y-44310000D02*
X70356000Y-38976000D01*
X81024000Y-38976000D02*
X81024000Y-44310000D01*
X81024000Y-44310000D02*
X70356000Y-44310000D01*
X83540000Y-3740000D02*
X83540000Y-44640000D01*
X83540000Y-44640000D02*
X67840000Y-44640000D01*
X70180000Y-45176000D02*
X69700000Y-45176000D01*
X69940000Y-44840000D01*
X70180000Y-45176000D01*
G36*
X70180000Y-45176000D02*
G01*
X69700000Y-45176000D01*
X69940000Y-44840000D01*
X70180000Y-45176000D01*
G37*
%TO.C,R33*%
X89880000Y-75500000D02*
X90650000Y-75500000D01*
X90650000Y-74130000D02*
X90650000Y-76870000D01*
X90650000Y-76870000D02*
X97190000Y-76870000D01*
X97190000Y-74130000D02*
X90650000Y-74130000D01*
X97190000Y-76870000D02*
X97190000Y-74130000D01*
X97960000Y-75500000D02*
X97190000Y-75500000D01*
%TO.C,R3*%
X47380000Y-72000000D02*
X48150000Y-72000000D01*
X48150000Y-70630000D02*
X48150000Y-73370000D01*
X48150000Y-73370000D02*
X54690000Y-73370000D01*
X54690000Y-70630000D02*
X48150000Y-70630000D01*
X54690000Y-73370000D02*
X54690000Y-70630000D01*
X55460000Y-72000000D02*
X54690000Y-72000000D01*
%TO.C,U10*%
X115979500Y-95869500D02*
X115979500Y-94669500D01*
X116339500Y-76289500D02*
X116339500Y-95509500D01*
X116339500Y-95509500D02*
X129159500Y-95509500D01*
X117179500Y-95869500D02*
X115979500Y-95869500D01*
X129159500Y-76289500D02*
X116339500Y-76289500D01*
X129159500Y-95509500D02*
X129159500Y-76289500D01*
%TO.C,U3*%
X144170000Y-45370000D02*
X144170000Y-65930000D01*
X144170000Y-65930000D02*
X154450000Y-65930000D01*
X146660000Y-45430000D02*
X146660000Y-65870000D01*
X146660000Y-65870000D02*
X151960000Y-65870000D01*
X148310000Y-45430000D02*
X146660000Y-45430000D01*
X151960000Y-45430000D02*
X150310000Y-45430000D01*
X151960000Y-65870000D02*
X151960000Y-45430000D01*
X154450000Y-45370000D02*
X144170000Y-45370000D01*
X154450000Y-65930000D02*
X154450000Y-45370000D01*
X150310000Y-45430000D02*
G75*
G02*
X148310000Y-45430000I-1000000J0D01*
G01*
%TO.C,R29*%
X89880000Y-87500000D02*
X90650000Y-87500000D01*
X90650000Y-86130000D02*
X90650000Y-88870000D01*
X90650000Y-88870000D02*
X97190000Y-88870000D01*
X97190000Y-86130000D02*
X90650000Y-86130000D01*
X97190000Y-88870000D02*
X97190000Y-86130000D01*
X97960000Y-87500000D02*
X97190000Y-87500000D01*
%TO.C,A1*%
X128540000Y-98940000D02*
X138960000Y-98940000D01*
X128540000Y-106820000D02*
X128540000Y-98940000D01*
X131080000Y-93860000D02*
X131080000Y-98940000D01*
X131080000Y-111900000D02*
X131080000Y-106820000D01*
X131080000Y-111900000D02*
X174520000Y-111900000D01*
X133750000Y-96530000D02*
X133750000Y-93860000D01*
X133750000Y-109230000D02*
X133750000Y-111900000D01*
X138960000Y-98940000D02*
X138960000Y-106820000D01*
X138960000Y-106820000D02*
X128540000Y-106820000D01*
X169310000Y-93860000D02*
X131080000Y-93860000D01*
X169310000Y-96530000D02*
X133750000Y-96530000D01*
X169310000Y-96530000D02*
X169310000Y-93860000D01*
X169310000Y-96530000D02*
X171850000Y-96530000D01*
X171850000Y-96530000D02*
X171850000Y-93860000D01*
X171850000Y-109230000D02*
X133750000Y-109230000D01*
X171850000Y-109230000D02*
X171850000Y-111900000D01*
X174520000Y-93860000D02*
X171850000Y-93860000D01*
X174520000Y-111900000D02*
X174520000Y-93860000D01*
%TO.C,C2*%
X154780000Y-46130000D02*
X154780000Y-48870000D01*
X154780000Y-46130000D02*
X162220000Y-46130000D01*
X154780000Y-48870000D02*
X162220000Y-48870000D01*
X162220000Y-46130000D02*
X162220000Y-48870000D01*
%TO.C,R13*%
X131880000Y-60500000D02*
X132650000Y-60500000D01*
X132650000Y-59130000D02*
X132650000Y-61870000D01*
X132650000Y-61870000D02*
X139190000Y-61870000D01*
X139190000Y-59130000D02*
X132650000Y-59130000D01*
X139190000Y-61870000D02*
X139190000Y-59130000D01*
X139960000Y-60500000D02*
X139190000Y-60500000D01*
%TO.C,C1*%
X160695225Y-56025000D02*
X161195225Y-56025000D01*
X160945225Y-55775000D02*
X160945225Y-56275000D01*
X163500000Y-54920000D02*
X163500000Y-56460000D01*
X163500000Y-58540000D02*
X163500000Y-60080000D01*
X163540000Y-54920000D02*
X163540000Y-56460000D01*
X163540000Y-58540000D02*
X163540000Y-60080000D01*
X163580000Y-54921000D02*
X163580000Y-56460000D01*
X163580000Y-58540000D02*
X163580000Y-60079000D01*
X163620000Y-54922000D02*
X163620000Y-56460000D01*
X163620000Y-58540000D02*
X163620000Y-60078000D01*
X163660000Y-54924000D02*
X163660000Y-56460000D01*
X163660000Y-58540000D02*
X163660000Y-60076000D01*
X163700000Y-54927000D02*
X163700000Y-56460000D01*
X163700000Y-58540000D02*
X163700000Y-60073000D01*
X163740000Y-54931000D02*
X163740000Y-56460000D01*
X163740000Y-58540000D02*
X163740000Y-60069000D01*
X163780000Y-54935000D02*
X163780000Y-56460000D01*
X163780000Y-58540000D02*
X163780000Y-60065000D01*
X163820000Y-54939000D02*
X163820000Y-56460000D01*
X163820000Y-58540000D02*
X163820000Y-60061000D01*
X163860000Y-54944000D02*
X163860000Y-56460000D01*
X163860000Y-58540000D02*
X163860000Y-60056000D01*
X163900000Y-54950000D02*
X163900000Y-56460000D01*
X163900000Y-58540000D02*
X163900000Y-60050000D01*
X163940000Y-54957000D02*
X163940000Y-56460000D01*
X163940000Y-58540000D02*
X163940000Y-60043000D01*
X163980000Y-54964000D02*
X163980000Y-56460000D01*
X163980000Y-58540000D02*
X163980000Y-60036000D01*
X164020000Y-54972000D02*
X164020000Y-56460000D01*
X164020000Y-58540000D02*
X164020000Y-60028000D01*
X164060000Y-54980000D02*
X164060000Y-56460000D01*
X164060000Y-58540000D02*
X164060000Y-60020000D01*
X164100000Y-54989000D02*
X164100000Y-56460000D01*
X164100000Y-58540000D02*
X164100000Y-60011000D01*
X164140000Y-54999000D02*
X164140000Y-56460000D01*
X164140000Y-58540000D02*
X164140000Y-60001000D01*
X164180000Y-55009000D02*
X164180000Y-56460000D01*
X164180000Y-58540000D02*
X164180000Y-59991000D01*
X164221000Y-55020000D02*
X164221000Y-56460000D01*
X164221000Y-58540000D02*
X164221000Y-59980000D01*
X164261000Y-55032000D02*
X164261000Y-56460000D01*
X164261000Y-58540000D02*
X164261000Y-59968000D01*
X164301000Y-55045000D02*
X164301000Y-56460000D01*
X164301000Y-58540000D02*
X164301000Y-59955000D01*
X164341000Y-55058000D02*
X164341000Y-56460000D01*
X164341000Y-58540000D02*
X164341000Y-59942000D01*
X164381000Y-55072000D02*
X164381000Y-56460000D01*
X164381000Y-58540000D02*
X164381000Y-59928000D01*
X164421000Y-55086000D02*
X164421000Y-56460000D01*
X164421000Y-58540000D02*
X164421000Y-59914000D01*
X164461000Y-55102000D02*
X164461000Y-56460000D01*
X164461000Y-58540000D02*
X164461000Y-59898000D01*
X164501000Y-55118000D02*
X164501000Y-56460000D01*
X164501000Y-58540000D02*
X164501000Y-59882000D01*
X164541000Y-55135000D02*
X164541000Y-56460000D01*
X164541000Y-58540000D02*
X164541000Y-59865000D01*
X164581000Y-55152000D02*
X164581000Y-56460000D01*
X164581000Y-58540000D02*
X164581000Y-59848000D01*
X164621000Y-55171000D02*
X164621000Y-56460000D01*
X164621000Y-58540000D02*
X164621000Y-59829000D01*
X164661000Y-55190000D02*
X164661000Y-56460000D01*
X164661000Y-58540000D02*
X164661000Y-59810000D01*
X164701000Y-55210000D02*
X164701000Y-56460000D01*
X164701000Y-58540000D02*
X164701000Y-59790000D01*
X164741000Y-55232000D02*
X164741000Y-56460000D01*
X164741000Y-58540000D02*
X164741000Y-59768000D01*
X164781000Y-55253000D02*
X164781000Y-56460000D01*
X164781000Y-58540000D02*
X164781000Y-59747000D01*
X164821000Y-55276000D02*
X164821000Y-56460000D01*
X164821000Y-58540000D02*
X164821000Y-59724000D01*
X164861000Y-55300000D02*
X164861000Y-56460000D01*
X164861000Y-58540000D02*
X164861000Y-59700000D01*
X164901000Y-55325000D02*
X164901000Y-56460000D01*
X164901000Y-58540000D02*
X164901000Y-59675000D01*
X164941000Y-55351000D02*
X164941000Y-56460000D01*
X164941000Y-58540000D02*
X164941000Y-59649000D01*
X164981000Y-55378000D02*
X164981000Y-56460000D01*
X164981000Y-58540000D02*
X164981000Y-59622000D01*
X165021000Y-55405000D02*
X165021000Y-56460000D01*
X165021000Y-58540000D02*
X165021000Y-59595000D01*
X165061000Y-55435000D02*
X165061000Y-56460000D01*
X165061000Y-58540000D02*
X165061000Y-59565000D01*
X165101000Y-55465000D02*
X165101000Y-56460000D01*
X165101000Y-58540000D02*
X165101000Y-59535000D01*
X165141000Y-55496000D02*
X165141000Y-56460000D01*
X165141000Y-58540000D02*
X165141000Y-59504000D01*
X165181000Y-55529000D02*
X165181000Y-56460000D01*
X165181000Y-58540000D02*
X165181000Y-59471000D01*
X165221000Y-55563000D02*
X165221000Y-56460000D01*
X165221000Y-58540000D02*
X165221000Y-59437000D01*
X165261000Y-55599000D02*
X165261000Y-56460000D01*
X165261000Y-58540000D02*
X165261000Y-59401000D01*
X165301000Y-55636000D02*
X165301000Y-56460000D01*
X165301000Y-58540000D02*
X165301000Y-59364000D01*
X165341000Y-55674000D02*
X165341000Y-56460000D01*
X165341000Y-58540000D02*
X165341000Y-59326000D01*
X165381000Y-55715000D02*
X165381000Y-56460000D01*
X165381000Y-58540000D02*
X165381000Y-59285000D01*
X165421000Y-55757000D02*
X165421000Y-56460000D01*
X165421000Y-58540000D02*
X165421000Y-59243000D01*
X165461000Y-55801000D02*
X165461000Y-56460000D01*
X165461000Y-58540000D02*
X165461000Y-59199000D01*
X165501000Y-55847000D02*
X165501000Y-56460000D01*
X165501000Y-58540000D02*
X165501000Y-59153000D01*
X165541000Y-55895000D02*
X165541000Y-59105000D01*
X165581000Y-55946000D02*
X165581000Y-59054000D01*
X165621000Y-56000000D02*
X165621000Y-59000000D01*
X165661000Y-56057000D02*
X165661000Y-58943000D01*
X165701000Y-56117000D02*
X165701000Y-58883000D01*
X165741000Y-56181000D02*
X165741000Y-58819000D01*
X165781000Y-56249000D02*
X165781000Y-58751000D01*
X165821000Y-56322000D02*
X165821000Y-58678000D01*
X165861000Y-56402000D02*
X165861000Y-58598000D01*
X165901000Y-56489000D02*
X165901000Y-58511000D01*
X165941000Y-56585000D02*
X165941000Y-58415000D01*
X165981000Y-56695000D02*
X165981000Y-58305000D01*
X166021000Y-56823000D02*
X166021000Y-58177000D01*
X166061000Y-56982000D02*
X166061000Y-58018000D01*
X166101000Y-57216000D02*
X166101000Y-57784000D01*
X166120000Y-57500000D02*
G75*
G02*
X160880000Y-57500000I-2620000J0D01*
G01*
X160880000Y-57500000D02*
G75*
G02*
X166120000Y-57500000I2620000J0D01*
G01*
%TO.C,SW9*%
X172750000Y-88250000D02*
X177250000Y-88250000D01*
X177250000Y-81750000D02*
X172750000Y-81750000D01*
%TO.C,D5*%
X69508850Y-49468866D02*
G75*
G02*
X69568239Y-47600000I-1053850J968866D01*
G01*
%TO.C,R19*%
X89880000Y-69500000D02*
X90650000Y-69500000D01*
X90650000Y-68130000D02*
X90650000Y-70870000D01*
X90650000Y-70870000D02*
X97190000Y-70870000D01*
X97190000Y-68130000D02*
X90650000Y-68130000D01*
X97190000Y-70870000D02*
X97190000Y-68130000D01*
X97960000Y-69500000D02*
X97190000Y-69500000D01*
%TO.C,SW6*%
X172750000Y-73250000D02*
X177250000Y-73250000D01*
X177250000Y-66750000D02*
X172750000Y-66750000D01*
%TO.C,R1*%
X47380000Y-60400000D02*
X48150000Y-60400000D01*
X48150000Y-59030000D02*
X48150000Y-61770000D01*
X48150000Y-61770000D02*
X54690000Y-61770000D01*
X54690000Y-59030000D02*
X48150000Y-59030000D01*
X54690000Y-61770000D02*
X54690000Y-59030000D01*
X55460000Y-60400000D02*
X54690000Y-60400000D01*
%TO.C,R28*%
X89880000Y-90500000D02*
X90650000Y-90500000D01*
X90650000Y-89130000D02*
X90650000Y-91870000D01*
X90650000Y-91870000D02*
X97190000Y-91870000D01*
X97190000Y-89130000D02*
X90650000Y-89130000D01*
X97190000Y-91870000D02*
X97190000Y-89130000D01*
X97960000Y-90500000D02*
X97190000Y-90500000D01*
%TO.C,R39*%
X131880000Y-90500000D02*
X132650000Y-90500000D01*
X132650000Y-89130000D02*
X132650000Y-91870000D01*
X132650000Y-91870000D02*
X139190000Y-91870000D01*
X139190000Y-89130000D02*
X132650000Y-89130000D01*
X139190000Y-91870000D02*
X139190000Y-89130000D01*
X139960000Y-90500000D02*
X139190000Y-90500000D01*
%TO.C,R9*%
X66630000Y-54230000D02*
X66630000Y-60770000D01*
X66630000Y-60770000D02*
X69370000Y-60770000D01*
X68000000Y-53460000D02*
X68000000Y-54230000D01*
X68000000Y-61540000D02*
X68000000Y-60770000D01*
X69370000Y-54230000D02*
X66630000Y-54230000D01*
X69370000Y-60770000D02*
X69370000Y-54230000D01*
%TO.C,SW2*%
X62750000Y-73250000D02*
X67250000Y-73250000D01*
X67250000Y-66750000D02*
X62750000Y-66750000D01*
%TO.C,R26*%
X89880000Y-96500000D02*
X90650000Y-96500000D01*
X90650000Y-95130000D02*
X90650000Y-97870000D01*
X90650000Y-97870000D02*
X97190000Y-97870000D01*
X97190000Y-95130000D02*
X90650000Y-95130000D01*
X97190000Y-97870000D02*
X97190000Y-95130000D01*
X97960000Y-96500000D02*
X97190000Y-96500000D01*
%TO.C,R15*%
X131880000Y-66500000D02*
X132650000Y-66500000D01*
X132650000Y-65130000D02*
X132650000Y-67870000D01*
X132650000Y-67870000D02*
X139190000Y-67870000D01*
X139190000Y-65130000D02*
X132650000Y-65130000D01*
X139190000Y-67870000D02*
X139190000Y-65130000D01*
X139960000Y-66500000D02*
X139190000Y-66500000D01*
%TO.C,R38*%
X131880000Y-87500000D02*
X132650000Y-87500000D01*
X132650000Y-86130000D02*
X132650000Y-88870000D01*
X132650000Y-88870000D02*
X139190000Y-88870000D01*
X139190000Y-86130000D02*
X132650000Y-86130000D01*
X139190000Y-88870000D02*
X139190000Y-86130000D01*
X139960000Y-87500000D02*
X139190000Y-87500000D01*
%TO.C,R16*%
X131880000Y-69500000D02*
X132650000Y-69500000D01*
X132650000Y-68130000D02*
X132650000Y-70870000D01*
X132650000Y-70870000D02*
X139190000Y-70870000D01*
X139190000Y-68130000D02*
X132650000Y-68130000D01*
X139190000Y-70870000D02*
X139190000Y-68130000D01*
X139960000Y-69500000D02*
X139190000Y-69500000D01*
%TO.C,R5*%
X75380000Y-52550000D02*
X76150000Y-52550000D01*
X76150000Y-51180000D02*
X76150000Y-53920000D01*
X76150000Y-53920000D02*
X82690000Y-53920000D01*
X82690000Y-51180000D02*
X76150000Y-51180000D01*
X82690000Y-53920000D02*
X82690000Y-51180000D01*
X83460000Y-52550000D02*
X82690000Y-52550000D01*
%TO.C,R36*%
X131880000Y-81500000D02*
X132650000Y-81500000D01*
X132650000Y-80130000D02*
X132650000Y-82870000D01*
X132650000Y-82870000D02*
X139190000Y-82870000D01*
X139190000Y-80130000D02*
X132650000Y-80130000D01*
X139190000Y-82870000D02*
X139190000Y-80130000D01*
X139960000Y-81500000D02*
X139190000Y-81500000D01*
%TO.C,R22*%
X89880000Y-60500000D02*
X90650000Y-60500000D01*
X90650000Y-59130000D02*
X90650000Y-61870000D01*
X90650000Y-61870000D02*
X97190000Y-61870000D01*
X97190000Y-59130000D02*
X90650000Y-59130000D01*
X97190000Y-61870000D02*
X97190000Y-59130000D01*
X97960000Y-60500000D02*
X97190000Y-60500000D01*
%TO.C,C3*%
X110195225Y-49525000D02*
X110695225Y-49525000D01*
X110445225Y-49275000D02*
X110445225Y-49775000D01*
X113000000Y-48420000D02*
X113000000Y-49960000D01*
X113000000Y-52040000D02*
X113000000Y-53580000D01*
X113040000Y-48420000D02*
X113040000Y-49960000D01*
X113040000Y-52040000D02*
X113040000Y-53580000D01*
X113080000Y-48421000D02*
X113080000Y-49960000D01*
X113080000Y-52040000D02*
X113080000Y-53579000D01*
X113120000Y-48422000D02*
X113120000Y-49960000D01*
X113120000Y-52040000D02*
X113120000Y-53578000D01*
X113160000Y-48424000D02*
X113160000Y-49960000D01*
X113160000Y-52040000D02*
X113160000Y-53576000D01*
X113200000Y-48427000D02*
X113200000Y-49960000D01*
X113200000Y-52040000D02*
X113200000Y-53573000D01*
X113240000Y-48431000D02*
X113240000Y-49960000D01*
X113240000Y-52040000D02*
X113240000Y-53569000D01*
X113280000Y-48435000D02*
X113280000Y-49960000D01*
X113280000Y-52040000D02*
X113280000Y-53565000D01*
X113320000Y-48439000D02*
X113320000Y-49960000D01*
X113320000Y-52040000D02*
X113320000Y-53561000D01*
X113360000Y-48444000D02*
X113360000Y-49960000D01*
X113360000Y-52040000D02*
X113360000Y-53556000D01*
X113400000Y-48450000D02*
X113400000Y-49960000D01*
X113400000Y-52040000D02*
X113400000Y-53550000D01*
X113440000Y-48457000D02*
X113440000Y-49960000D01*
X113440000Y-52040000D02*
X113440000Y-53543000D01*
X113480000Y-48464000D02*
X113480000Y-49960000D01*
X113480000Y-52040000D02*
X113480000Y-53536000D01*
X113520000Y-48472000D02*
X113520000Y-49960000D01*
X113520000Y-52040000D02*
X113520000Y-53528000D01*
X113560000Y-48480000D02*
X113560000Y-49960000D01*
X113560000Y-52040000D02*
X113560000Y-53520000D01*
X113600000Y-48489000D02*
X113600000Y-49960000D01*
X113600000Y-52040000D02*
X113600000Y-53511000D01*
X113640000Y-48499000D02*
X113640000Y-49960000D01*
X113640000Y-52040000D02*
X113640000Y-53501000D01*
X113680000Y-48509000D02*
X113680000Y-49960000D01*
X113680000Y-52040000D02*
X113680000Y-53491000D01*
X113721000Y-48520000D02*
X113721000Y-49960000D01*
X113721000Y-52040000D02*
X113721000Y-53480000D01*
X113761000Y-48532000D02*
X113761000Y-49960000D01*
X113761000Y-52040000D02*
X113761000Y-53468000D01*
X113801000Y-48545000D02*
X113801000Y-49960000D01*
X113801000Y-52040000D02*
X113801000Y-53455000D01*
X113841000Y-48558000D02*
X113841000Y-49960000D01*
X113841000Y-52040000D02*
X113841000Y-53442000D01*
X113881000Y-48572000D02*
X113881000Y-49960000D01*
X113881000Y-52040000D02*
X113881000Y-53428000D01*
X113921000Y-48586000D02*
X113921000Y-49960000D01*
X113921000Y-52040000D02*
X113921000Y-53414000D01*
X113961000Y-48602000D02*
X113961000Y-49960000D01*
X113961000Y-52040000D02*
X113961000Y-53398000D01*
X114001000Y-48618000D02*
X114001000Y-49960000D01*
X114001000Y-52040000D02*
X114001000Y-53382000D01*
X114041000Y-48635000D02*
X114041000Y-49960000D01*
X114041000Y-52040000D02*
X114041000Y-53365000D01*
X114081000Y-48652000D02*
X114081000Y-49960000D01*
X114081000Y-52040000D02*
X114081000Y-53348000D01*
X114121000Y-48671000D02*
X114121000Y-49960000D01*
X114121000Y-52040000D02*
X114121000Y-53329000D01*
X114161000Y-48690000D02*
X114161000Y-49960000D01*
X114161000Y-52040000D02*
X114161000Y-53310000D01*
X114201000Y-48710000D02*
X114201000Y-49960000D01*
X114201000Y-52040000D02*
X114201000Y-53290000D01*
X114241000Y-48732000D02*
X114241000Y-49960000D01*
X114241000Y-52040000D02*
X114241000Y-53268000D01*
X114281000Y-48753000D02*
X114281000Y-49960000D01*
X114281000Y-52040000D02*
X114281000Y-53247000D01*
X114321000Y-48776000D02*
X114321000Y-49960000D01*
X114321000Y-52040000D02*
X114321000Y-53224000D01*
X114361000Y-48800000D02*
X114361000Y-49960000D01*
X114361000Y-52040000D02*
X114361000Y-53200000D01*
X114401000Y-48825000D02*
X114401000Y-49960000D01*
X114401000Y-52040000D02*
X114401000Y-53175000D01*
X114441000Y-48851000D02*
X114441000Y-49960000D01*
X114441000Y-52040000D02*
X114441000Y-53149000D01*
X114481000Y-48878000D02*
X114481000Y-49960000D01*
X114481000Y-52040000D02*
X114481000Y-53122000D01*
X114521000Y-48905000D02*
X114521000Y-49960000D01*
X114521000Y-52040000D02*
X114521000Y-53095000D01*
X114561000Y-48935000D02*
X114561000Y-49960000D01*
X114561000Y-52040000D02*
X114561000Y-53065000D01*
X114601000Y-48965000D02*
X114601000Y-49960000D01*
X114601000Y-52040000D02*
X114601000Y-53035000D01*
X114641000Y-48996000D02*
X114641000Y-49960000D01*
X114641000Y-52040000D02*
X114641000Y-53004000D01*
X114681000Y-49029000D02*
X114681000Y-49960000D01*
X114681000Y-52040000D02*
X114681000Y-52971000D01*
X114721000Y-49063000D02*
X114721000Y-49960000D01*
X114721000Y-52040000D02*
X114721000Y-52937000D01*
X114761000Y-49099000D02*
X114761000Y-49960000D01*
X114761000Y-52040000D02*
X114761000Y-52901000D01*
X114801000Y-49136000D02*
X114801000Y-49960000D01*
X114801000Y-52040000D02*
X114801000Y-52864000D01*
X114841000Y-49174000D02*
X114841000Y-49960000D01*
X114841000Y-52040000D02*
X114841000Y-52826000D01*
X114881000Y-49215000D02*
X114881000Y-49960000D01*
X114881000Y-52040000D02*
X114881000Y-52785000D01*
X114921000Y-49257000D02*
X114921000Y-49960000D01*
X114921000Y-52040000D02*
X114921000Y-52743000D01*
X114961000Y-49301000D02*
X114961000Y-49960000D01*
X114961000Y-52040000D02*
X114961000Y-52699000D01*
X115001000Y-49347000D02*
X115001000Y-49960000D01*
X115001000Y-52040000D02*
X115001000Y-52653000D01*
X115041000Y-49395000D02*
X115041000Y-52605000D01*
X115081000Y-49446000D02*
X115081000Y-52554000D01*
X115121000Y-49500000D02*
X115121000Y-52500000D01*
X115161000Y-49557000D02*
X115161000Y-52443000D01*
X115201000Y-49617000D02*
X115201000Y-52383000D01*
X115241000Y-49681000D02*
X115241000Y-52319000D01*
X115281000Y-49749000D02*
X115281000Y-52251000D01*
X115321000Y-49822000D02*
X115321000Y-52178000D01*
X115361000Y-49902000D02*
X115361000Y-52098000D01*
X115401000Y-49989000D02*
X115401000Y-52011000D01*
X115441000Y-50085000D02*
X115441000Y-51915000D01*
X115481000Y-50195000D02*
X115481000Y-51805000D01*
X115521000Y-50323000D02*
X115521000Y-51677000D01*
X115561000Y-50482000D02*
X115561000Y-51518000D01*
X115601000Y-50716000D02*
X115601000Y-51284000D01*
X115620000Y-51000000D02*
G75*
G02*
X110380000Y-51000000I-2620000J0D01*
G01*
X110380000Y-51000000D02*
G75*
G02*
X115620000Y-51000000I2620000J0D01*
G01*
%TO.C,U5*%
X77170000Y-84030000D02*
X77170000Y-104590000D01*
X77170000Y-104590000D02*
X87450000Y-104590000D01*
X79660000Y-84090000D02*
X79660000Y-104530000D01*
X79660000Y-104530000D02*
X81310000Y-104530000D01*
X83310000Y-104530000D02*
X84960000Y-104530000D01*
X84960000Y-84090000D02*
X79660000Y-84090000D01*
X84960000Y-104530000D02*
X84960000Y-84090000D01*
X87450000Y-84030000D02*
X77170000Y-84030000D01*
X87450000Y-104590000D02*
X87450000Y-84030000D01*
X81310000Y-104530000D02*
G75*
G02*
X83310000Y-104530000I1000000J0D01*
G01*
%TO.C,R2*%
X47380000Y-66000000D02*
X48150000Y-66000000D01*
X48150000Y-64630000D02*
X48150000Y-67370000D01*
X48150000Y-67370000D02*
X54690000Y-67370000D01*
X54690000Y-64630000D02*
X48150000Y-64630000D01*
X54690000Y-67370000D02*
X54690000Y-64630000D01*
X55460000Y-66000000D02*
X54690000Y-66000000D01*
%TO.C,R23*%
X89880000Y-57500000D02*
X90650000Y-57500000D01*
X90650000Y-56130000D02*
X90650000Y-58870000D01*
X90650000Y-58870000D02*
X97190000Y-58870000D01*
X97190000Y-56130000D02*
X90650000Y-56130000D01*
X97190000Y-58870000D02*
X97190000Y-56130000D01*
X97960000Y-57500000D02*
X97190000Y-57500000D01*
%TO.C,R37*%
X131880000Y-84500000D02*
X132650000Y-84500000D01*
X132650000Y-83130000D02*
X132650000Y-85870000D01*
X132650000Y-85870000D02*
X139190000Y-85870000D01*
X139190000Y-83130000D02*
X132650000Y-83130000D01*
X139190000Y-85870000D02*
X139190000Y-83130000D01*
X139960000Y-84500000D02*
X139190000Y-84500000D01*
%TO.C,R40*%
X146630000Y-81810000D02*
X146630000Y-88350000D01*
X146630000Y-88350000D02*
X149370000Y-88350000D01*
X148000000Y-81040000D02*
X148000000Y-81810000D01*
X148000000Y-89120000D02*
X148000000Y-88350000D01*
X149370000Y-81810000D02*
X146630000Y-81810000D01*
X149370000Y-88350000D02*
X149370000Y-81810000D01*
%TO.C,SW1*%
X120500000Y-39840000D02*
X120500000Y-41223000D01*
X120500000Y-39840000D02*
X121884000Y-39840000D01*
X120740000Y-40080000D02*
X120740000Y-44920000D01*
X120740000Y-40080000D02*
X130640000Y-40080000D01*
X120740000Y-44920000D02*
X130640000Y-44920000D01*
X123660000Y-41865000D02*
X123660000Y-43135000D01*
X123660000Y-41985000D02*
X125013333Y-41985000D01*
X123660000Y-42105000D02*
X125013333Y-42105000D01*
X123660000Y-42225000D02*
X125013333Y-42225000D01*
X123660000Y-42345000D02*
X125013333Y-42345000D01*
X123660000Y-42465000D02*
X125013333Y-42465000D01*
X123660000Y-42585000D02*
X125013333Y-42585000D01*
X123660000Y-42705000D02*
X125013333Y-42705000D01*
X123660000Y-42825000D02*
X125013333Y-42825000D01*
X123660000Y-42945000D02*
X125013333Y-42945000D01*
X123660000Y-43065000D02*
X125013333Y-43065000D01*
X123660000Y-43135000D02*
X127720000Y-43135000D01*
X125013333Y-41865000D02*
X125013333Y-43135000D01*
X127720000Y-41865000D02*
X123660000Y-41865000D01*
X127720000Y-43135000D02*
X127720000Y-41865000D01*
X130640000Y-40080000D02*
X130640000Y-44920000D01*
%TO.C,U4*%
X77050000Y-55370000D02*
X77050000Y-75930000D01*
X77050000Y-75930000D02*
X87330000Y-75930000D01*
X79540000Y-55430000D02*
X79540000Y-75870000D01*
X79540000Y-75870000D02*
X81190000Y-75870000D01*
X83190000Y-75870000D02*
X84840000Y-75870000D01*
X84840000Y-55430000D02*
X79540000Y-55430000D01*
X84840000Y-75870000D02*
X84840000Y-55430000D01*
X87330000Y-55370000D02*
X77050000Y-55370000D01*
X87330000Y-75930000D02*
X87330000Y-55370000D01*
X81190000Y-75870000D02*
G75*
G02*
X83190000Y-75870000I1000000J0D01*
G01*
%TO.C,U8*%
X100479500Y-74069500D02*
X100479500Y-72869500D01*
X100839500Y-54489500D02*
X100839500Y-73709500D01*
X100839500Y-73709500D02*
X113659500Y-73709500D01*
X101679500Y-74069500D02*
X100479500Y-74069500D01*
X113659500Y-54489500D02*
X100839500Y-54489500D01*
X113659500Y-73709500D02*
X113659500Y-54489500D01*
%TO.C,P1*%
X110330000Y-108450000D02*
X110330000Y-106750000D01*
X119670000Y-108450000D02*
X119670000Y-106750000D01*
%TO.C,U6*%
X159836487Y-66917747D02*
X159836487Y-87477747D01*
X159836487Y-87477747D02*
X170116487Y-87477747D01*
X162326487Y-66977747D02*
X162326487Y-87417747D01*
X162326487Y-87417747D02*
X167626487Y-87417747D01*
X163976487Y-66977747D02*
X162326487Y-66977747D01*
X167626487Y-66977747D02*
X165976487Y-66977747D01*
X167626487Y-87417747D02*
X167626487Y-66977747D01*
X170116487Y-66917747D02*
X159836487Y-66917747D01*
X170116487Y-87477747D02*
X170116487Y-66917747D01*
X165976487Y-66977747D02*
G75*
G02*
X163976487Y-66977747I-1000000J0D01*
G01*
%TO.C,D1*%
X123531134Y-107053850D02*
G75*
G02*
X125400000Y-107113239I968866J1053850D01*
G01*
%TO.C,SW4*%
X62750000Y-93250000D02*
X67250000Y-93250000D01*
X67250000Y-86750000D02*
X62750000Y-86750000D01*
%TO.C,R20*%
X89880000Y-66500000D02*
X90650000Y-66500000D01*
X90650000Y-65130000D02*
X90650000Y-67870000D01*
X90650000Y-67870000D02*
X97190000Y-67870000D01*
X97190000Y-65130000D02*
X90650000Y-65130000D01*
X97190000Y-67870000D02*
X97190000Y-65130000D01*
X97960000Y-66500000D02*
X97190000Y-66500000D01*
%TO.C,R35*%
X131880000Y-78500000D02*
X132650000Y-78500000D01*
X132650000Y-77130000D02*
X132650000Y-79870000D01*
X132650000Y-79870000D02*
X139190000Y-79870000D01*
X139190000Y-77130000D02*
X132650000Y-77130000D01*
X139190000Y-79870000D02*
X139190000Y-77130000D01*
X139960000Y-78500000D02*
X139190000Y-78500000D01*
%TO.C,D4*%
X51790000Y-41000000D02*
X54280000Y-41000000D01*
X54280000Y-39530000D02*
X54280000Y-42470000D01*
X54280000Y-42470000D02*
X59720000Y-42470000D01*
X58700000Y-42470000D02*
X58700000Y-39530000D01*
X58820000Y-42470000D02*
X58820000Y-39530000D01*
X58940000Y-42470000D02*
X58940000Y-39530000D01*
X59720000Y-39530000D02*
X54280000Y-39530000D01*
X59720000Y-42470000D02*
X59720000Y-39530000D01*
X62210000Y-41000000D02*
X59720000Y-41000000D01*
%TO.C,R21*%
X89880000Y-63500000D02*
X90650000Y-63500000D01*
X90650000Y-62130000D02*
X90650000Y-64870000D01*
X90650000Y-64870000D02*
X97190000Y-64870000D01*
X97190000Y-62130000D02*
X90650000Y-62130000D01*
X97190000Y-64870000D02*
X97190000Y-62130000D01*
X97960000Y-63500000D02*
X97190000Y-63500000D01*
%TO.C,R32*%
X89880000Y-78500000D02*
X90650000Y-78500000D01*
X90650000Y-77130000D02*
X90650000Y-79870000D01*
X90650000Y-79870000D02*
X97190000Y-79870000D01*
X97190000Y-77130000D02*
X90650000Y-77130000D01*
X97190000Y-79870000D02*
X97190000Y-77130000D01*
X97960000Y-78500000D02*
X97190000Y-78500000D01*
%TO.C,R31*%
X89880000Y-81500000D02*
X90650000Y-81500000D01*
X90650000Y-80130000D02*
X90650000Y-82870000D01*
X90650000Y-82870000D02*
X97190000Y-82870000D01*
X97190000Y-80130000D02*
X90650000Y-80130000D01*
X97190000Y-82870000D02*
X97190000Y-80130000D01*
X97960000Y-81500000D02*
X97190000Y-81500000D01*
%TO.C,R14*%
X131880000Y-63500000D02*
X132650000Y-63500000D01*
X132650000Y-62130000D02*
X132650000Y-64870000D01*
X132650000Y-64870000D02*
X139190000Y-64870000D01*
X139190000Y-62130000D02*
X132650000Y-62130000D01*
X139190000Y-64870000D02*
X139190000Y-62130000D01*
X139960000Y-63500000D02*
X139190000Y-63500000D01*
%TO.C,D2*%
X98290000Y-47500000D02*
X100780000Y-47500000D01*
X100780000Y-46030000D02*
X100780000Y-48970000D01*
X100780000Y-48970000D02*
X106220000Y-48970000D01*
X105200000Y-48970000D02*
X105200000Y-46030000D01*
X105320000Y-48970000D02*
X105320000Y-46030000D01*
X105440000Y-48970000D02*
X105440000Y-46030000D01*
X106220000Y-46030000D02*
X100780000Y-46030000D01*
X106220000Y-48970000D02*
X106220000Y-46030000D01*
X108710000Y-47500000D02*
X106220000Y-47500000D01*
%TO.C,R11*%
X131880000Y-54500000D02*
X132650000Y-54500000D01*
X132650000Y-53130000D02*
X132650000Y-55870000D01*
X132650000Y-55870000D02*
X139190000Y-55870000D01*
X139190000Y-53130000D02*
X132650000Y-53130000D01*
X139190000Y-55870000D02*
X139190000Y-53130000D01*
X139960000Y-54500000D02*
X139190000Y-54500000D01*
%TO.C,D3*%
X58030000Y-55780000D02*
X58030000Y-61220000D01*
X58030000Y-61220000D02*
X60970000Y-61220000D01*
X59500000Y-53290000D02*
X59500000Y-55780000D01*
X59500000Y-63710000D02*
X59500000Y-61220000D01*
X60970000Y-55780000D02*
X58030000Y-55780000D01*
X60970000Y-56560000D02*
X58030000Y-56560000D01*
X60970000Y-56680000D02*
X58030000Y-56680000D01*
X60970000Y-56800000D02*
X58030000Y-56800000D01*
X60970000Y-61220000D02*
X60970000Y-55780000D01*
%TO.C,R30*%
X89880000Y-84500000D02*
X90650000Y-84500000D01*
X90650000Y-83130000D02*
X90650000Y-85870000D01*
X90650000Y-85870000D02*
X97190000Y-85870000D01*
X97190000Y-83130000D02*
X90650000Y-83130000D01*
X97190000Y-85870000D02*
X97190000Y-83130000D01*
X97960000Y-84500000D02*
X97190000Y-84500000D01*
%TO.C,R18*%
X89880000Y-72500000D02*
X90650000Y-72500000D01*
X90650000Y-71130000D02*
X90650000Y-73870000D01*
X90650000Y-73870000D02*
X97190000Y-73870000D01*
X97190000Y-71130000D02*
X90650000Y-71130000D01*
X97190000Y-73870000D02*
X97190000Y-71130000D01*
X97960000Y-72500000D02*
X97190000Y-72500000D01*
%TO.C,SW8*%
X152750000Y-88250000D02*
X157250000Y-88250000D01*
X157250000Y-81750000D02*
X152750000Y-81750000D01*
%TO.C,SW5*%
X72750000Y-83250000D02*
X77250000Y-83250000D01*
X77250000Y-76750000D02*
X72750000Y-76750000D01*
%TO.C,R41*%
X142630000Y-81810000D02*
X142630000Y-88350000D01*
X142630000Y-88350000D02*
X145370000Y-88350000D01*
X144000000Y-81040000D02*
X144000000Y-81810000D01*
X144000000Y-89120000D02*
X144000000Y-88350000D01*
X145370000Y-81810000D02*
X142630000Y-81810000D01*
X145370000Y-88350000D02*
X145370000Y-81810000D01*
%TO.C,C4*%
X98780000Y-41130000D02*
X98780000Y-43870000D01*
X98780000Y-41130000D02*
X106220000Y-41130000D01*
X98780000Y-43870000D02*
X106220000Y-43870000D01*
X106220000Y-41130000D02*
X106220000Y-43870000D01*
%TO.C,U9*%
X100479500Y-95869500D02*
X100479500Y-94669500D01*
X100839500Y-76289500D02*
X100839500Y-95509500D01*
X100839500Y-95509500D02*
X113659500Y-95509500D01*
X101679500Y-95869500D02*
X100479500Y-95869500D01*
X113659500Y-76289500D02*
X100839500Y-76289500D01*
X113659500Y-95509500D02*
X113659500Y-76289500D01*
%TO.C,R17*%
X131880000Y-72500000D02*
X132650000Y-72500000D01*
X132650000Y-71130000D02*
X132650000Y-73870000D01*
X132650000Y-73870000D02*
X139190000Y-73870000D01*
X139190000Y-71130000D02*
X132650000Y-71130000D01*
X139190000Y-73870000D02*
X139190000Y-71130000D01*
X139960000Y-72500000D02*
X139190000Y-72500000D01*
%TO.C,R25*%
X89880000Y-51500000D02*
X90650000Y-51500000D01*
X90650000Y-50130000D02*
X90650000Y-52870000D01*
X90650000Y-52870000D02*
X97190000Y-52870000D01*
X97190000Y-50130000D02*
X90650000Y-50130000D01*
X97190000Y-52870000D02*
X97190000Y-50130000D01*
X97960000Y-51500000D02*
X97190000Y-51500000D01*
%TO.C,R8*%
X61460000Y-107500000D02*
X62230000Y-107500000D01*
X62230000Y-106130000D02*
X62230000Y-108870000D01*
X62230000Y-108870000D02*
X68770000Y-108870000D01*
X68770000Y-106130000D02*
X62230000Y-106130000D01*
X68770000Y-108870000D02*
X68770000Y-106130000D01*
X69540000Y-107500000D02*
X68770000Y-107500000D01*
%TO.C,R4*%
X75380000Y-48500000D02*
X76150000Y-48500000D01*
X76150000Y-47130000D02*
X76150000Y-49870000D01*
X76150000Y-49870000D02*
X82690000Y-49870000D01*
X82690000Y-47130000D02*
X76150000Y-47130000D01*
X82690000Y-49870000D02*
X82690000Y-47130000D01*
X83460000Y-48500000D02*
X82690000Y-48500000D01*
%TO.C,U2*%
X88150000Y-39590000D02*
X91910000Y-39590000D01*
X88150000Y-46410000D02*
X91910000Y-46410000D01*
X91910000Y-39590000D02*
X91910000Y-40850000D01*
X91910000Y-46410000D02*
X91910000Y-45150000D01*
X86870000Y-39690000D02*
X86630000Y-39360000D01*
X87110000Y-39360000D01*
X86870000Y-39690000D01*
G36*
X86870000Y-39690000D02*
G01*
X86630000Y-39360000D01*
X87110000Y-39360000D01*
X86870000Y-39690000D01*
G37*
%TD*%
%LPC*%
D12*
%TO.C,SW7*%
X152000000Y-70000000D03*
X158000000Y-70000000D03*
%TD*%
D13*
%TO.C,R34*%
X130840000Y-75500000D03*
D14*
X141000000Y-75500000D03*
%TD*%
D13*
%TO.C,R6*%
X120500000Y-99500000D03*
D14*
X110340000Y-99500000D03*
%TD*%
D12*
%TO.C,SW3*%
X52000000Y-80000000D03*
X58000000Y-80000000D03*
%TD*%
D15*
%TO.C,J5*%
X63500000Y-53500000D03*
%TD*%
D13*
%TO.C,R24*%
X99000000Y-54500000D03*
D14*
X88840000Y-54500000D03*
%TD*%
D13*
%TO.C,FB1*%
X100000000Y-104000000D03*
X105000000Y-104000000D03*
%TD*%
D12*
%TO.C,SW10*%
X177500000Y-106500000D03*
X183500000Y-106500000D03*
%TD*%
D13*
%TO.C,R12*%
X130840000Y-57500000D03*
D14*
X141000000Y-57500000D03*
%TD*%
D13*
%TO.C,R27*%
X99000000Y-93500000D03*
D14*
X88840000Y-93500000D03*
%TD*%
D13*
%TO.C,R10*%
X130840000Y-51500000D03*
D14*
X141000000Y-51500000D03*
%TD*%
D16*
%TO.C,U7*%
X117669500Y-71719500D03*
D17*
X120209500Y-71719500D03*
X122749500Y-71719500D03*
X125289500Y-71719500D03*
X127829500Y-71719500D03*
X127829500Y-56479500D03*
X125289500Y-56479500D03*
X122749500Y-56479500D03*
X120209500Y-56479500D03*
X117669500Y-56479500D03*
%TD*%
D13*
%TO.C,R7*%
X75500000Y-101000000D03*
D14*
X65340000Y-101000000D03*
%TD*%
D16*
%TO.C,U1*%
X71880000Y-43040000D03*
D17*
X71880000Y-40500000D03*
X74420000Y-43040000D03*
X74420000Y-40500000D03*
X76960000Y-43040000D03*
X76960000Y-40500000D03*
X79500000Y-43040000D03*
X79500000Y-40500000D03*
%TD*%
D13*
%TO.C,R33*%
X99000000Y-75500000D03*
D14*
X88840000Y-75500000D03*
%TD*%
D13*
%TO.C,R3*%
X46340000Y-72000000D03*
D14*
X56500000Y-72000000D03*
%TD*%
D16*
%TO.C,U10*%
X117669500Y-93519500D03*
D17*
X120209500Y-93519500D03*
X122749500Y-93519500D03*
X125289500Y-93519500D03*
X127829500Y-93519500D03*
X127829500Y-78279500D03*
X125289500Y-78279500D03*
X122749500Y-78279500D03*
X120209500Y-78279500D03*
X117669500Y-78279500D03*
%TD*%
D15*
%TO.C,J1*%
X63500000Y-47500000D03*
%TD*%
D18*
%TO.C,U3*%
X145500000Y-46760000D03*
D14*
X145500000Y-49300000D03*
X145500000Y-51840000D03*
X145500000Y-54380000D03*
X145500000Y-56920000D03*
X145500000Y-59460000D03*
X145500000Y-62000000D03*
X145500000Y-64540000D03*
X153120000Y-64540000D03*
X153120000Y-62000000D03*
X153120000Y-59460000D03*
X153120000Y-56920000D03*
X153120000Y-54380000D03*
X153120000Y-51840000D03*
X153120000Y-49300000D03*
X153120000Y-46760000D03*
%TD*%
D13*
%TO.C,R29*%
X99000000Y-87500000D03*
D14*
X88840000Y-87500000D03*
%TD*%
D18*
%TO.C,A1*%
X170580000Y-95260000D03*
D14*
X168040000Y-95260000D03*
X165500000Y-95260000D03*
X162960000Y-95260000D03*
X160420000Y-95260000D03*
X157880000Y-95260000D03*
X155340000Y-95260000D03*
X152800000Y-95260000D03*
X150260000Y-95260000D03*
X147720000Y-95260000D03*
X145180000Y-95260000D03*
X142640000Y-95260000D03*
X140100000Y-95260000D03*
X137560000Y-95260000D03*
X135020000Y-95260000D03*
X135020000Y-110500000D03*
X137560000Y-110500000D03*
X140100000Y-110500000D03*
X142640000Y-110500000D03*
X145180000Y-110500000D03*
X147720000Y-110500000D03*
X150260000Y-110500000D03*
X152800000Y-110500000D03*
X155340000Y-110500000D03*
X157880000Y-110500000D03*
X160420000Y-110500000D03*
X162960000Y-110500000D03*
X165500000Y-110500000D03*
X168040000Y-110500000D03*
X170580000Y-110500000D03*
%TD*%
D13*
%TO.C,C2*%
X156000000Y-47500000D03*
X161000000Y-47500000D03*
%TD*%
%TO.C,R13*%
X130840000Y-60500000D03*
D14*
X141000000Y-60500000D03*
%TD*%
D19*
%TO.C,H1*%
X50000000Y-50000000D03*
%TD*%
D18*
%TO.C,C1*%
X162500000Y-57500000D03*
D13*
X164500000Y-57500000D03*
%TD*%
D12*
%TO.C,SW9*%
X172000000Y-85000000D03*
X178000000Y-85000000D03*
%TD*%
D20*
%TO.C,D5*%
X68455000Y-48500000D03*
D21*
X70995000Y-48500000D03*
%TD*%
D13*
%TO.C,R19*%
X99000000Y-69500000D03*
D14*
X88840000Y-69500000D03*
%TD*%
D12*
%TO.C,SW6*%
X172000000Y-70000000D03*
X178000000Y-70000000D03*
%TD*%
D13*
%TO.C,R1*%
X46340000Y-60400000D03*
D14*
X56500000Y-60400000D03*
%TD*%
D13*
%TO.C,R28*%
X99000000Y-90500000D03*
D14*
X88840000Y-90500000D03*
%TD*%
D13*
%TO.C,R39*%
X130840000Y-90500000D03*
D14*
X141000000Y-90500000D03*
%TD*%
D13*
%TO.C,R9*%
X68000000Y-52420000D03*
D14*
X68000000Y-62580000D03*
%TD*%
D12*
%TO.C,SW2*%
X62000000Y-70000000D03*
X68000000Y-70000000D03*
%TD*%
D13*
%TO.C,R26*%
X99000000Y-96500000D03*
D14*
X88840000Y-96500000D03*
%TD*%
D19*
%TO.C,H2*%
X180000000Y-50000000D03*
%TD*%
D13*
%TO.C,R15*%
X130840000Y-66500000D03*
D14*
X141000000Y-66500000D03*
%TD*%
D13*
%TO.C,R38*%
X130840000Y-87500000D03*
D14*
X141000000Y-87500000D03*
%TD*%
D13*
%TO.C,R16*%
X130840000Y-69500000D03*
D14*
X141000000Y-69500000D03*
%TD*%
D13*
%TO.C,R5*%
X74340000Y-52550000D03*
D14*
X84500000Y-52550000D03*
%TD*%
D13*
%TO.C,R36*%
X130840000Y-81500000D03*
D14*
X141000000Y-81500000D03*
%TD*%
D13*
%TO.C,R22*%
X99000000Y-60500000D03*
D14*
X88840000Y-60500000D03*
%TD*%
D19*
%TO.C,H3*%
X50000000Y-95000000D03*
%TD*%
D18*
%TO.C,C3*%
X112000000Y-51000000D03*
D13*
X114000000Y-51000000D03*
%TD*%
D18*
%TO.C,U5*%
X86120000Y-103200000D03*
D14*
X86120000Y-100660000D03*
X86120000Y-98120000D03*
X86120000Y-95580000D03*
X86120000Y-93040000D03*
X86120000Y-90500000D03*
X86120000Y-87960000D03*
X86120000Y-85420000D03*
X78500000Y-85420000D03*
X78500000Y-87960000D03*
X78500000Y-90500000D03*
X78500000Y-93040000D03*
X78500000Y-95580000D03*
X78500000Y-98120000D03*
X78500000Y-100660000D03*
X78500000Y-103200000D03*
%TD*%
D13*
%TO.C,R2*%
X46340000Y-66000000D03*
D14*
X56500000Y-66000000D03*
%TD*%
D13*
%TO.C,R23*%
X99000000Y-57500000D03*
D14*
X88840000Y-57500000D03*
%TD*%
D22*
%TO.C,J3*%
X117500000Y-50000000D03*
%TD*%
D13*
%TO.C,R37*%
X130840000Y-84500000D03*
D14*
X141000000Y-84500000D03*
%TD*%
D13*
%TO.C,R40*%
X148000000Y-90160000D03*
D14*
X148000000Y-80000000D03*
%TD*%
D18*
%TO.C,SW1*%
X121880000Y-42500000D03*
D14*
X129500000Y-42500000D03*
%TD*%
D18*
%TO.C,U4*%
X86000000Y-74540000D03*
D14*
X86000000Y-72000000D03*
X86000000Y-69460000D03*
X86000000Y-66920000D03*
X86000000Y-64380000D03*
X86000000Y-61840000D03*
X86000000Y-59300000D03*
X86000000Y-56760000D03*
X78380000Y-56760000D03*
X78380000Y-59300000D03*
X78380000Y-61840000D03*
X78380000Y-64380000D03*
X78380000Y-66920000D03*
X78380000Y-69460000D03*
X78380000Y-72000000D03*
X78380000Y-74540000D03*
%TD*%
D16*
%TO.C,U8*%
X102169500Y-71719500D03*
D17*
X104709500Y-71719500D03*
X107249500Y-71719500D03*
X109789500Y-71719500D03*
X112329500Y-71719500D03*
X112329500Y-56479500D03*
X109789500Y-56479500D03*
X107249500Y-56479500D03*
X104709500Y-56479500D03*
X102169500Y-56479500D03*
%TD*%
D23*
%TO.C,P1*%
X114500000Y-105620000D03*
D24*
X116520000Y-105620000D03*
D25*
X117750000Y-105620000D03*
D26*
X115500000Y-105620000D03*
D27*
X113480000Y-105620000D03*
D28*
X112250000Y-105620000D03*
D29*
X110680000Y-105700000D03*
X110680000Y-109500000D03*
X119320000Y-105700000D03*
X119320000Y-109500000D03*
%TD*%
D18*
%TO.C,U6*%
X161166487Y-68307747D03*
D14*
X161166487Y-70847747D03*
X161166487Y-73387747D03*
X161166487Y-75927747D03*
X161166487Y-78467747D03*
X161166487Y-81007747D03*
X161166487Y-83547747D03*
X161166487Y-86087747D03*
X168786487Y-86087747D03*
X168786487Y-83547747D03*
X168786487Y-81007747D03*
X168786487Y-78467747D03*
X168786487Y-75927747D03*
X168786487Y-73387747D03*
X168786487Y-70847747D03*
X168786487Y-68307747D03*
%TD*%
D20*
%TO.C,D1*%
X124500000Y-106000000D03*
D21*
X124500000Y-108540000D03*
%TD*%
D12*
%TO.C,SW4*%
X62000000Y-90000000D03*
X68000000Y-90000000D03*
%TD*%
D15*
%TO.C,J2*%
X63500000Y-59500000D03*
%TD*%
D13*
%TO.C,R20*%
X99000000Y-66500000D03*
D14*
X88840000Y-66500000D03*
%TD*%
D13*
%TO.C,R35*%
X130840000Y-78500000D03*
D14*
X141000000Y-78500000D03*
%TD*%
D20*
%TO.C,D4*%
X63350000Y-41000000D03*
D21*
X50650000Y-41000000D03*
%TD*%
D13*
%TO.C,R21*%
X99000000Y-63500000D03*
D14*
X88840000Y-63500000D03*
%TD*%
D13*
%TO.C,R32*%
X99000000Y-78500000D03*
D14*
X88840000Y-78500000D03*
%TD*%
D13*
%TO.C,R31*%
X99000000Y-81500000D03*
D14*
X88840000Y-81500000D03*
%TD*%
D13*
%TO.C,R14*%
X130840000Y-63500000D03*
D14*
X141000000Y-63500000D03*
%TD*%
D19*
%TO.C,H4*%
X180000000Y-95000000D03*
%TD*%
D20*
%TO.C,D2*%
X109850000Y-47500000D03*
D21*
X97150000Y-47500000D03*
%TD*%
D13*
%TO.C,R11*%
X130840000Y-54500000D03*
D14*
X141000000Y-54500000D03*
%TD*%
D20*
%TO.C,D3*%
X59500000Y-52150000D03*
D21*
X59500000Y-64850000D03*
%TD*%
D13*
%TO.C,R30*%
X99000000Y-84500000D03*
D14*
X88840000Y-84500000D03*
%TD*%
D13*
%TO.C,R18*%
X99000000Y-72500000D03*
D14*
X88840000Y-72500000D03*
%TD*%
D12*
%TO.C,SW8*%
X152000000Y-85000000D03*
X158000000Y-85000000D03*
%TD*%
%TO.C,SW5*%
X72000000Y-80000000D03*
X78000000Y-80000000D03*
%TD*%
D13*
%TO.C,R41*%
X144000000Y-90160000D03*
D14*
X144000000Y-80000000D03*
%TD*%
D13*
%TO.C,C4*%
X100000000Y-42500000D03*
X105000000Y-42500000D03*
%TD*%
D16*
%TO.C,U9*%
X102169500Y-93519500D03*
D17*
X104709500Y-93519500D03*
X107249500Y-93519500D03*
X109789500Y-93519500D03*
X112329500Y-93519500D03*
X112329500Y-78279500D03*
X109789500Y-78279500D03*
X107249500Y-78279500D03*
X104709500Y-78279500D03*
X102169500Y-78279500D03*
%TD*%
D22*
%TO.C,J6*%
X127500000Y-50000000D03*
%TD*%
D13*
%TO.C,R17*%
X130840000Y-72500000D03*
D14*
X141000000Y-72500000D03*
%TD*%
D13*
%TO.C,R25*%
X99000000Y-51500000D03*
D14*
X88840000Y-51500000D03*
%TD*%
D13*
%TO.C,R8*%
X60420000Y-107500000D03*
D14*
X70580000Y-107500000D03*
%TD*%
D13*
%TO.C,R4*%
X74340000Y-48500000D03*
D14*
X84500000Y-48500000D03*
%TD*%
D30*
%TO.C,U2*%
X86850000Y-40700000D03*
X86850000Y-43000000D03*
D31*
X93150000Y-43000000D03*
D30*
X86850000Y-45300000D03*
%TD*%
%LPD*%
M02*
